VotoSerifGX-ExtendedBoldText.ufo
<glyph name="exclam" format="2">
  <advance width="409"/>
  <unicode hex="0021"/>
  <outline>
    <contour>
      <point x="152" y="241" type="line"/>
      <point x="257" y="241" type="line"/>
      <point x="331" y="714" type="line"/>
      <point x="78" y="714" type="line"/>
    </contour>
    <contour>
      <point x="204" y="-10" type="curve" smooth="yes"/>
      <point x="261" y="-10"/>
      <point x="312" y="16"/>
      <point x="312" y="92" type="curve" smooth="yes"/>
      <point x="312" y="170"/>
      <point x="261" y="194"/>
      <point x="204" y="194" type="curve" smooth="yes"/>
      <point x="145" y="194"/>
      <point x="98" y="170"/>
      <point x="98" y="92" type="curve" smooth="yes"/>
      <point x="98" y="16"/>
      <point x="145" y="-10"/>
    </contour>
  </outline>
</glyph>
<glyph name="quotedbl" format="2">
  <advance width="678"/>
  <unicode hex="0022"/>
  <outline>
    <contour>
      <point x="151" y="391" type="line"/>
      <point x="246" y="391" type="line"/>
      <point x="311" y="714" type="line"/>
      <point x="86" y="714" type="line"/>
    </contour>
    <contour>
      <point x="432" y="391" type="line"/>
      <point x="527" y="391" type="line"/>
      <point x="592" y="714" type="line"/>
      <point x="367" y="714" type="line"/>
    </contour>
  </outline>
</glyph>
<glyph name="plus" format="2">
  <advance width="713"/>
  <unicode hex="002B"/>
  <outline>
    <contour>
      <point x="314" y="127" type="line"/>
      <point x="397" y="127" type="line"/>
      <point x="397" y="315" type="line"/>
      <point x="627" y="315" type="line"/>
      <point x="627" y="400" type="line"/>
      <point x="397" y="400" type="line"/>
      <point x="397" y="588" type="line"/>
      <point x="314" y="588" type="line"/>
      <point x="314" y="400" type="line"/>
      <point x="86" y="400" type="line"/>
      <point x="86" y="315" type="line"/>
      <point x="314" y="315" type="line"/>
    </contour>
  </outline>
</glyph>
<glyph name="zero" format="2">
  <advance width="672"/>
  <unicode hex="0030"/>
  <outline>
    <contour>
      <point x="337" y="-10" type="curve" smooth="yes"/>
      <point x="555" y="-10"/>
      <point x="632" y="140"/>
      <point x="632" y="358" type="curve" smooth="yes"/>
      <point x="632" y="576"/>
      <point x="555" y="724"/>
      <point x="338" y="724" type="curve" smooth="yes"/>
      <point x="108" y="724"/>
      <point x="41" y="578"/>
      <point x="41" y="359" type="curve" smooth="yes"/>
      <point x="41" y="141"/>
      <point x="108" y="-10"/>
    </contour>
    <contour>
      <point x="337" y="69" type="curve" smooth="yes"/>
      <point x="269" y="69"/>
      <point x="264" y="176"/>
      <point x="264" y="358" type="curve" smooth="yes"/>
      <point x="264" y="540"/>
      <point x="269" y="645"/>
      <point x="338" y="645" type="curve" smooth="yes"/>
      <point x="404" y="645"/>
      <point x="407" y="540"/>
      <point x="407" y="358" type="curve" smooth="yes"/>
      <point x="407" y="176"/>
      <point x="404" y="69"/>
    </contour>
  </outline>
</glyph>
<glyph name="greater" format="2">
  <advance width="713"/>
  <unicode hex="003E"/>
  <outline>
    <contour>
      <point x="86" y="77" type="line"/>
      <point x="627" y="334" type="line"/>
      <point x="627" y="381" type="line"/>
      <point x="86" y="639" type="line"/>
      <point x="86" y="548" type="line"/>
      <point x="491" y="357" type="line"/>
      <point x="86" y="168" type="line"/>
    </contour>
  </outline>
</glyph>
<glyph name="E" format="2">
  <advance width="787"/>
  <unicode hex="0045"/>
  <anchor x="394" y="0" name="bottom"/>
  <anchor x="394" y="714" name="top"/>
  <anchor x="767" y="714" name="topright"/>
  <outline>
    <contour>
      <point x="24" y="0" type="line"/>
      <point x="750" y="0" type="line"/>
      <point x="759" y="195" type="line"/>
      <point x="664" y="195" type="line"/>
      <point x="654" y="143" type="line" smooth="yes"/>
      <point x="646" y="99"/>
      <point x="622" y="74"/>
      <point x="572" y="74" type="curve" smooth="yes"/>
      <point x="363" y="74" type="line"/>
      <point x="363" y="336" type="line"/>
      <point x="639" y="336" type="line"/>
      <point x="639" y="409" type="line"/>
      <point x="363" y="409" type="line"/>
      <point x="363" y="640" type="line"/>
      <point x="539" y="640" type="line" smooth="yes"/>
      <point x="594" y="640"/>
      <point x="610" y="626"/>
      <point x="617" y="571" type="curve" smooth="yes"/>
      <point x="623" y="519" type="line"/>
      <point x="719" y="519" type="line"/>
      <point x="715" y="714" type="line"/>
      <point x="24" y="714" type="line"/>
      <point x="24" y="648" type="line"/>
      <point x="82" y="648" type="line" smooth="yes"/>
      <point x="108" y="648"/>
      <point x="132" y="641"/>
      <point x="132" y="598" type="curve" smooth="yes"/>
      <point x="132" y="111" type="line" smooth="yes"/>
      <point x="132" y="90"/>
      <point x="115" y="66"/>
      <point x="84" y="66" type="curve" smooth="yes"/>
      <point x="24" y="66" type="line"/>
    </contour>
  </outline>
</glyph>
<glyph name="O" format="2">
  <advance width="956"/>
  <unicode hex="004F"/>
  <anchor x="478" y="0" name="bottom"/>
  <anchor x="478" y="357" name="center"/>
  <anchor x="478" y="714" name="top"/>
  <anchor x="936" y="714" name="topright"/>
  <outline>
    <contour>
      <point x="479" y="-10" type="curve" smooth="yes"/>
      <point x="745" y="-10"/>
      <point x="893" y="137"/>
      <point x="893" y="358" type="curve" smooth="yes"/>
      <point x="893" y="580"/>
      <point x="745" y="725"/>
      <point x="480" y="725" type="curve" smooth="yes"/>
      <point x="200" y="725"/>
      <point x="63" y="580"/>
      <point x="63" y="359" type="curve" smooth="yes"/>
      <point x="63" y="137"/>
      <point x="200" y="-10"/>
    </contour>
    <contour>
      <point x="479" y="68" type="curve" smooth="yes"/>
      <point x="354" y="68"/>
      <point x="307" y="175"/>
      <point x="307" y="358" type="curve" smooth="yes"/>
      <point x="307" y="541"/>
      <point x="354" y="647"/>
      <point x="480" y="647" type="curve" smooth="yes"/>
      <point x="604" y="647"/>
      <point x="648" y="541"/>
      <point x="648" y="358" type="curve" smooth="yes"/>
      <point x="648" y="175"/>
      <point x="604" y="68"/>
    </contour>
  </outline>
</glyph>
<glyph name="bracketleft" format="2">
  <advance width="529"/>
  <unicode hex="005B"/>
  <outline>
    <contour>
      <point x="117" y="-128" type="line"/>
      <point x="486" y="-128" type="line"/>
      <point x="486" y="-62" type="line"/>
      <point x="435" y="-62" type="line" smooth="yes"/>
      <point x="383" y="-62"/>
      <point x="340" y="-53"/>
      <point x="340" y="10" type="curve" smooth="yes"/>
      <point x="340" y="622" type="line" smooth="yes"/>
      <point x="340" y="685"/>
      <point x="383" y="694"/>
      <point x="435" y="694" type="curve" smooth="yes"/>
      <point x="486" y="694" type="line"/>
      <point x="486" y="760" type="line"/>
      <point x="117" y="760" type="line"/>
    </contour>
  </outline>
</glyph>
<glyph name="f" format="2">
  <advance width="507"/>
  <unicode hex="0066"/>
  <anchor x="254" y="0" name="bottom"/>
  <anchor x="344" y="767" name="top"/>
  <anchor x="597" y="767" name="topright"/>
  <outline>
    <contour>
      <point x="15" y="0" type="line"/>
      <point x="485" y="0" type="line"/>
      <point x="485" y="66" type="line"/>
      <point x="421" y="66" type="line" smooth="yes"/>
      <point x="394" y="66"/>
      <point x="348" y="73"/>
      <point x="348" y="123" type="curve" smooth="yes"/>
      <point x="348" y="444" type="line"/>
      <point x="507" y="444" type="line"/>
      <point x="507" y="536" type="line"/>
      <point x="348" y="536" type="line"/>
      <point x="348" y="586" type="line" smooth="yes"/>
      <point x="348" y="679"/>
      <point x="367" y="697"/>
      <point x="398" y="697" type="curve" smooth="yes"/>
      <point x="429" y="697"/>
      <point x="436" y="631"/>
      <point x="436" y="608" type="curve"/>
      <point x="560" y="608"/>
      <point x="587" y="649"/>
      <point x="587" y="691" type="curve" smooth="yes"/>
      <point x="587" y="722"/>
      <point x="554" y="767"/>
      <point x="382" y="767" type="curve" smooth="yes"/>
      <point x="191" y="767"/>
      <point x="122" y="687"/>
      <point x="122" y="557" type="curve" smooth="yes"/>
      <point x="122" y="536" type="line"/>
      <point x="19" y="536" type="line"/>
      <point x="19" y="444" type="line"/>
      <point x="122" y="444" type="line"/>
      <point x="122" y="123" type="line" smooth="yes"/>
      <point x="122" y="73"/>
      <point x="68" y="66"/>
      <point x="49" y="66" type="curve" smooth="yes"/>
      <point x="15" y="66" type="line"/>
    </contour>
  </outline>
</glyph>
<glyph name="t" format="2">
  <advance width="517"/>
  <unicode hex="0074"/>
  <anchor x="318" y="0" name="bottom"/>
  <anchor x="258" y="268" name="center"/>
  <anchor x="248" y="662" name="top"/>
  <anchor x="477" y="662" name="topright"/>
  <outline>
    <contour>
      <point x="307" y="-10" type="curve" smooth="yes"/>
      <point x="404" y="-10"/>
      <point x="468" y="13"/>
      <point x="496" y="26" type="curve"/>
      <point x="496" y="115" type="line"/>
      <point x="472" y="109"/>
      <point x="439" y="104"/>
      <point x="408" y="104" type="curve" smooth="yes"/>
      <point x="351" y="104"/>
      <point x="338" y="127"/>
      <point x="338" y="177" type="curve" smooth="yes"/>
      <point x="338" y="452" type="line"/>
      <point x="486" y="452" type="line"/>
      <point x="486" y="536" type="line"/>
      <point x="338" y="536" type="line"/>
      <point x="338" y="662" type="line"/>
      <point x="211" y="662" type="line"/>
      <point x="199" y="624"/>
      <point x="178" y="589"/>
      <point x="157" y="570" type="curve" smooth="yes"/>
      <point x="135" y="549"/>
      <point x="92" y="517"/>
      <point x="25" y="518" type="curve"/>
      <point x="25" y="452" type="line"/>
      <point x="112" y="452" type="line"/>
      <point x="112" y="151" type="line" smooth="yes"/>
      <point x="112" y="33"/>
      <point x="187" y="-10"/>
    </contour>
  </outline>
</glyph>
<glyph name="z" format="2">
  <advance width="633"/>
  <unicode hex="007A"/>
  <anchor x="316" y="0" name="bottom"/>
  <anchor x="316" y="536" name="top"/>
  <anchor x="593" y="536" name="topright"/>
  <outline>
    <contour>
      <point x="0" y="0" type="line"/>
      <point x="614" y="0" type="line"/>
      <point x="619" y="204" type="line"/>
      <point x="536" y="204" type="line"/>
      <point x="528" y="162" type="line" smooth="yes"/>
      <point x="513" y="90"/>
      <point x="487" y="84"/>
      <point x="423" y="84" type="curve" smooth="yes"/>
      <point x="253" y="84" type="line"/>
      <point x="602" y="491" type="line"/>
      <point x="602" y="536" type="line"/>
      <point x="56" y="536" type="line"/>
      <point x="41" y="349" type="line"/>
      <point x="126" y="349" type="line"/>
      <point x="138" y="395" type="line" smooth="yes"/>
      <point x="153" y="450"/>
      <point x="177" y="452"/>
      <point x="227" y="452" type="curve" smooth="yes"/>
      <point x="349" y="452" type="line"/>
      <point x="0" y="43" type="line"/>
    </contour>
  </outline>
</glyph>
<glyph name="section" format="2">
  <advance width="634"/>
  <unicode hex="00A7"/>
  <outline>
    <contour>
      <point x="326" y="-111" type="curve" smooth="yes"/>
      <point x="478" y="-111"/>
      <point x="567" y="-39"/>
      <point x="567" y="70" type="curve" smooth="yes"/>
      <point x="567" y="105"/>
      <point x="550" y="156"/>
      <point x="523" y="186" type="curve"/>
      <point x="567" y="198"/>
      <point x="600" y="247"/>
      <point x="600" y="294" type="curve" smooth="yes"/>
      <point x="600" y="390"/>
      <point x="526" y="438"/>
      <point x="335" y="514" type="curve" smooth="yes"/>
      <point x="272" y="539"/>
      <point x="227" y="553"/>
      <point x="227" y="609" type="curve" smooth="yes"/>
      <point x="227" y="665"/>
      <point x="269" y="698"/>
      <point x="327" y="698" type="curve" smooth="yes"/>
      <point x="407" y="698"/>
      <point x="422" y="611"/>
      <point x="422" y="554" type="curve"/>
      <point x="509" y="554"/>
      <point x="553" y="599"/>
      <point x="553" y="640" type="curve" smooth="yes"/>
      <point x="553" y="712"/>
      <point x="476" y="760"/>
      <point x="331" y="760" type="curve" smooth="yes"/>
      <point x="192" y="760"/>
      <point x="90" y="699"/>
      <point x="90" y="597" type="curve" smooth="yes"/>
      <point x="90" y="535"/>
      <point x="119" y="486"/>
      <point x="145" y="467" type="curve"/>
      <point x="97" y="452"/>
      <point x="64" y="414"/>
      <point x="64" y="375" type="curve" smooth="yes"/>
      <point x="64" y="297"/>
      <point x="116" y="240"/>
      <point x="250" y="184" type="curve" smooth="yes"/>
      <point x="416" y="114"/>
      <point x="447" y="92"/>
      <point x="447" y="40" type="curve" smooth="yes"/>
      <point x="447" y="-16"/>
      <point x="404" y="-51"/>
      <point x="345" y="-51" type="curve" smooth="yes"/>
      <point x="257" y="-51"/>
      <point x="205" y="11"/>
      <point x="205" y="120" type="curve"/>
      <point x="121" y="120"/>
      <point x="79" y="80"/>
      <point x="79" y="31" type="curve" smooth="yes"/>
      <point x="79" y="-15"/>
      <point x="110" y="-111"/>
    </contour>
    <contour>
      <point x="456" y="234" type="curve"/>
      <point x="430" y="244"/>
      <point x="403" y="253"/>
      <point x="350" y="277" type="curve" smooth="yes"/>
      <point x="230" y="322"/>
      <point x="190" y="348"/>
      <point x="190" y="405" type="curve" smooth="yes"/>
      <point x="190" y="409"/>
      <point x="192" y="422"/>
      <point x="201" y="430" type="curve"/>
      <point x="237" y="414"/>
      <point x="281" y="396"/>
      <point x="329" y="379" type="curve" smooth="yes"/>
      <point x="435" y="335"/>
      <point x="465" y="301"/>
      <point x="465" y="257" type="curve" smooth="yes"/>
      <point x="465" y="245"/>
      <point x="461" y="238"/>
    </contour>
  </outline>
</glyph>
<glyph name="twosuperior" format="2">
  <advance width="467"/>
  <unicode hex="00B2"/>
  <outline>
    <contour>
      <point x="27" y="387" type="line"/>
      <point x="433" y="387" type="line"/>
      <point x="439" y="558" type="line"/>
      <point x="393" y="558" type="line"/>
      <point x="386" y="523" type="line"/>
      <point x="382" y="508"/>
      <point x="369" y="500"/>
      <point x="340" y="500" type="curve"/>
      <point x="129" y="500" type="line"/>
      <point x="191" y="513" type="line" smooth="yes"/>
      <point x="402" y="579"/>
      <point x="432" y="636"/>
      <point x="432" y="704" type="curve" smooth="yes"/>
      <point x="432" y="768"/>
      <point x="378" y="825"/>
      <point x="231" y="825" type="curve" smooth="yes"/>
      <point x="94" y="825"/>
      <point x="31" y="782"/>
      <point x="31" y="731" type="curve" smooth="yes"/>
      <point x="31" y="689"/>
      <point x="61" y="673"/>
      <point x="153" y="673" type="curve"/>
      <point x="153" y="715"/>
      <point x="159" y="761"/>
      <point x="214" y="761" type="curve" smooth="yes"/>
      <point x="249" y="761"/>
      <point x="269" y="741"/>
      <point x="269" y="713" type="curve" smooth="yes"/>
      <point x="269" y="659"/>
      <point x="230" y="621"/>
      <point x="136" y="563" type="curve" smooth="yes"/>
      <point x="27" y="499" type="line"/>
    </contour>
  </outline>
</glyph>
<glyph name="Eth" format="2">
  <advance width="928"/>
  <unicode hex="00D0"/>
  <anchor x="464" y="0" name="bottom"/>
  <anchor x="464" y="714" name="top"/>
  <outline>
    <contour>
      <point x="24" y="0" type="line"/>
      <point x="430" y="0" type="line" smooth="yes"/>
      <point x="714" y="0"/>
      <point x="866" y="166"/>
      <point x="866" y="385" type="curve" smooth="yes"/>
      <point x="866" y="612"/>
      <point x="700" y="714"/>
      <point x="430" y="714" type="curve" smooth="yes"/>
      <point x="24" y="714" type="line"/>
      <point x="24" y="648" type="line"/>
      <point x="77" y="648" type="line" smooth="yes"/>
      <point x="109" y="648"/>
      <point x="132" y="629"/>
      <point x="132" y="597" type="curve"/>
      <point x="132" y="411" type="line"/>
      <point x="44" y="411" type="line"/>
      <point x="44" y="336" type="line"/>
      <point x="132" y="336" type="line"/>
      <point x="132" y="116" type="line" smooth="yes"/>
      <point x="132" y="93"/>
      <point x="114" y="66"/>
      <point x="86" y="66" type="curve" smooth="yes"/>
      <point x="24" y="66" type="line"/>
    </contour>
    <contour>
      <point x="363" y="75" type="line"/>
      <point x="363" y="336" type="line"/>
      <point x="471" y="336" type="line"/>
      <point x="471" y="411" type="line"/>
      <point x="363" y="411" type="line"/>
      <point x="363" y="640" type="line"/>
      <point x="404" y="640" type="line" smooth="yes"/>
      <point x="544" y="640"/>
      <point x="619" y="567"/>
      <point x="619" y="385" type="curve" smooth="yes"/>
      <point x="619" y="202"/>
      <point x="544" y="75"/>
      <point x="402" y="75" type="curve" smooth="yes"/>
    </contour>
  </outline>
</glyph>
<glyph name="multiply" format="2">
  <advance width="713"/>
  <unicode hex="00D7"/>
  <outline>
    <contour>
      <point x="191" y="151" type="line"/>
      <point x="357" y="300" type="line"/>
      <point x="527" y="148" type="line"/>
      <point x="585" y="213" type="line"/>
      <point x="422" y="356" type="line"/>
      <point x="585" y="500" type="line"/>
      <point x="526" y="568" type="line"/>
      <point x="357" y="417" type="line"/>
      <point x="190" y="563" type="line"/>
      <point x="129" y="497" type="line"/>
      <point x="288" y="358" type="line"/>
      <point x="129" y="218" type="line"/>
    </contour>
  </outline>
</glyph>
<glyph name="Oslash" format="2">
  <advance width="956"/>
  <unicode hex="00D8"/>
  <anchor x="478" y="0" name="bottom"/>
  <anchor x="478" y="714" name="top"/>
  <outline>
    <contour>
      <point x="189" y="-40" type="line"/>
      <point x="282" y="-40" type="line"/>
      <point x="312" y="9" type="line"/>
      <point x="359" y="-3"/>
      <point x="414" y="-10"/>
      <point x="479" y="-10" type="curve" smooth="yes"/>
      <point x="745" y="-10"/>
      <point x="893" y="137"/>
      <point x="893" y="358" type="curve" smooth="yes"/>
      <point x="893" y="502"/>
      <point x="830" y="613"/>
      <point x="717" y="674" type="curve"/>
      <point x="769" y="755" type="line"/>
      <point x="678" y="755" type="line"/>
      <point x="647" y="703" type="line"/>
      <point x="595" y="717"/>
      <point x="540" y="725"/>
      <point x="480" y="725" type="curve" smooth="yes"/>
      <point x="200" y="725"/>
      <point x="63" y="580"/>
      <point x="63" y="359" type="curve" smooth="yes"/>
      <point x="63" y="214"/>
      <point x="122" y="100"/>
      <point x="238" y="39" type="curve"/>
    </contour>
    <contour>
      <point x="477" y="68" type="curve" smooth="yes"/>
      <point x="431" y="68"/>
      <point x="396" y="82"/>
      <point x="371" y="108" type="curve"/>
      <point x="631" y="539" type="line"/>
      <point x="642" y="490"/>
      <point x="648" y="429"/>
      <point x="648" y="358" type="curve" smooth="yes"/>
      <point x="648" y="175"/>
      <point x="604" y="68"/>
    </contour>
    <contour>
      <point x="325" y="177" type="line"/>
      <point x="313" y="225"/>
      <point x="307" y="285"/>
      <point x="307" y="358" type="curve" smooth="yes"/>
      <point x="307" y="541"/>
      <point x="354" y="647"/>
      <point x="480" y="647" type="curve" smooth="yes"/>
      <point x="525" y="647"/>
      <point x="562" y="631"/>
      <point x="585" y="604" type="curve"/>
    </contour>
  </outline>
</glyph>
<glyph name="dcroat" format="2">
  <advance width="787"/>
  <unicode hex="0111"/>
  <anchor x="394" y="0" name="bottom"/>
  <anchor x="394" y="760" name="top"/>
  <outline>
    <contour>
      <point x="283" y="-10" type="curve" smooth="yes"/>
      <point x="375" y="-10"/>
      <point x="429" y="18"/>
      <point x="464" y="63" type="curve"/>
      <point x="471" y="63" type="line"/>
      <point x="512" y="0" type="line"/>
      <point x="768" y="0" type="line"/>
      <point x="768" y="66" type="line"/>
      <point x="759" y="66" type="line" smooth="yes"/>
      <point x="702" y="66"/>
      <point x="675" y="87"/>
      <point x="675" y="151" type="curve" smooth="yes"/>
      <point x="675" y="559" type="line"/>
      <point x="773" y="559" type="line"/>
      <point x="773" y="621" type="line"/>
      <point x="675" y="621" type="line"/>
      <point x="675" y="760" type="line"/>
      <point x="346" y="760" type="line"/>
      <point x="346" y="694" type="line"/>
      <point x="354" y="694" type="line" smooth="yes"/>
      <point x="406" y="694"/>
      <point x="448" y="689"/>
      <point x="448" y="639" type="curve" smooth="yes"/>
      <point x="448" y="621" type="line"/>
      <point x="281" y="621" type="line"/>
      <point x="281" y="559" type="line"/>
      <point x="448" y="559" type="line"/>
      <point x="448" y="548" type="line" smooth="yes"/>
      <point x="448" y="507"/>
      <point x="448" y="475"/>
      <point x="451" y="444" type="curve"/>
      <point x="445" y="444" type="line"/>
      <point x="412" y="478"/>
      <point x="365" y="506"/>
      <point x="280" y="506" type="curve" smooth="yes"/>
      <point x="132" y="506"/>
      <point x="46" y="416"/>
      <point x="46" y="244" type="curve" smooth="yes"/>
      <point x="46" y="75"/>
      <point x="132" y="-10"/>
    </contour>
    <contour>
      <point x="356" y="80" type="curve" smooth="yes"/>
      <point x="296" y="80"/>
      <point x="274" y="144"/>
      <point x="274" y="247" type="curve" smooth="yes"/>
      <point x="274" y="348"/>
      <point x="296" y="417"/>
      <point x="357" y="419" type="curve" smooth="yes"/>
      <point x="427" y="417"/>
      <point x="448" y="350"/>
      <point x="448" y="248" type="curve" smooth="yes"/>
      <point x="448" y="139"/>
      <point x="427" y="80"/>
    </contour>
  </outline>
</glyph>
<glyph name="oe" format="2">
  <advance width="1116"/>
  <unicode hex="0153"/>
  <anchor x="558" y="0" name="bottom"/>
  <anchor x="558" y="536" name="top"/>
  <outline>
    <contour>
      <point x="351" y="-10" type="curve" smooth="yes"/>
      <point x="454" y="-10"/>
      <point x="533" y="16"/>
      <point x="585" y="60" type="curve"/>
      <point x="645" y="13"/>
      <point x="703" y="-10"/>
      <point x="824" y="-10" type="curve" smooth="yes"/>
      <point x="956" y="-10"/>
      <point x="1051" y="38"/>
      <point x="1051" y="123" type="curve" smooth="yes"/>
      <point x="1051" y="151"/>
      <point x="1031" y="167"/>
      <point x="1001" y="177" type="curve"/>
      <point x="970" y="121"/>
      <point x="935" y="81"/>
      <point x="842" y="81" type="curve" smooth="yes"/>
      <point x="710" y="81"/>
      <point x="695" y="199"/>
      <point x="697" y="251" type="curve"/>
      <point x="1073" y="251" type="line"/>
      <point x="1073" y="310" type="line" smooth="yes"/>
      <point x="1073" y="470"/>
      <point x="965" y="552"/>
      <point x="802" y="552" type="curve" smooth="yes"/>
      <point x="706" y="552"/>
      <point x="631" y="527"/>
      <point x="580" y="479" type="curve"/>
      <point x="523" y="527"/>
      <point x="453" y="552"/>
      <point x="354" y="552" type="curve" smooth="yes"/>
      <point x="160" y="552"/>
      <point x="48" y="460"/>
      <point x="48" y="272" type="curve" smooth="yes"/>
      <point x="48" y="84"/>
      <point x="171" y="-10"/>
    </contour>
    <contour>
      <point x="373" y="66" type="curve" smooth="yes"/>
      <point x="303" y="66"/>
      <point x="278" y="138"/>
      <point x="278" y="272" type="curve" smooth="yes"/>
      <point x="278" y="407"/>
      <point x="302" y="475"/>
      <point x="372" y="475" type="curve" smooth="yes"/>
      <point x="438" y="475"/>
      <point x="468" y="413"/>
      <point x="468" y="270" type="curve" smooth="yes"/>
      <point x="468" y="128"/>
      <point x="443" y="66"/>
    </contour>
    <contour>
      <point x="697" y="328" type="line"/>
      <point x="697" y="424"/>
      <point x="737" y="473"/>
      <point x="784" y="473" type="curve" smooth="yes"/>
      <point x="825" y="473"/>
      <point x="850" y="433"/>
      <point x="851" y="328" type="curve"/>
    </contour>
  </outline>
</glyph>
<glyph name="uni0197" format="2">
  <advance width="497"/>
  <unicode hex="0197"/>
  <anchor x="248" y="0" name="bottom"/>
  <anchor x="248" y="714" name="top"/>
  <outline>
    <contour>
      <point x="24" y="0" type="line"/>
      <point x="473" y="0" type="line"/>
      <point x="473" y="66" type="line"/>
      <point x="409" y="66" type="line" smooth="yes"/>
      <point x="385" y="66"/>
      <point x="365" y="88"/>
      <point x="365" y="110" type="curve" smooth="yes"/>
      <point x="365" y="337" type="line"/>
      <point x="484" y="337" type="line"/>
      <point x="484" y="407" type="line"/>
      <point x="365" y="407" type="line"/>
      <point x="365" y="598" type="line" smooth="yes"/>
      <point x="365" y="629"/>
      <point x="381" y="648"/>
      <point x="409" y="648" type="curve" smooth="yes"/>
      <point x="473" y="648" type="line"/>
      <point x="473" y="714" type="line"/>
      <point x="24" y="714" type="line"/>
      <point x="24" y="648" type="line"/>
      <point x="86" y="648" type="line" smooth="yes"/>
      <point x="108" y="648"/>
      <point x="132" y="629"/>
      <point x="132" y="599" type="curve" smooth="yes"/>
      <point x="132" y="407" type="line"/>
      <point x="11" y="407" type="line"/>
      <point x="11" y="337" type="line"/>
      <point x="132" y="337" type="line"/>
      <point x="132" y="107" type="line" smooth="yes"/>
      <point x="132" y="85"/>
      <point x="108" y="66"/>
      <point x="86" y="66" type="curve" smooth="yes"/>
      <point x="24" y="66" type="line"/>
    </contour>
  </outline>
</glyph>
<glyph name="uni01AD" format="2">
  <advance width="517"/>
  <unicode hex="01AD"/>
  <anchor x="258" y="0" name="bottom"/>
  <anchor x="258" y="771" name="top"/>
  <outline>
    <contour>
      <point x="285" y="-10" type="curve" smooth="yes"/>
      <point x="400" y="-10"/>
      <point x="468" y="13"/>
      <point x="496" y="26" type="curve"/>
      <point x="496" y="115" type="line"/>
      <point x="472" y="109"/>
      <point x="439" y="104"/>
      <point x="408" y="104" type="curve" smooth="yes"/>
      <point x="351" y="104"/>
      <point x="338" y="127"/>
      <point x="338" y="177" type="curve" smooth="yes"/>
      <point x="338" y="452" type="line"/>
      <point x="486" y="452" type="line"/>
      <point x="486" y="536" type="line"/>
      <point x="338" y="536" type="line"/>
      <point x="338" y="629" type="line" smooth="yes"/>
      <point x="338" y="657"/>
      <point x="347" y="690"/>
      <point x="382" y="690" type="curve" smooth="yes"/>
      <point x="413" y="690"/>
      <point x="425" y="665"/>
      <point x="437" y="635" type="curve"/>
      <point x="465" y="642"/>
      <point x="492" y="665"/>
      <point x="492" y="697" type="curve" smooth="yes"/>
      <point x="492" y="734"/>
      <point x="467" y="771"/>
      <point x="376" y="771" type="curve" smooth="yes"/>
      <point x="280" y="771"/>
      <point x="228" y="723"/>
      <point x="209" y="656" type="curve" smooth="yes"/>
      <point x="191" y="595"/>
      <point x="143" y="515"/>
      <point x="25" y="518" type="curve"/>
      <point x="25" y="452" type="line"/>
      <point x="112" y="452" type="line"/>
      <point x="112" y="151" type="line" smooth="yes"/>
      <point x="112" y="33"/>
      <point x="190" y="-10"/>
    </contour>
  </outline>
</glyph>
<glyph name="uni01B2" format="2">
  <advance width="924"/>
  <unicode hex="01B2"/>
  <anchor x="463" y="0" name="bottom"/>
  <anchor x="463" y="714" name="top"/>
  <outline>
    <contour>
      <point x="395" y="-10" type="curve" smooth="yes"/>
      <point x="691" y="-10"/>
      <point x="843" y="247"/>
      <point x="843" y="519" type="curve" smooth="yes"/>
      <point x="843" y="686"/>
      <point x="777" y="725"/>
      <point x="693" y="725" type="curve" smooth="yes"/>
      <point x="620" y="725"/>
      <point x="582" y="695"/>
      <point x="582" y="628" type="curve"/>
      <point x="691" y="628"/>
      <point x="736" y="595"/>
      <point x="736" y="481" type="curve" smooth="yes"/>
      <point x="736" y="254"/>
      <point x="612" y="72"/>
      <point x="450" y="72" type="curve" smooth="yes"/>
      <point x="387" y="72"/>
      <point x="361" y="96"/>
      <point x="361" y="155" type="curve" smooth="yes"/>
      <point x="361" y="591" type="line" smooth="yes"/>
      <point x="361" y="641"/>
      <point x="393" y="648"/>
      <point x="434" y="648" type="curve" smooth="yes"/>
      <point x="468" y="648" type="line"/>
      <point x="468" y="714" type="line"/>
      <point x="20" y="714" type="line"/>
      <point x="20" y="648" type="line"/>
      <point x="53" y="648" type="line" smooth="yes"/>
      <point x="94" y="648"/>
      <point x="128" y="641"/>
      <point x="128" y="595" type="curve" smooth="yes"/>
      <point x="128" y="284" type="line" smooth="yes"/>
      <point x="128" y="77"/>
      <point x="197" y="-10"/>
    </contour>
  </outline>
</glyph>
<glyph name="uni01B3" format="2">
  <advance width="935"/>
  <unicode hex="01B3"/>
  <anchor x="434" y="0" name="bottom"/>
  <anchor x="434" y="714" name="top"/>
  <anchor x="846" y="714" name="topright"/>
  <outline>
    <contour>
      <point x="196" y="0" type="line"/>
      <point x="676" y="0" type="line"/>
      <point x="676" y="66" type="line"/>
      <point x="620" y="66" type="line" smooth="yes"/>
      <point x="584" y="66"/>
      <point x="553" y="76"/>
      <point x="553" y="129" type="curve" smooth="yes"/>
      <point x="553" y="208" type="line"/>
      <point x="694" y="458" type="line" smooth="yes"/>
      <point x="755" y="569"/>
      <point x="766" y="596"/>
      <point x="816" y="596" type="curve" smooth="yes"/>
      <point x="853" y="596"/>
      <point x="871" y="567"/>
      <point x="871" y="536" type="curve"/>
      <point x="907" y="542"/>
      <point x="953" y="567"/>
      <point x="953" y="625" type="curve" smooth="yes"/>
      <point x="953" y="679"/>
      <point x="913" y="720"/>
      <point x="850" y="720" type="curve" smooth="yes"/>
      <point x="732" y="720"/>
      <point x="690" y="641"/>
      <point x="629" y="532" type="curve" smooth="yes"/>
      <point x="565" y="420" type="line" smooth="yes"/>
      <point x="541" y="376"/>
      <point x="519" y="334"/>
      <point x="504" y="295" type="curve"/>
      <point x="492" y="326"/>
      <point x="482" y="344"/>
      <point x="462" y="379" type="curve" smooth="yes"/>
      <point x="375" y="530" type="line" smooth="yes"/>
      <point x="363" y="551"/>
      <point x="359" y="572"/>
      <point x="359" y="587" type="curve" smooth="yes"/>
      <point x="359" y="626"/>
      <point x="391" y="648"/>
      <point x="441" y="648" type="curve" smooth="yes"/>
      <point x="446" y="648" type="line"/>
      <point x="446" y="714" type="line"/>
      <point x="5" y="714" type="line"/>
      <point x="5" y="648" type="line"/>
      <point x="20" y="648" type="line" smooth="yes"/>
      <point x="70" y="648"/>
      <point x="80" y="635"/>
      <point x="102" y="595" type="curve" smooth="yes"/>
      <point x="319" y="211" type="line"/>
      <point x="319" y="132" type="line" smooth="yes"/>
      <point x="319" y="77"/>
      <point x="287" y="66"/>
      <point x="236" y="66" type="curve" smooth="yes"/>
      <point x="196" y="66" type="line"/>
    </contour>
  </outline>
</glyph>
<glyph name="uni01B6" format="2">
  <advance width="633"/>
  <unicode hex="01B6"/>
  <anchor x="316" y="0" name="bottom"/>
  <anchor x="316" y="536" name="top"/>
  <outline>
    <contour>
      <point x="0" y="0" type="line"/>
      <point x="614" y="0" type="line"/>
      <point x="619" y="204" type="line"/>
      <point x="536" y="204" type="line"/>
      <point x="528" y="162" type="line" smooth="yes"/>
      <point x="513" y="90"/>
      <point x="487" y="84"/>
      <point x="423" y="84" type="curve" smooth="yes"/>
      <point x="253" y="84" type="line"/>
      <point x="392" y="240" type="line"/>
      <point x="580" y="240" type="line"/>
      <point x="580" y="311" type="line"/>
      <point x="448" y="311" type="line"/>
      <point x="602" y="491" type="line"/>
      <point x="602" y="536" type="line"/>
      <point x="56" y="536" type="line"/>
      <point x="41" y="349" type="line"/>
      <point x="126" y="349" type="line"/>
      <point x="138" y="395" type="line" smooth="yes"/>
      <point x="153" y="450"/>
      <point x="177" y="452"/>
      <point x="227" y="452" type="curve" smooth="yes"/>
      <point x="349" y="452" type="line"/>
      <point x="222" y="311" type="line"/>
      <point x="60" y="311" type="line"/>
      <point x="60" y="240" type="line"/>
      <point x="167" y="240" type="line"/>
      <point x="0" y="43" type="line"/>
    </contour>
  </outline>
</glyph>
<glyph name="uni01B9" format="2">
  <advance width="726"/>
  <unicode hex="01B9"/>
  <anchor x="364" y="-240" name="bottom"/>
  <anchor x="364" y="536" name="top"/>
  <outline>
    <contour>
      <point x="408" y="-240" type="curve" smooth="yes"/>
      <point x="619" y="-240"/>
      <point x="690" y="-160"/>
      <point x="690" y="-96" type="curve" smooth="yes"/>
      <point x="690" y="-36"/>
      <point x="653" y="-10"/>
      <point x="554" y="-12" type="curve"/>
      <point x="554" y="-92"/>
      <point x="524" y="-173"/>
      <point x="426" y="-173" type="curve" smooth="yes"/>
      <point x="352" y="-173"/>
      <point x="304" y="-138"/>
      <point x="304" y="-11" type="curve" smooth="yes"/>
      <point x="304" y="99"/>
      <point x="364" y="145"/>
      <point x="461" y="145" type="curve" smooth="yes"/>
      <point x="502" y="145" type="line"/>
      <point x="502" y="186" type="line"/>
      <point x="270" y="397" type="line"/>
      <point x="485" y="397" type="line" smooth="yes"/>
      <point x="540" y="397"/>
      <point x="550" y="382"/>
      <point x="567" y="337" type="curve" smooth="yes"/>
      <point x="579" y="288" type="line"/>
      <point x="649" y="288" type="line"/>
      <point x="628" y="536" type="line"/>
      <point x="113" y="536" type="line"/>
      <point x="113" y="427" type="line"/>
      <point x="352" y="216" type="line"/>
      <point x="197" y="208"/>
      <point x="76" y="137"/>
      <point x="76" y="-4" type="curve" smooth="yes"/>
      <point x="76" y="-180"/>
      <point x="236" y="-240"/>
    </contour>
  </outline>
</glyph>
<glyph name="uni01BF" format="2">
  <advance width="779"/>
  <unicode hex="01BF"/>
  <anchor x="389" y="-240" name="bottom"/>
  <anchor x="389" y="536" name="top"/>
  <outline>
    <contour>
      <point x="11" y="-240" type="line"/>
      <point x="435" y="-240" type="line"/>
      <point x="435" y="-174" type="line"/>
      <point x="402" y="-174" type="line" smooth="yes"/>
      <point x="357" y="-174"/>
      <point x="328" y="-155"/>
      <point x="328" y="-105" type="curve"/>
      <point x="328" y="-2" type="line"/>
      <point x="477" y="25"/>
      <point x="733" y="101"/>
      <point x="733" y="356" type="curve" smooth="yes"/>
      <point x="733" y="460"/>
      <point x="661" y="546"/>
      <point x="506" y="546" type="curve" smooth="yes"/>
      <point x="400" y="546"/>
      <point x="341" y="505"/>
      <point x="312" y="471" type="curve"/>
      <point x="308" y="471" type="line"/>
      <point x="280" y="536" type="line"/>
      <point x="32" y="536" type="line"/>
      <point x="32" y="470" type="line"/>
      <point x="36" y="470" type="line" smooth="yes"/>
      <point x="75" y="470"/>
      <point x="102" y="461"/>
      <point x="102" y="397" type="curve"/>
      <point x="102" y="-111" type="line" smooth="yes"/>
      <point x="102" y="-157"/>
      <point x="71" y="-174"/>
      <point x="28" y="-174" type="curve" smooth="yes"/>
      <point x="11" y="-174" type="line"/>
    </contour>
    <contour>
      <point x="328" y="72" type="curve"/>
      <point x="328" y="311" type="line" smooth="yes"/>
      <point x="328" y="391"/>
      <point x="354" y="452"/>
      <point x="426" y="452" type="curve" smooth="yes"/>
      <point x="477" y="452"/>
      <point x="507" y="422"/>
      <point x="507" y="355" type="curve" smooth="yes"/>
      <point x="507" y="185"/>
      <point x="445" y="116"/>
    </contour>
  </outline>
</glyph>
<glyph name="uni0221" format="2">
  <advance width="925"/>
  <unicode hex="0221"/>
  <anchor x="463" y="0" name="bottom"/>
  <anchor x="463" y="760" name="top"/>
  <outline>
    <contour>
      <point x="575" y="-87" type="line"/>
      <point x="582" y="-61"/>
      <point x="595" y="-17"/>
      <point x="604" y="-4" type="curve"/>
      <point x="623" y="-6"/>
      <point x="661" y="-7"/>
      <point x="712" y="-7" type="curve" smooth="yes"/>
      <point x="870" y="-7"/>
      <point x="930" y="55"/>
      <point x="930" y="126" type="curve" smooth="yes"/>
      <point x="930" y="217"/>
      <point x="864" y="250"/>
      <point x="775" y="250" type="curve" smooth="yes"/>
      <point x="737" y="250"/>
      <point x="703" y="245"/>
      <point x="675" y="236" type="curve"/>
      <point x="675" y="760" type="line"/>
      <point x="346" y="760" type="line"/>
      <point x="346" y="694" type="line"/>
      <point x="354" y="694" type="line" smooth="yes"/>
      <point x="406" y="694"/>
      <point x="448" y="689"/>
      <point x="448" y="639" type="curve" smooth="yes"/>
      <point x="448" y="604" type="line" smooth="yes"/>
      <point x="448" y="563"/>
      <point x="448" y="524"/>
      <point x="451" y="488" type="curve"/>
      <point x="445" y="488" type="line"/>
      <point x="412" y="523"/>
      <point x="365" y="550"/>
      <point x="280" y="550" type="curve" smooth="yes"/>
      <point x="132" y="550"/>
      <point x="46" y="460"/>
      <point x="46" y="267" type="curve" smooth="yes"/>
      <point x="46" y="75"/>
      <point x="132" y="-10"/>
      <point x="283" y="-10" type="curve" smooth="yes"/>
      <point x="375" y="-10"/>
      <point x="429" y="16"/>
      <point x="464" y="62" type="curve"/>
      <point x="469" y="62" type="line"/>
      <point x="479" y="38"/>
      <point x="496" y="23"/>
      <point x="518" y="14" type="curve"/>
      <point x="507" y="0"/>
      <point x="494" y="-36"/>
      <point x="488" y="-70" type="curve"/>
    </contour>
    <contour>
      <point x="356" y="80" type="curve" smooth="yes"/>
      <point x="296" y="80"/>
      <point x="274" y="143"/>
      <point x="274" y="270" type="curve" smooth="yes"/>
      <point x="274" y="393"/>
      <point x="296" y="462"/>
      <point x="357" y="462" type="curve" smooth="yes"/>
      <point x="427" y="462"/>
      <point x="448" y="393"/>
      <point x="448" y="271" type="curve" smooth="yes"/>
      <point x="448" y="138"/>
      <point x="427" y="80"/>
    </contour>
    <contour>
      <point x="760" y="85" type="curve" smooth="yes"/>
      <point x="702" y="85"/>
      <point x="687" y="110"/>
      <point x="677" y="143" type="curve"/>
      <point x="692" y="156"/>
      <point x="723" y="172"/>
      <point x="767" y="172" type="curve" smooth="yes"/>
      <point x="812" y="172"/>
      <point x="830" y="153"/>
      <point x="830" y="131" type="curve" smooth="yes"/>
      <point x="830" y="105"/>
      <point x="807" y="85"/>
    </contour>
  </outline>
</glyph>
<glyph name="uni0234" format="2">
  <advance width="533"/>
  <unicode hex="0234"/>
  <anchor x="267" y="0" name="bottom"/>
  <anchor x="267" y="760" name="top"/>
  <outline>
    <contour>
      <point x="126" y="-67" type="line"/>
      <point x="131" y="-43"/>
      <point x="144" y="-2"/>
      <point x="168" y="27" type="curve"/>
      <point x="202" y="7"/>
      <point x="257" y="-11"/>
      <point x="341" y="-11" type="curve" smooth="yes"/>
      <point x="488" y="-11"/>
      <point x="533" y="67"/>
      <point x="533" y="119" type="curve" smooth="yes"/>
      <point x="533" y="208"/>
      <point x="467" y="237"/>
      <point x="379" y="237" type="curve" smooth="yes"/>
      <point x="362" y="237"/>
      <point x="345" y="236"/>
      <point x="337" y="235" type="curve"/>
      <point x="337" y="760" type="line"/>
      <point x="19" y="760" type="line"/>
      <point x="19" y="694" type="line"/>
      <point x="36" y="694" type="line" smooth="yes"/>
      <point x="55" y="694"/>
      <point x="110" y="687"/>
      <point x="110" y="641" type="curve" smooth="yes"/>
      <point x="110" y="248" type="line"/>
      <point x="110" y="191"/>
      <point x="113" y="145"/>
      <point x="122" y="107" type="curve"/>
      <point x="71" y="45"/>
      <point x="48" y="4"/>
      <point x="37" y="-53" type="curve"/>
    </contour>
    <contour>
      <point x="392" y="74" type="curve" smooth="yes"/>
      <point x="357" y="74"/>
      <point x="337" y="89"/>
      <point x="337" y="158" type="curve"/>
      <point x="341" y="158"/>
      <point x="357" y="160"/>
      <point x="370" y="160" type="curve" smooth="yes"/>
      <point x="406" y="160"/>
      <point x="440" y="150"/>
      <point x="440" y="115" type="curve" smooth="yes"/>
      <point x="440" y="86"/>
      <point x="419" y="74"/>
    </contour>
  </outline>
</glyph>
<glyph name="uni023D" format="2">
  <advance width="790"/>
  <unicode hex="023D"/>
  <anchor x="396" y="0" name="bottom"/>
  <anchor x="396" y="714" name="top"/>
  <anchor x="770" y="714" name="topright"/>
  <anchor x="396" y="357" name="center"/>
  <outline>
    <contour>
      <point x="27" y="317" type="line"/>
      <point x="561" y="317" type="line"/>
      <point x="561" y="393" type="line"/>
      <point x="27" y="393" type="line"/>
    </contour>
    <component base="L"/>
  </outline>
</glyph>
<glyph name="uni024C" format="2">
  <advance width="869"/>
  <unicode hex="024C"/>
  <anchor x="435" y="0" name="bottom"/>
  <anchor x="435" y="714" name="top"/>
  <anchor x="858" y="714" name="topright"/>
  <outline>
    <contour>
      <point x="-16" y="302" type="line"/>
      <point x="142" y="302" type="line"/>
      <point x="142" y="374" type="line"/>
      <point x="-16" y="374" type="line"/>
    </contour>
    <component base="R"/>
  </outline>
</glyph>
<glyph name="uni0254" format="2">
  <advance width="645"/>
  <unicode hex="0254"/>
  <anchor x="323" y="0" name="bottom"/>
  <anchor x="323" y="536" name="top"/>
  <outline>
    <contour>
      <point x="280" y="-10" type="curve" smooth="yes"/>
      <point x="462" y="-10"/>
      <point x="596" y="57"/>
      <point x="596" y="281" type="curve" smooth="yes"/>
      <point x="596" y="494"/>
      <point x="478" y="552"/>
      <point x="294" y="552" type="curve" smooth="yes"/>
      <point x="107" y="552"/>
      <point x="43" y="494"/>
      <point x="43" y="436" type="curve" smooth="yes"/>
      <point x="43" y="380"/>
      <point x="102" y="360"/>
      <point x="209" y="360" type="curve"/>
      <point x="210" y="440"/>
      <point x="232" y="463"/>
      <point x="285" y="463" type="curve" smooth="yes"/>
      <point x="348" y="463"/>
      <point x="368" y="403"/>
      <point x="368" y="279" type="curve" smooth="yes"/>
      <point x="368" y="107"/>
      <point x="335" y="63"/>
      <point x="284" y="63" type="curve" smooth="yes"/>
      <point x="222" y="63"/>
      <point x="206" y="114"/>
      <point x="206" y="185" type="curve"/>
      <point x="78" y="185"/>
      <point x="40" y="155"/>
      <point x="40" y="105" type="curve" smooth="yes"/>
      <point x="40" y="59"/>
      <point x="90" y="-10"/>
    </contour>
  </outline>
</glyph>
<glyph name="uni0259" format="2">
  <advance width="697"/>
  <unicode hex="0259"/>
  <anchor x="348" y="0" name="bottom"/>
  <anchor x="348" y="536" name="top"/>
  <outline>
    <contour>
      <point x="343" y="-10" type="curve" smooth="yes"/>
      <point x="541" y="-10"/>
      <point x="654" y="88"/>
      <point x="654" y="276" type="curve" smooth="yes"/>
      <point x="654" y="451"/>
      <point x="549" y="552"/>
      <point x="329" y="552" type="curve" smooth="yes"/>
      <point x="141" y="552"/>
      <point x="70" y="486"/>
      <point x="70" y="421" type="curve" smooth="yes"/>
      <point x="70" y="393"/>
      <point x="92" y="373"/>
      <point x="121" y="366" type="curve"/>
      <point x="147" y="421"/>
      <point x="191" y="461"/>
      <point x="271" y="461" type="curve" smooth="yes"/>
      <point x="371" y="461"/>
      <point x="422" y="410"/>
      <point x="426" y="291" type="curve"/>
      <point x="48" y="291" type="line"/>
      <point x="48" y="232" type="line" smooth="yes"/>
      <point x="48" y="73"/>
      <point x="160" y="-10"/>
    </contour>
    <contour>
      <point x="337" y="69" type="curve" smooth="yes"/>
      <point x="290" y="69"/>
      <point x="270" y="118"/>
      <point x="270" y="214" type="curve"/>
      <point x="423" y="214" type="line"/>
      <point x="424" y="119"/>
      <point x="388" y="69"/>
    </contour>
  </outline>
</glyph>
<glyph name="uni0267" format="2">
  <advance width="806"/>
  <unicode hex="0267"/>
  <anchor x="404" y="-228" name="bottom"/>
  <anchor x="404" y="769" name="top"/>
  <outline>
    <contour>
      <point x="411" y="-228" type="curve" smooth="yes"/>
      <point x="601" y="-228"/>
      <point x="703" y="-108"/>
      <point x="703" y="57" type="curve" smooth="yes"/>
      <point x="703" y="363" type="line" smooth="yes"/>
      <point x="703" y="496"/>
      <point x="644" y="552"/>
      <point x="514" y="552" type="curve" smooth="yes"/>
      <point x="413" y="552"/>
      <point x="368" y="519"/>
      <point x="341" y="484" type="curve"/>
      <point x="331" y="484" type="line"/>
      <point x="335" y="521"/>
      <point x="335" y="569"/>
      <point x="337" y="604" type="curve" smooth="yes"/>
      <point x="337" y="620" type="line" smooth="yes"/>
      <point x="337" y="687"/>
      <point x="352" y="700"/>
      <point x="380" y="700" type="curve" smooth="yes"/>
      <point x="412" y="700"/>
      <point x="423" y="679"/>
      <point x="423" y="597" type="curve"/>
      <point x="548" y="597"/>
      <point x="575" y="634"/>
      <point x="575" y="678" type="curve" smooth="yes"/>
      <point x="575" y="719"/>
      <point x="542" y="769"/>
      <point x="370" y="769" type="curve" smooth="yes"/>
      <point x="179" y="769"/>
      <point x="110" y="686"/>
      <point x="110" y="559" type="curve" smooth="yes"/>
      <point x="110" y="132" type="line" smooth="yes"/>
      <point x="110" y="75"/>
      <point x="75" y="66"/>
      <point x="29" y="66" type="curve" smooth="yes"/>
      <point x="25" y="66" type="line"/>
      <point x="25" y="0" type="line"/>
      <point x="415" y="0" type="line"/>
      <point x="415" y="66" type="line"/>
      <point x="411" y="66" type="line" smooth="yes"/>
      <point x="359" y="66"/>
      <point x="338" y="77"/>
      <point x="338" y="129" type="curve" smooth="yes"/>
      <point x="338" y="296" type="line" smooth="yes"/>
      <point x="338" y="358"/>
      <point x="346" y="443"/>
      <point x="409" y="443" type="curve" smooth="yes"/>
      <point x="459" y="443"/>
      <point x="476" y="394"/>
      <point x="476" y="309" type="curve" smooth="yes"/>
      <point x="476" y="-21" type="line" smooth="yes"/>
      <point x="476" y="-114"/>
      <point x="451" y="-153"/>
      <point x="406" y="-153" type="curve" smooth="yes"/>
      <point x="372" y="-153"/>
      <point x="354" y="-125"/>
      <point x="356" y="-41" type="curve"/>
      <point x="252" y="-44"/>
      <point x="210" y="-73"/>
      <point x="210" y="-127" type="curve" smooth="yes"/>
      <point x="210" y="-199"/>
      <point x="299" y="-228"/>
    </contour>
  </outline>
</glyph>
<glyph name="uni0270" format="2">
  <advance width="1185"/>
  <unicode hex="0270"/>
  <anchor x="592" y="-217" name="bottom"/>
  <anchor x="592" y="536" name="top"/>
  <outline>
    <contour>
      <point x="845" y="-217" type="line"/>
      <point x="1162" y="-217" type="line"/>
      <point x="1162" y="-151" type="line"/>
      <point x="1145" y="-151" type="line" smooth="yes"/>
      <point x="1126" y="-151"/>
      <point x="1071" y="-145"/>
      <point x="1071" y="-98" type="curve" smooth="yes"/>
      <point x="1071" y="404" type="line" smooth="yes"/>
      <point x="1071" y="461"/>
      <point x="1099" y="470"/>
      <point x="1152" y="470" type="curve" smooth="yes"/>
      <point x="1157" y="470" type="line"/>
      <point x="1157" y="536" type="line"/>
      <point x="766" y="536" type="line"/>
      <point x="766" y="470" type="line"/>
      <point x="771" y="470" type="line" smooth="yes"/>
      <point x="822" y="470"/>
      <point x="846" y="459"/>
      <point x="846" y="407" type="curve" smooth="yes"/>
      <point x="846" y="240" type="line" smooth="yes"/>
      <point x="846" y="163"/>
      <point x="823" y="93"/>
      <point x="765" y="93" type="curve" smooth="yes"/>
      <point x="711" y="93"/>
      <point x="696" y="142"/>
      <point x="696" y="227" type="curve" smooth="yes"/>
      <point x="696" y="536" type="line"/>
      <point x="397" y="536" type="line"/>
      <point x="397" y="470" type="line"/>
      <point x="401" y="470" type="line" smooth="yes"/>
      <point x="454" y="470"/>
      <point x="470" y="461"/>
      <point x="470" y="400" type="curve" smooth="yes"/>
      <point x="470" y="230" type="line" smooth="yes"/>
      <point x="470" y="156"/>
      <point x="446" y="93"/>
      <point x="388" y="93" type="curve" smooth="yes"/>
      <point x="336" y="93"/>
      <point x="317" y="142"/>
      <point x="317" y="227" type="curve" smooth="yes"/>
      <point x="317" y="536" type="line"/>
      <point x="16" y="536" type="line"/>
      <point x="16" y="470" type="line"/>
      <point x="21" y="470" type="line" smooth="yes"/>
      <point x="73" y="470"/>
      <point x="90" y="461"/>
      <point x="90" y="400" type="curve" smooth="yes"/>
      <point x="90" y="173" type="line" smooth="yes"/>
      <point x="90" y="40"/>
      <point x="163" y="-16"/>
      <point x="292" y="-16" type="curve" smooth="yes"/>
      <point x="393" y="-16"/>
      <point x="452" y="24"/>
      <point x="477" y="58" type="curve"/>
      <point x="483" y="58" type="line"/>
      <point x="510" y="10"/>
      <point x="565" y="-16"/>
      <point x="652" y="-16" type="curve" smooth="yes"/>
      <point x="765" y="-16"/>
      <point x="814" y="24"/>
      <point x="844" y="59" type="curve"/>
      <point x="850" y="59" type="line"/>
      <point x="847" y="21"/>
      <point x="845" y="-21"/>
      <point x="845" y="-82" type="curve" smooth="yes"/>
    </contour>
  </outline>
</glyph>
<glyph name="omegaclosed" format="2">
  <advance width="961"/>
  <unicode hex="0277"/>
  <anchor x="480" y="0" name="bottom"/>
  <anchor x="480" y="536" name="top"/>
  <outline>
    <contour>
      <point x="290" y="-10" type="curve" smooth="yes"/>
      <point x="392" y="-10"/>
      <point x="441" y="31"/>
      <point x="480" y="97" type="curve"/>
      <point x="480" y="97" type="line"/>
      <point x="519" y="31"/>
      <point x="569" y="-10"/>
      <point x="672" y="-10" type="curve" smooth="yes"/>
      <point x="819" y="-10"/>
      <point x="912" y="84"/>
      <point x="912" y="244" type="curve" smooth="yes"/>
      <point x="912" y="419"/>
      <point x="806" y="552"/>
      <point x="478" y="552" type="curve" smooth="yes"/>
      <point x="173" y="552"/>
      <point x="48" y="419"/>
      <point x="48" y="244" type="curve" smooth="yes"/>
      <point x="48" y="84"/>
      <point x="140" y="-10"/>
    </contour>
    <contour>
      <point x="354" y="90" type="curve" smooth="yes"/>
      <point x="317" y="90"/>
      <point x="270" y="121"/>
      <point x="270" y="255" type="curve" smooth="yes"/>
      <point x="270" y="437"/>
      <point x="359" y="473"/>
      <point x="482" y="473" type="curve" smooth="yes"/>
      <point x="604" y="473"/>
      <point x="691" y="437"/>
      <point x="691" y="255" type="curve" smooth="yes"/>
      <point x="691" y="121"/>
      <point x="646" y="90"/>
      <point x="607" y="90" type="curve" smooth="yes"/>
      <point x="569" y="90"/>
      <point x="544" y="107"/>
      <point x="530" y="167" type="curve"/>
      <point x="530" y="331" type="line"/>
      <point x="432" y="331" type="line"/>
      <point x="432" y="167" type="line"/>
      <point x="416" y="109"/>
      <point x="389" y="90"/>
    </contour>
  </outline>
</glyph>
<glyph name="uni027A" format="2">
  <advance width="654"/>
  <unicode hex="027A"/>
  <anchor x="328" y="0" name="bottom"/>
  <anchor x="328" y="760" name="top"/>
  <outline>
    <contour>
      <point x="143" y="-14" type="curve" smooth="yes"/>
      <point x="233" y="-14"/>
      <point x="287" y="8"/>
      <point x="327" y="89" type="curve"/>
      <point x="333" y="89" type="line"/>
      <point x="357" y="0" type="line"/>
      <point x="628" y="0" type="line"/>
      <point x="628" y="66" type="line"/>
      <point x="624" y="66" type="line" smooth="yes"/>
      <point x="572" y="66"/>
      <point x="550" y="75"/>
      <point x="550" y="134" type="curve" smooth="yes"/>
      <point x="550" y="760" type="line"/>
      <point x="211" y="760" type="line"/>
      <point x="211" y="694" type="line"/>
      <point x="252" y="694" type="line" smooth="yes"/>
      <point x="295" y="694"/>
      <point x="323" y="686"/>
      <point x="323" y="627" type="curve" smooth="yes"/>
      <point x="323" y="257" type="line" smooth="yes"/>
      <point x="323" y="185"/>
      <point x="293" y="116"/>
      <point x="238" y="116" type="curve" smooth="yes"/>
      <point x="195" y="116"/>
      <point x="188" y="150"/>
      <point x="188" y="205" type="curve"/>
      <point x="84" y="205"/>
      <point x="14" y="175"/>
      <point x="14" y="91" type="curve" smooth="yes"/>
      <point x="14" y="33"/>
      <point x="51" y="-14"/>
    </contour>
  </outline>
</glyph>
<glyph name="uni0282" format="2">
  <advance width="601"/>
  <unicode hex="0282"/>
  <anchor x="301" y="-197" name="bottom"/>
  <anchor x="301" y="536" name="top"/>
  <outline>
    <contour>
      <point x="178" y="-197" type="curve" smooth="yes"/>
      <point x="244" y="-197"/>
      <point x="281" y="-162"/>
      <point x="281" y="-126" type="curve" smooth="yes"/>
      <point x="281" y="-110"/>
      <point x="274" y="-92"/>
      <point x="264" y="-83" type="curve"/>
      <point x="245" y="-94"/>
      <point x="225" y="-99"/>
      <point x="199" y="-99" type="curve" smooth="yes"/>
      <point x="153" y="-99"/>
      <point x="118" y="-76"/>
      <point x="118" y="-6" type="curve" smooth="yes"/>
      <point x="118" y="9" type="line"/>
      <point x="156" y="-3"/>
      <point x="211" y="-10"/>
      <point x="283" y="-10" type="curve" smooth="yes"/>
      <point x="465" y="-10"/>
      <point x="557" y="68"/>
      <point x="557" y="189" type="curve" smooth="yes"/>
      <point x="557" y="274"/>
      <point x="466" y="325"/>
      <point x="379" y="346" type="curve" smooth="yes"/>
      <point x="232" y="380"/>
      <point x="207" y="407"/>
      <point x="207" y="439" type="curve" smooth="yes"/>
      <point x="207" y="473"/>
      <point x="261" y="480"/>
      <point x="290" y="480" type="curve" smooth="yes"/>
      <point x="357" y="480"/>
      <point x="407" y="441"/>
      <point x="407" y="377" type="curve"/>
      <point x="492" y="377"/>
      <point x="530" y="402"/>
      <point x="530" y="457" type="curve" smooth="yes"/>
      <point x="530" y="499"/>
      <point x="470" y="551"/>
      <point x="310" y="551" type="curve" smooth="yes"/>
      <point x="146" y="551"/>
      <point x="36" y="498"/>
      <point x="36" y="371" type="curve" smooth="yes"/>
      <point x="36" y="277"/>
      <point x="114" y="221"/>
      <point x="245" y="193" type="curve" smooth="yes"/>
      <point x="352" y="171"/>
      <point x="388" y="142"/>
      <point x="388" y="104" type="curve" smooth="yes"/>
      <point x="388" y="89"/>
      <point x="361" y="63"/>
      <point x="287" y="63" type="curve" smooth="yes"/>
      <point x="204" y="63"/>
      <point x="148" y="99"/>
      <point x="148" y="196" type="curve"/>
      <point x="80" y="196"/>
      <point x="29" y="174"/>
      <point x="29" y="113" type="curve" smooth="yes"/>
      <point x="29" y="-27" type="line" smooth="yes"/>
      <point x="29" y="-164"/>
      <point x="91" y="-197"/>
    </contour>
  </outline>
</glyph>
<glyph name="uni0289" format="2">
  <advance width="805"/>
  <unicode hex="0289"/>
  <anchor x="403" y="0" name="bottom"/>
  <anchor x="403" y="536" name="top"/>
  <anchor x="775" y="536" name="topright"/>
  <outline>
    <contour>
      <point x="13" y="241" type="line"/>
      <point x="788" y="241" type="line"/>
      <point x="788" y="312" type="line"/>
      <point x="13" y="312" type="line"/>
    </contour>
    <component base="u"/>
  </outline>
</glyph>
<glyph name="uni0294" format="2">
  <advance width="637"/>
  <unicode hex="0294"/>
  <anchor x="318" y="0" name="bottom"/>
  <anchor x="318" y="766" name="top"/>
  <outline>
    <contour>
      <point x="124" y="0" type="line"/>
      <point x="506" y="0" type="line"/>
      <point x="506" y="61" type="line"/>
      <point x="495" y="61" type="line" smooth="yes"/>
      <point x="446" y="61"/>
      <point x="417" y="78"/>
      <point x="417" y="131" type="curve" smooth="yes"/>
      <point x="417" y="314" type="line"/>
      <point x="544" y="383"/>
      <point x="595" y="454"/>
      <point x="595" y="564" type="curve" smooth="yes"/>
      <point x="595" y="720"/>
      <point x="476" y="766"/>
      <point x="300" y="766" type="curve" smooth="yes"/>
      <point x="92" y="766"/>
      <point x="30" y="704"/>
      <point x="30" y="623" type="curve" smooth="yes"/>
      <point x="30" y="559"/>
      <point x="72" y="530"/>
      <point x="219" y="530" type="curve"/>
      <point x="219" y="655"/>
      <point x="229" y="699"/>
      <point x="297" y="699" type="curve" smooth="yes"/>
      <point x="353" y="699"/>
      <point x="370" y="664"/>
      <point x="370" y="607" type="curve" smooth="yes"/>
      <point x="370" y="504"/>
      <point x="343" y="409"/>
      <point x="212" y="378" type="curve"/>
      <point x="212" y="131" type="line" smooth="yes"/>
      <point x="212" y="78"/>
      <point x="186" y="61"/>
      <point x="135" y="61" type="curve" smooth="yes"/>
      <point x="124" y="61" type="line"/>
    </contour>
  </outline>
</glyph>
<glyph name="eopenclosed" format="2">
  <advance width="734"/>
  <unicode hex="029A"/>
  <anchor x="367" y="0" name="bottom"/>
  <anchor x="367" y="536" name="top"/>
  <outline>
    <contour>
      <point x="344" y="-10" type="curve" smooth="yes"/>
      <point x="580" y="-10"/>
      <point x="690" y="99"/>
      <point x="690" y="287" type="curve" smooth="yes"/>
      <point x="690" y="474"/>
      <point x="569" y="552"/>
      <point x="355" y="552" type="curve" smooth="yes"/>
      <point x="168" y="552"/>
      <point x="61" y="507"/>
      <point x="61" y="395" type="curve" smooth="yes"/>
      <point x="61" y="326"/>
      <point x="124" y="288"/>
      <point x="224" y="285" type="curve"/>
      <point x="224" y="280" type="line"/>
      <point x="123" y="268"/>
      <point x="48" y="241"/>
      <point x="48" y="153" type="curve" smooth="yes"/>
      <point x="48" y="47"/>
      <point x="157" y="-10"/>
    </contour>
    <contour>
      <point x="357" y="63" type="curve" smooth="yes"/>
      <point x="302" y="63"/>
      <point x="276" y="100"/>
      <point x="276" y="151" type="curve" smooth="yes"/>
      <point x="276" y="220"/>
      <point x="303" y="247"/>
      <point x="367" y="247" type="curve" smooth="yes"/>
      <point x="388" y="247" type="line"/>
      <point x="388" y="323" type="line"/>
      <point x="372" y="323" type="line" smooth="yes"/>
      <point x="308" y="323"/>
      <point x="287" y="353"/>
      <point x="287" y="405" type="curve" smooth="yes"/>
      <point x="287" y="443"/>
      <point x="305" y="479"/>
      <point x="354" y="479" type="curve" smooth="yes"/>
      <point x="430" y="479"/>
      <point x="460" y="405"/>
      <point x="460" y="272" type="curve" smooth="yes"/>
      <point x="460" y="97"/>
      <point x="420" y="63"/>
    </contour>
  </outline>
</glyph>
<glyph name="uni02AC" format="2">
  <advance width="722"/>
  <unicode hex="02AC"/>
  <anchor x="362" y="0" name="bottom"/>
  <anchor x="349" y="722" name="top"/>
  <outline>
    <contour>
      <point x="149" y="387" type="line"/>
      <point x="274" y="387" type="line"/>
      <point x="362" y="557" type="line"/>
      <point x="365" y="557" type="line"/>
      <point x="370" y="541"/>
      <point x="373" y="535"/>
      <point x="383" y="512" type="curve" smooth="yes"/>
      <point x="436" y="387" type="line"/>
      <point x="549" y="387" type="line"/>
      <point x="658" y="630" type="line" smooth="yes"/>
      <point x="674" y="664"/>
      <point x="684" y="678"/>
      <point x="706" y="678" type="curve" smooth="yes"/>
      <point x="716" y="678" type="line"/>
      <point x="716" y="722" type="line"/>
      <point x="535" y="722" type="line"/>
      <point x="535" y="678" type="line"/>
      <point x="546" y="678" type="line" smooth="yes"/>
      <point x="571" y="678"/>
      <point x="587" y="673"/>
      <point x="587" y="649" type="curve" smooth="yes"/>
      <point x="587" y="634"/>
      <point x="582" y="622"/>
      <point x="577" y="609" type="curve" smooth="yes"/>
      <point x="553" y="547" type="line" smooth="yes"/>
      <point x="543" y="522"/>
      <point x="536" y="507"/>
      <point x="532" y="487" type="curve"/>
      <point x="529" y="487" type="line"/>
      <point x="524" y="503"/>
      <point x="521" y="515"/>
      <point x="509" y="544" type="curve" smooth="yes"/>
      <point x="443" y="720" type="line"/>
      <point x="361" y="720" type="line"/>
      <point x="284" y="547" type="line" smooth="yes"/>
      <point x="274" y="526"/>
      <point x="265" y="515"/>
      <point x="259" y="494" type="curve"/>
      <point x="255" y="494" type="line"/>
      <point x="252" y="514"/>
      <point x="247" y="515"/>
      <point x="237" y="544" type="curve" smooth="yes"/>
      <point x="210" y="620" type="line" smooth="yes"/>
      <point x="206" y="629"/>
      <point x="202" y="640"/>
      <point x="202" y="656" type="curve" smooth="yes"/>
      <point x="202" y="671"/>
      <point x="215" y="678"/>
      <point x="241" y="678" type="curve" smooth="yes"/>
      <point x="253" y="678" type="line"/>
      <point x="253" y="722" type="line"/>
      <point x="-5" y="722" type="line"/>
      <point x="-5" y="678" type="line"/>
      <point x="24" y="678"/>
      <point x="42" y="672"/>
      <point x="51" y="648" type="curve" smooth="yes"/>
    </contour>
    <contour>
      <point x="149" y="0" type="line"/>
      <point x="274" y="0" type="line"/>
      <point x="362" y="170" type="line"/>
      <point x="365" y="170" type="line"/>
      <point x="370" y="154"/>
      <point x="373" y="148"/>
      <point x="383" y="125" type="curve" smooth="yes"/>
      <point x="436" y="0" type="line"/>
      <point x="549" y="0" type="line"/>
      <point x="658" y="243" type="line" smooth="yes"/>
      <point x="674" y="277"/>
      <point x="684" y="291"/>
      <point x="706" y="291" type="curve" smooth="yes"/>
      <point x="716" y="291" type="line"/>
      <point x="716" y="335" type="line"/>
      <point x="535" y="335" type="line"/>
      <point x="535" y="291" type="line"/>
      <point x="546" y="291" type="line" smooth="yes"/>
      <point x="571" y="291"/>
      <point x="587" y="286"/>
      <point x="587" y="262" type="curve" smooth="yes"/>
      <point x="587" y="247"/>
      <point x="582" y="235"/>
      <point x="577" y="222" type="curve" smooth="yes"/>
      <point x="553" y="160" type="line" smooth="yes"/>
      <point x="543" y="135"/>
      <point x="536" y="120"/>
      <point x="532" y="100" type="curve"/>
      <point x="529" y="100" type="line"/>
      <point x="524" y="116"/>
      <point x="521" y="128"/>
      <point x="509" y="157" type="curve" smooth="yes"/>
      <point x="443" y="333" type="line"/>
      <point x="361" y="333" type="line"/>
      <point x="284" y="160" type="line" smooth="yes"/>
      <point x="274" y="139"/>
      <point x="265" y="128"/>
      <point x="259" y="107" type="curve"/>
      <point x="255" y="107" type="line"/>
      <point x="252" y="127"/>
      <point x="247" y="128"/>
      <point x="237" y="157" type="curve" smooth="yes"/>
      <point x="210" y="233" type="line" smooth="yes"/>
      <point x="206" y="242"/>
      <point x="202" y="253"/>
      <point x="202" y="269" type="curve" smooth="yes"/>
      <point x="202" y="284"/>
      <point x="215" y="291"/>
      <point x="241" y="291" type="curve" smooth="yes"/>
      <point x="253" y="291" type="line"/>
      <point x="253" y="335" type="line"/>
      <point x="-5" y="335" type="line"/>
      <point x="-5" y="291" type="line"/>
      <point x="24" y="291"/>
      <point x="42" y="285"/>
      <point x="51" y="261" type="curve" smooth="yes"/>
    </contour>
  </outline>
</glyph>
<glyph name="uni02AE" format="2">
  <advance width="954"/>
  <unicode hex="02AE"/>
  <anchor x="477" y="-221" name="bottom"/>
  <anchor x="477" y="536" name="top"/>
  <outline>
    <contour>
      <point x="619" y="-221" type="line"/>
      <point x="936" y="-221" type="line"/>
      <point x="936" y="-155" type="line"/>
      <point x="919" y="-155" type="line" smooth="yes"/>
      <point x="900" y="-155"/>
      <point x="845" y="-148"/>
      <point x="845" y="-102" type="curve" smooth="yes"/>
      <point x="845" y="404" type="line" smooth="yes"/>
      <point x="845" y="461"/>
      <point x="880" y="470"/>
      <point x="926" y="470" type="curve" smooth="yes"/>
      <point x="931" y="470" type="line"/>
      <point x="931" y="536" type="line"/>
      <point x="540" y="536" type="line"/>
      <point x="540" y="470" type="line"/>
      <point x="545" y="470" type="line" smooth="yes"/>
      <point x="596" y="470"/>
      <point x="618" y="459"/>
      <point x="618" y="407" type="curve" smooth="yes"/>
      <point x="618" y="240" type="line" smooth="yes"/>
      <point x="618" y="178"/>
      <point x="609" y="93"/>
      <point x="546" y="93" type="curve" smooth="yes"/>
      <point x="497" y="93"/>
      <point x="479" y="142"/>
      <point x="479" y="227" type="curve" smooth="yes"/>
      <point x="479" y="296" type="line" smooth="yes"/>
      <point x="479" y="487"/>
      <point x="372" y="552"/>
      <point x="173" y="552" type="curve" smooth="yes"/>
      <point x="-10" y="552"/>
      <point x="-65" y="480"/>
      <point x="-65" y="415" type="curve" smooth="yes"/>
      <point x="-65" y="352"/>
      <point x="7" y="333"/>
      <point x="112" y="333" type="curve"/>
      <point x="112" y="432"/>
      <point x="129" y="466"/>
      <point x="182" y="466" type="curve" smooth="yes"/>
      <point x="228" y="466"/>
      <point x="252" y="441"/>
      <point x="252" y="367" type="curve" smooth="yes"/>
      <point x="252" y="173" type="line" smooth="yes"/>
      <point x="252" y="40"/>
      <point x="312" y="-16"/>
      <point x="441" y="-16" type="curve" smooth="yes"/>
      <point x="543" y="-16"/>
      <point x="587" y="17"/>
      <point x="615" y="52" type="curve"/>
      <point x="624" y="52" type="line"/>
      <point x="621" y="10"/>
      <point x="619" y="-48"/>
      <point x="619" y="-109" type="curve" smooth="yes"/>
    </contour>
  </outline>
</glyph>
<glyph name="uni02C2" format="2">
  <advance width="320"/>
  <unicode hex="02C2"/>
  <outline>
    <contour>
      <point x="271" y="526" type="curve"/>
      <point x="283" y="526" type="line"/>
      <point x="283" y="577" type="line"/>
      <point x="237" y="609"/>
      <point x="195" y="635"/>
      <point x="143" y="655" type="curve"/>
      <point x="195" y="676"/>
      <point x="237" y="701"/>
      <point x="283" y="733" type="curve"/>
      <point x="283" y="784" type="line"/>
      <point x="271" y="784" type="line"/>
      <point x="203" y="742"/>
      <point x="151" y="722"/>
      <point x="35" y="679" type="curve"/>
      <point x="35" y="630" type="line"/>
      <point x="118" y="602"/>
      <point x="195" y="574"/>
    </contour>
  </outline>
</glyph>
<glyph name="uni02C3" format="2">
  <advance width="320"/>
  <unicode hex="02C3"/>
  <outline>
    <contour>
      <point x="35" y="521" type="line"/>
      <point x="47" y="521" type="line"/>
      <point x="115" y="562"/>
      <point x="192" y="599"/>
      <point x="283" y="631" type="curve"/>
      <point x="283" y="680" type="line"/>
      <point x="193" y="707"/>
      <point x="116" y="745"/>
      <point x="47" y="789" type="curve"/>
      <point x="35" y="789" type="line"/>
      <point x="35" y="720" type="line"/>
      <point x="65" y="701"/>
      <point x="114" y="670"/>
      <point x="152" y="655" type="curve"/>
      <point x="114" y="641"/>
      <point x="64" y="611"/>
      <point x="35" y="590" type="curve"/>
    </contour>
  </outline>
</glyph>
<glyph name="uni02DF" format="2">
  <advance width="316"/>
  <unicode hex="02DF"/>
  <outline>
    <contour>
      <point x="84" y="605" type="line"/>
      <point x="157" y="668" type="line"/>
      <point x="231" y="605" type="line"/>
      <point x="276" y="643" type="line"/>
      <point x="202" y="706" type="line"/>
      <point x="276" y="770" type="line"/>
      <point x="232" y="807" type="line"/>
      <point x="157" y="744" type="line"/>
      <point x="84" y="807" type="line"/>
      <point x="40" y="770" type="line"/>
      <point x="114" y="706" type="line"/>
      <point x="40" y="643" type="line"/>
    </contour>
  </outline>
</glyph>
<glyph name="fermatacomb" format="2">
  <unicode hex="0352"/>
  <anchor x="1" y="536" name="_top"/>
  <anchor x="1" y="885" name="top"/>
  <outline>
    <contour>
      <point x="-215" y="726" type="curve"/>
      <point x="-115" y="726" type="line"/>
      <point x="-103" y="774"/>
      <point x="-57" y="794"/>
      <point x="0" y="794" type="curve" smooth="yes"/>
      <point x="57" y="794"/>
      <point x="103" y="774"/>
      <point x="116" y="726" type="curve"/>
      <point x="216" y="726" type="line"/>
      <point x="213" y="801"/>
      <point x="131" y="885"/>
      <point x="0" y="885" type="curve"/>
      <point x="-131" y="885"/>
      <point x="-213" y="801"/>
    </contour>
    <contour>
      <point x="0" y="564" type="curve" smooth="yes"/>
      <point x="60" y="564"/>
      <point x="106" y="587"/>
      <point x="106" y="642" type="curve" smooth="yes"/>
      <point x="106" y="692"/>
      <point x="60" y="721"/>
      <point x="0" y="721" type="curve" smooth="yes"/>
      <point x="-65" y="721"/>
      <point x="-107" y="692"/>
      <point x="-107" y="642" type="curve"/>
      <point x="-107" y="587"/>
      <point x="-65" y="564"/>
    </contour>
  </outline>
</glyph>
<glyph name="doublebrevecomb" format="2">
  <unicode hex="035D"/>
  <anchor x="1" y="536" name="_top"/>
  <anchor x="1" y="776" name="top"/>
  <outline>
    <contour>
      <point x="1" y="595" type="curve" smooth="yes"/>
      <point x="213" y="595"/>
      <point x="355" y="650"/>
      <point x="440" y="776" type="curve"/>
      <point x="358" y="776" type="line"/>
      <point x="268" y="691"/>
      <point x="139" y="673"/>
      <point x="1" y="673" type="curve" smooth="yes"/>
      <point x="-139" y="673"/>
      <point x="-267" y="691"/>
      <point x="-358" y="776" type="curve"/>
      <point x="-439" y="776" type="line"/>
      <point x="-355" y="649"/>
      <point x="-212" y="595"/>
    </contour>
  </outline>
</glyph>
<glyph name="Pamphyliandigamma" format="2">
  <advance width="977"/>
  <unicode hex="0376"/>
  <anchor x="488" y="0" name="bottom"/>
  <anchor x="488" y="714" name="top"/>
  <outline>
    <contour>
      <point x="120" y="0" type="line"/>
      <point x="274" y="0" type="line"/>
      <point x="627" y="519" type="line"/>
      <point x="627" y="123" type="line" smooth="yes"/>
      <point x="627" y="73"/>
      <point x="612" y="66"/>
      <point x="571" y="66" type="curve" smooth="yes"/>
      <point x="521" y="66" type="line"/>
      <point x="521" y="0" type="line"/>
      <point x="962" y="0" type="line"/>
      <point x="962" y="66" type="line"/>
      <point x="923" y="66" type="line" smooth="yes"/>
      <point x="881" y="66"/>
      <point x="854" y="73"/>
      <point x="854" y="123" type="curve" smooth="yes"/>
      <point x="854" y="595" type="line" smooth="yes"/>
      <point x="854" y="642"/>
      <point x="883" y="648"/>
      <point x="913" y="648" type="curve" smooth="yes"/>
      <point x="962" y="648" type="line"/>
      <point x="962" y="714" type="line"/>
      <point x="644" y="714" type="line"/>
      <point x="347" y="265" type="line"/>
      <point x="347" y="595" type="line" smooth="yes"/>
      <point x="347" y="633"/>
      <point x="371" y="648"/>
      <point x="403" y="648" type="curve" smooth="yes"/>
      <point x="453" y="648" type="line"/>
      <point x="453" y="714" type="line"/>
      <point x="13" y="714" type="line"/>
      <point x="13" y="648" type="line"/>
      <point x="63" y="648" type="line" smooth="yes"/>
      <point x="98" y="648"/>
      <point x="120" y="629"/>
      <point x="120" y="591" type="curve" smooth="yes"/>
    </contour>
  </outline>
</glyph>
<glyph name="dieresistonos" format="2">
  <advance width="673"/>
  <unicode hex="0385"/>
  <anchor x="328" y="536" name="_top"/>
  <outline>
    <contour>
      <point x="265" y="700" type="line"/>
      <point x="358" y="700" type="line"/>
      <point x="394" y="746"/>
      <point x="436" y="801"/>
      <point x="467" y="850" type="curve"/>
      <point x="467" y="860" type="line"/>
      <point x="309" y="860" type="line"/>
      <point x="297" y="817"/>
      <point x="279" y="755"/>
      <point x="265" y="713" type="curve"/>
    </contour>
    <contour>
      <point x="170" y="620" type="curve" smooth="yes"/>
      <point x="212" y="620"/>
      <point x="251" y="638"/>
      <point x="251" y="696" type="curve" smooth="yes"/>
      <point x="251" y="755"/>
      <point x="212" y="773"/>
      <point x="170" y="773" type="curve" smooth="yes"/>
      <point x="130" y="773"/>
      <point x="91" y="755"/>
      <point x="91" y="696" type="curve" smooth="yes"/>
      <point x="91" y="638"/>
      <point x="130" y="620"/>
    </contour>
    <contour>
      <point x="485" y="620" type="curve" smooth="yes"/>
      <point x="523" y="620"/>
      <point x="564" y="638"/>
      <point x="564" y="696" type="curve" smooth="yes"/>
      <point x="564" y="755"/>
      <point x="523" y="773"/>
      <point x="485" y="773" type="curve" smooth="yes"/>
      <point x="442" y="773"/>
      <point x="404" y="755"/>
      <point x="404" y="696" type="curve" smooth="yes"/>
      <point x="404" y="638"/>
      <point x="442" y="620"/>
    </contour>
  </outline>
</glyph>
<glyph name="Psi" format="2">
  <advance width="1264"/>
  <unicode hex="03A8"/>
  <anchor x="633" y="0" name="bottom"/>
  <anchor x="633" y="714" name="top"/>
  <outline>
    <contour>
      <point x="413" y="0" type="line"/>
      <point x="847" y="0" type="line"/>
      <point x="847" y="66" type="line"/>
      <point x="832" y="66" type="line" smooth="yes"/>
      <point x="780" y="66"/>
      <point x="736" y="73"/>
      <point x="736" y="114" type="curve" smooth="yes"/>
      <point x="736" y="225" type="line"/>
      <point x="785" y="225" type="line" smooth="yes"/>
      <point x="1069" y="225"/>
      <point x="1130" y="333"/>
      <point x="1130" y="452" type="curve" smooth="yes"/>
      <point x="1130" y="576" type="line" smooth="yes"/>
      <point x="1130" y="639"/>
      <point x="1173" y="648"/>
      <point x="1226" y="648" type="curve"/>
      <point x="1226" y="714" type="line"/>
      <point x="919" y="714" type="line"/>
      <point x="919" y="478" type="line" smooth="yes"/>
      <point x="919" y="351"/>
      <point x="891" y="296"/>
      <point x="761" y="296" type="curve" smooth="yes"/>
      <point x="736" y="296" type="line"/>
      <point x="736" y="585" type="line" smooth="yes"/>
      <point x="736" y="627"/>
      <point x="762" y="648"/>
      <point x="815" y="648" type="curve" smooth="yes"/>
      <point x="835" y="648" type="line"/>
      <point x="835" y="714" type="line"/>
      <point x="424" y="714" type="line"/>
      <point x="424" y="648" type="line"/>
      <point x="445" y="648" type="line" smooth="yes"/>
      <point x="498" y="648"/>
      <point x="523" y="627"/>
      <point x="523" y="585" type="curve" smooth="yes"/>
      <point x="523" y="296" type="line"/>
      <point x="499" y="296" type="line" smooth="yes"/>
      <point x="369" y="296"/>
      <point x="340" y="351"/>
      <point x="340" y="478" type="curve" smooth="yes"/>
      <point x="340" y="714" type="line"/>
      <point x="34" y="714" type="line"/>
      <point x="34" y="648" type="line"/>
      <point x="86" y="648"/>
      <point x="130" y="639"/>
      <point x="130" y="576" type="curve" smooth="yes"/>
      <point x="130" y="452" type="line" smooth="yes"/>
      <point x="130" y="333"/>
      <point x="189" y="225"/>
      <point x="475" y="225" type="curve" smooth="yes"/>
      <point x="523" y="225" type="line"/>
      <point x="523" y="114" type="line" smooth="yes"/>
      <point x="523" y="73"/>
      <point x="481" y="66"/>
      <point x="428" y="66" type="curve" smooth="yes"/>
      <point x="413" y="66" type="line"/>
    </contour>
  </outline>
</glyph>
<glyph name="delta" format="2">
  <advance width="746"/>
  <unicode hex="03B4"/>
  <anchor x="373" y="0" name="bottom"/>
  <anchor x="373" y="765" name="top"/>
  <outline>
    <contour>
      <point x="365" y="-10" type="curve" smooth="yes"/>
      <point x="565" y="-10"/>
      <point x="698" y="80"/>
      <point x="698" y="248" type="curve" smooth="yes"/>
      <point x="698" y="369"/>
      <point x="610" y="427"/>
      <point x="477" y="495" type="curve" smooth="yes"/>
      <point x="364" y="552"/>
      <point x="321" y="578"/>
      <point x="321" y="635" type="curve" smooth="yes"/>
      <point x="321" y="669"/>
      <point x="351" y="697"/>
      <point x="406" y="697" type="curve" smooth="yes"/>
      <point x="485" y="697"/>
      <point x="508" y="650"/>
      <point x="508" y="583" type="curve"/>
      <point x="591" y="583"/>
      <point x="646" y="612"/>
      <point x="646" y="665" type="curve" smooth="yes"/>
      <point x="646" y="707"/>
      <point x="600" y="765"/>
      <point x="410" y="765" type="curve" smooth="yes"/>
      <point x="248" y="765"/>
      <point x="141" y="704"/>
      <point x="141" y="606" type="curve" smooth="yes"/>
      <point x="141" y="524"/>
      <point x="185" y="493"/>
      <point x="282" y="429" type="curve"/>
      <point x="135" y="392"/>
      <point x="49" y="340"/>
      <point x="49" y="214" type="curve" smooth="yes"/>
      <point x="49" y="71"/>
      <point x="173" y="-10"/>
    </contour>
    <contour>
      <point x="370" y="66" type="curve" smooth="yes"/>
      <point x="310" y="66"/>
      <point x="282" y="112"/>
      <point x="282" y="219" type="curve" smooth="yes"/>
      <point x="282" y="337"/>
      <point x="323" y="365"/>
      <point x="353" y="383" type="curve"/>
      <point x="424" y="338"/>
      <point x="465" y="313"/>
      <point x="465" y="210" type="curve" smooth="yes"/>
      <point x="465" y="111"/>
      <point x="425" y="66"/>
    </contour>
  </outline>
</glyph>
<glyph name="uni03D1" format="2">
  <advance width="830"/>
  <unicode hex="03D1"/>
  <outline>
    <contour>
      <point x="356" y="-10" type="curve" smooth="yes"/>
      <point x="616" y="-10"/>
      <point x="744" y="135"/>
      <point x="744" y="371" type="curve" smooth="yes"/>
      <point x="744" y="392"/>
      <point x="742" y="412"/>
      <point x="741" y="427" type="curve"/>
      <point x="819" y="427" type="line"/>
      <point x="819" y="493" type="line"/>
      <point x="736" y="493" type="line"/>
      <point x="702" y="652"/>
      <point x="618" y="764"/>
      <point x="387" y="764" type="curve" smooth="yes"/>
      <point x="228" y="764"/>
      <point x="122" y="712"/>
      <point x="122" y="597" type="curve" smooth="yes"/>
      <point x="122" y="478"/>
      <point x="245" y="430"/>
      <point x="512" y="427" type="curve"/>
      <point x="513" y="416"/>
      <point x="514" y="391"/>
      <point x="514" y="367" type="curve" smooth="yes"/>
      <point x="514" y="213"/>
      <point x="478" y="66"/>
      <point x="389" y="66" type="curve" smooth="yes"/>
      <point x="335" y="66"/>
      <point x="318" y="98"/>
      <point x="318" y="145" type="curve" smooth="yes"/>
      <point x="318" y="186"/>
      <point x="332" y="284"/>
      <point x="332" y="325" type="curve" smooth="yes"/>
      <point x="332" y="390"/>
      <point x="274" y="411"/>
      <point x="163" y="411" type="curve" smooth="yes"/>
      <point x="10" y="411" type="line"/>
      <point x="10" y="344" type="line"/>
      <point x="48" y="344" type="line" smooth="yes"/>
      <point x="89" y="344"/>
      <point x="101" y="327"/>
      <point x="101" y="302" type="curve" smooth="yes"/>
      <point x="101" y="268"/>
      <point x="87" y="217"/>
      <point x="87" y="168" type="curve" smooth="yes"/>
      <point x="87" y="80"/>
      <point x="162" y="-10"/>
    </contour>
    <contour>
      <point x="505" y="495" type="curve"/>
      <point x="440" y="498"/>
      <point x="319" y="497"/>
      <point x="319" y="609" type="curve" smooth="yes"/>
      <point x="319" y="672"/>
      <point x="347" y="689"/>
      <point x="388" y="689" type="curve" smooth="yes"/>
      <point x="452" y="689"/>
      <point x="490" y="638"/>
    </contour>
  </outline>
</glyph>
<glyph name="uni03DE" format="2">
  <advance width="550"/>
  <unicode hex="03DE"/>
  <anchor x="275" y="0" name="bottom"/>
  <anchor x="275" y="714" name="top"/>
  <outline>
    <contour>
      <point x="391" y="-9" type="curve" smooth="yes"/>
      <point x="491" y="-9"/>
      <point x="542" y="36"/>
      <point x="542" y="93" type="curve" smooth="yes"/>
      <point x="542" y="124"/>
      <point x="527" y="146"/>
      <point x="500" y="154" type="curve"/>
      <point x="485" y="137"/>
      <point x="463" y="121"/>
      <point x="430" y="121" type="curve" smooth="yes"/>
      <point x="391" y="121"/>
      <point x="368" y="139"/>
      <point x="368" y="182" type="curve" smooth="yes"/>
      <point x="368" y="232"/>
      <point x="437" y="282"/>
      <point x="534" y="325" type="curve"/>
      <point x="534" y="427" type="line"/>
      <point x="170" y="427" type="line"/>
      <point x="247" y="468"/>
      <point x="310" y="507"/>
      <point x="310" y="583" type="curve" smooth="yes"/>
      <point x="310" y="672"/>
      <point x="249" y="715"/>
      <point x="154" y="715" type="curve" smooth="yes"/>
      <point x="55" y="715"/>
      <point x="4" y="670"/>
      <point x="4" y="613" type="curve" smooth="yes"/>
      <point x="4" y="582"/>
      <point x="19" y="561"/>
      <point x="45" y="553" type="curve"/>
      <point x="61" y="569"/>
      <point x="83" y="585"/>
      <point x="116" y="585" type="curve" smooth="yes"/>
      <point x="154" y="585"/>
      <point x="177" y="567"/>
      <point x="177" y="525" type="curve" smooth="yes"/>
      <point x="177" y="472"/>
      <point x="108" y="421"/>
      <point x="12" y="374" type="curve"/>
      <point x="12" y="272" type="line"/>
      <point x="376" y="272" type="line"/>
      <point x="299" y="234"/>
      <point x="236" y="197"/>
      <point x="236" y="124" type="curve" smooth="yes"/>
      <point x="236" y="35"/>
      <point x="296" y="-9"/>
    </contour>
  </outline>
</glyph>
<glyph name="uni03DF" format="2">
  <advance width="621"/>
  <unicode hex="03DF"/>
  <anchor x="311" y="-206" name="bottom"/>
  <anchor x="311" y="760" name="top"/>
  <outline>
    <contour>
      <point x="427" y="-206" type="curve" smooth="yes"/>
      <point x="513" y="-206"/>
      <point x="553" y="-151"/>
      <point x="553" y="-108" type="curve"/>
      <point x="479" y="-108"/>
      <point x="447" y="-91"/>
      <point x="447" y="-22" type="curve" smooth="yes"/>
      <point x="447" y="65"/>
      <point x="502" y="194"/>
      <point x="583" y="320" type="curve"/>
      <point x="583" y="450" type="line"/>
      <point x="166" y="322" type="line"/>
      <point x="244" y="405"/>
      <point x="340" y="507"/>
      <point x="340" y="624" type="curve" smooth="yes"/>
      <point x="340" y="706"/>
      <point x="297" y="760"/>
      <point x="194" y="760" type="curve" smooth="yes"/>
      <point x="108" y="760"/>
      <point x="67" y="704"/>
      <point x="67" y="662" type="curve"/>
      <point x="142" y="662"/>
      <point x="173" y="647"/>
      <point x="173" y="579" type="curve" smooth="yes"/>
      <point x="173" y="492"/>
      <point x="119" y="355"/>
      <point x="38" y="228" type="curve"/>
      <point x="38" y="99" type="line"/>
      <point x="455" y="226" type="line"/>
      <point x="376" y="144"/>
      <point x="281" y="50"/>
      <point x="281" y="-66" type="curve" smooth="yes"/>
      <point x="281" y="-151"/>
      <point x="324" y="-206"/>
    </contour>
  </outline>
</glyph>
<glyph name="uni03E1" format="2">
  <advance width="572"/>
  <unicode hex="03E1"/>
  <anchor x="287" y="-240" name="bottom"/>
  <anchor x="287" y="550" name="top"/>
  <outline>
    <contour>
      <point x="284" y="-240" type="line"/>
      <point x="428" y="-146"/>
      <point x="531" y="-2"/>
      <point x="531" y="177" type="curve" smooth="yes"/>
      <point x="531" y="407"/>
      <point x="356" y="529"/>
      <point x="21" y="550" type="curve"/>
      <point x="21" y="469" type="line"/>
      <point x="117" y="447"/>
      <point x="205" y="414"/>
      <point x="259" y="335" type="curve"/>
      <point x="51" y="281" type="line"/>
      <point x="75" y="207" type="line"/>
      <point x="286" y="261" type="line"/>
      <point x="297" y="232"/>
      <point x="303" y="210"/>
      <point x="308" y="185" type="curve"/>
      <point x="107" y="131" type="line"/>
      <point x="132" y="57" type="line"/>
      <point x="313" y="105" type="line"/>
      <point x="314" y="88"/>
      <point x="315" y="76"/>
      <point x="315" y="58" type="curve" smooth="yes"/>
      <point x="315" y="-28"/>
      <point x="279" y="-131"/>
      <point x="221" y="-204" type="curve"/>
    </contour>
  </outline>
</glyph>
<glyph name="afii10021" format="2">
  <advance width="848"/>
  <unicode hex="0414"/>
  <anchor x="425" y="0" name="bottom"/>
  <anchor x="425" y="714" name="top"/>
  <outline>
    <contour>
      <point x="5" y="-210" type="line"/>
      <point x="99" y="-210" type="line"/>
      <point x="99" y="-62"/>
      <point x="124" y="0"/>
      <point x="231" y="0" type="curve" smooth="yes"/>
      <point x="598" y="0" type="line" smooth="yes"/>
      <point x="705" y="0"/>
      <point x="730" y="-62"/>
      <point x="730" y="-210" type="curve"/>
      <point x="825" y="-210" type="line"/>
      <point x="825" y="76" type="line"/>
      <point x="796" y="76" type="line" smooth="yes"/>
      <point x="744" y="76"/>
      <point x="705" y="84"/>
      <point x="705" y="145" type="curve" smooth="yes"/>
      <point x="705" y="581" type="line" smooth="yes"/>
      <point x="705" y="640"/>
      <point x="729" y="648"/>
      <point x="772" y="648" type="curve" smooth="yes"/>
      <point x="802" y="648" type="line"/>
      <point x="802" y="714" type="line"/>
      <point x="189" y="714" type="line"/>
      <point x="189" y="648" type="line"/>
      <point x="210" y="648" type="line" smooth="yes"/>
      <point x="255" y="648"/>
      <point x="282" y="638"/>
      <point x="282" y="601" type="curve" smooth="yes"/>
      <point x="282" y="470"/>
      <point x="199" y="255"/>
      <point x="76" y="74" type="curve"/>
      <point x="5" y="74" type="line"/>
    </contour>
    <contour>
      <point x="179" y="74" type="line"/>
      <point x="285" y="238"/>
      <point x="373" y="467"/>
      <point x="378" y="640" type="curve"/>
      <point x="470" y="640" type="line"/>
      <point x="470" y="74" type="line"/>
    </contour>
  </outline>
</glyph>
<glyph name="afii10025" format="2">
  <advance width="731"/>
  <unicode hex="0417"/>
  <anchor x="366" y="0" name="bottom"/>
  <anchor x="366" y="714" name="top"/>
  <outline>
    <contour>
      <point x="338" y="-11" type="curve" smooth="yes"/>
      <point x="542" y="-11"/>
      <point x="710" y="50"/>
      <point x="710" y="205" type="curve" smooth="yes"/>
      <point x="710" y="332"/>
      <point x="570" y="377"/>
      <point x="480" y="378" type="curve"/>
      <point x="589" y="399"/>
      <point x="680" y="449"/>
      <point x="680" y="545" type="curve" smooth="yes"/>
      <point x="680" y="661"/>
      <point x="567" y="724"/>
      <point x="359" y="724" type="curve" smooth="yes"/>
      <point x="155" y="724"/>
      <point x="64" y="654"/>
      <point x="64" y="589" type="curve" smooth="yes"/>
      <point x="64" y="500"/>
      <point x="148" y="486"/>
      <point x="248" y="486" type="curve"/>
      <point x="248" y="592"/>
      <point x="271" y="650"/>
      <point x="358" y="650" type="curve" smooth="yes"/>
      <point x="426" y="650"/>
      <point x="460" y="610"/>
      <point x="460" y="542" type="curve" smooth="yes"/>
      <point x="460" y="442"/>
      <point x="408" y="406"/>
      <point x="281" y="406" type="curve" smooth="yes"/>
      <point x="175" y="406" type="line"/>
      <point x="175" y="331" type="line"/>
      <point x="288" y="331" type="line" smooth="yes"/>
      <point x="442" y="331"/>
      <point x="495" y="283"/>
      <point x="495" y="190" type="curve" smooth="yes"/>
      <point x="495" y="114"/>
      <point x="439" y="65"/>
      <point x="345" y="65" type="curve" smooth="yes"/>
      <point x="238" y="65"/>
      <point x="184" y="134"/>
      <point x="172" y="271" type="curve"/>
      <point x="74" y="271"/>
      <point x="25" y="227"/>
      <point x="25" y="160" type="curve" smooth="yes"/>
      <point x="25" y="60"/>
      <point x="117" y="-11"/>
    </contour>
  </outline>
</glyph>
<glyph name="afii10042" format="2">
  <advance width="1378"/>
  <unicode hex="0428"/>
  <anchor x="690" y="0" name="bottom"/>
  <anchor x="690" y="714" name="top"/>
  <outline>
    <contour>
      <point x="24" y="0" type="line"/>
      <point x="1354" y="0" type="line"/>
      <point x="1354" y="66" type="line"/>
      <point x="1308" y="66" type="line" smooth="yes"/>
      <point x="1267" y="66"/>
      <point x="1247" y="76"/>
      <point x="1247" y="123" type="curve" smooth="yes"/>
      <point x="1247" y="587" type="line" smooth="yes"/>
      <point x="1247" y="638"/>
      <point x="1266" y="648"/>
      <point x="1308" y="648" type="curve" smooth="yes"/>
      <point x="1354" y="648" type="line"/>
      <point x="1354" y="714" type="line"/>
      <point x="944" y="714" type="line"/>
      <point x="944" y="648" type="line"/>
      <point x="967" y="648" type="line" smooth="yes"/>
      <point x="1008" y="648"/>
      <point x="1026" y="638"/>
      <point x="1026" y="587" type="curve" smooth="yes"/>
      <point x="1026" y="74" type="line"/>
      <point x="800" y="74" type="line"/>
      <point x="800" y="599" type="line" smooth="yes"/>
      <point x="800" y="645"/>
      <point x="825" y="648"/>
      <point x="867" y="648" type="curve" smooth="yes"/>
      <point x="885" y="648" type="line"/>
      <point x="885" y="714" type="line"/>
      <point x="491" y="714" type="line"/>
      <point x="491" y="648" type="line"/>
      <point x="511" y="648" type="line" smooth="yes"/>
      <point x="557" y="648"/>
      <point x="579" y="643"/>
      <point x="579" y="583" type="curve" smooth="yes"/>
      <point x="579" y="74" type="line"/>
      <point x="352" y="74" type="line"/>
      <point x="352" y="587" type="line" smooth="yes"/>
      <point x="352" y="638"/>
      <point x="371" y="648"/>
      <point x="413" y="648" type="curve" smooth="yes"/>
      <point x="432" y="648" type="line"/>
      <point x="432" y="714" type="line"/>
      <point x="24" y="714" type="line"/>
      <point x="24" y="648" type="line"/>
      <point x="71" y="648" type="line" smooth="yes"/>
      <point x="113" y="648"/>
      <point x="132" y="638"/>
      <point x="132" y="587" type="curve" smooth="yes"/>
      <point x="132" y="123" type="line" smooth="yes"/>
      <point x="132" y="76"/>
      <point x="112" y="66"/>
      <point x="71" y="66" type="curve" smooth="yes"/>
      <point x="24" y="66" type="line"/>
    </contour>
  </outline>
</glyph>
<glyph name="uni046E" format="2">
  <advance width="758"/>
  <unicode hex="046E"/>
  <anchor x="380" y="-225" name="bottom"/>
  <anchor x="380" y="846" name="top"/>
  <outline>
    <contour>
      <point x="606" y="-225" type="curve"/>
      <point x="659" y="-221"/>
      <point x="711" y="-180"/>
      <point x="711" y="-133" type="curve" smooth="yes"/>
      <point x="711" y="-86"/>
      <point x="681" y="-51"/>
      <point x="608" y="-51" type="curve" smooth="yes"/>
      <point x="503" y="-51"/>
      <point x="412" y="-136"/>
      <point x="306" y="-136" type="curve" smooth="yes"/>
      <point x="254" y="-136"/>
      <point x="222" y="-119"/>
      <point x="222" y="-73" type="curve" smooth="yes"/>
      <point x="222" y="-32"/>
      <point x="252" y="-4"/>
      <point x="340" y="-1" type="curve" smooth="yes"/>
      <point x="570" y="8"/>
      <point x="738" y="52"/>
      <point x="738" y="205" type="curve" smooth="yes"/>
      <point x="738" y="325"/>
      <point x="607" y="378"/>
      <point x="508" y="377" type="curve"/>
      <point x="601" y="395"/>
      <point x="708" y="443"/>
      <point x="708" y="545" type="curve" smooth="yes"/>
      <point x="708" y="655"/>
      <point x="603" y="709"/>
      <point x="461" y="721" type="curve"/>
      <point x="483" y="749"/>
      <point x="513" y="757"/>
      <point x="559" y="757" type="curve" smooth="yes"/>
      <point x="571" y="757"/>
      <point x="591" y="755"/>
      <point x="602" y="746" type="curve"/>
      <point x="616" y="758"/>
      <point x="623" y="776"/>
      <point x="623" y="783" type="curve" smooth="yes"/>
      <point x="623" y="824"/>
      <point x="594" y="846"/>
      <point x="534" y="846" type="curve" smooth="yes"/>
      <point x="458" y="846"/>
      <point x="416" y="791"/>
      <point x="383" y="751" type="curve"/>
      <point x="346" y="782"/>
      <point x="312" y="810"/>
      <point x="259" y="845" type="curve"/>
      <point x="153" y="845" type="line"/>
      <point x="153" y="832" type="line"/>
      <point x="184" y="811"/>
      <point x="245" y="759"/>
      <point x="278" y="717" type="curve"/>
      <point x="147" y="694"/>
      <point x="92" y="639"/>
      <point x="92" y="588" type="curve" smooth="yes"/>
      <point x="92" y="502"/>
      <point x="171" y="486"/>
      <point x="275" y="486" type="curve"/>
      <point x="275" y="585"/>
      <point x="299" y="650"/>
      <point x="383" y="650" type="curve" smooth="yes"/>
      <point x="457" y="650"/>
      <point x="488" y="609"/>
      <point x="488" y="541" type="curve" smooth="yes"/>
      <point x="488" y="437"/>
      <point x="429" y="405"/>
      <point x="316" y="405" type="curve" smooth="yes"/>
      <point x="203" y="405" type="line"/>
      <point x="203" y="331" type="line"/>
      <point x="320" y="331" type="line" smooth="yes"/>
      <point x="476" y="331"/>
      <point x="524" y="281"/>
      <point x="524" y="199" type="curve" smooth="yes"/>
      <point x="524" y="109"/>
      <point x="469" y="74"/>
      <point x="325" y="66" type="curve" smooth="yes"/>
      <point x="205" y="59"/>
      <point x="102" y="30"/>
      <point x="102" y="-70" type="curve" smooth="yes"/>
      <point x="102" y="-163"/>
      <point x="198" y="-194"/>
      <point x="301" y="-194" type="curve" smooth="yes"/>
      <point x="393" y="-194"/>
      <point x="476" y="-168"/>
      <point x="543" y="-168" type="curve" smooth="yes"/>
      <point x="593" y="-168"/>
      <point x="607" y="-198"/>
    </contour>
  </outline>
</glyph>
<glyph name="uni0481" format="2">
  <advance width="645"/>
  <unicode hex="0481"/>
  <anchor x="323" y="-239" name="bottom"/>
  <anchor x="323" y="536" name="top"/>
  <outline>
    <contour>
      <point x="299" y="-239" type="line"/>
      <point x="525" y="-239" type="line"/>
      <point x="525" y="105" type="line"/>
      <point x="519" y="105" type="line"/>
      <point x="496" y="94"/>
      <point x="453" y="79"/>
      <point x="387" y="79" type="curve" smooth="yes"/>
      <point x="309" y="79"/>
      <point x="276" y="143"/>
      <point x="276" y="269" type="curve" smooth="yes"/>
      <point x="276" y="430"/>
      <point x="309" y="478"/>
      <point x="361" y="478" type="curve" smooth="yes"/>
      <point x="405" y="478"/>
      <point x="419" y="408"/>
      <point x="419" y="333" type="curve"/>
      <point x="579" y="333"/>
      <point x="604" y="404"/>
      <point x="604" y="444" type="curve" smooth="yes"/>
      <point x="604" y="493"/>
      <point x="542" y="552"/>
      <point x="352" y="552" type="curve" smooth="yes"/>
      <point x="182" y="552"/>
      <point x="48" y="485"/>
      <point x="48" y="268" type="curve" smooth="yes"/>
      <point x="48" y="75"/>
      <point x="164" y="-10"/>
      <point x="306" y="-10" type="curve"/>
      <point x="299" y="-10" type="line"/>
    </contour>
  </outline>
</glyph>
<glyph name="uni048A" format="2">
  <advance width="1003"/>
  <unicode hex="048A"/>
  <anchor x="501" y="0" name="bottom"/>
  <anchor x="501" y="940" name="top"/>
  <outline>
    <contour>
      <point x="765" y="-210" type="line"/>
      <point x="911" y="-210" type="line"/>
      <point x="982" y="47" type="line"/>
      <point x="982" y="66" type="line"/>
      <point x="870" y="66" type="line"/>
      <point x="876" y="7" type="line"/>
    </contour>
    <component base="afii10026"/>
    <component base="cyrillicbreve" xOffset="132" yOffset="165"/>
  </outline>
</glyph>
<glyph name="uni048D" format="2">
  <advance width="710"/>
  <unicode hex="048D"/>
  <anchor x="356" y="0" name="bottom"/>
  <anchor x="356" y="644" name="top"/>
  <outline>
    <contour>
      <point x="16" y="0" type="line"/>
      <point x="429" y="0" type="line" smooth="yes"/>
      <point x="616" y="0"/>
      <point x="707" y="73"/>
      <point x="707" y="161" type="curve" smooth="yes"/>
      <point x="707" y="289"/>
      <point x="583" y="313"/>
      <point x="439" y="313" type="curve" smooth="yes"/>
      <point x="329" y="313" type="line"/>
      <point x="329" y="460" type="line"/>
      <point x="516" y="460" type="line"/>
      <point x="516" y="521" type="line"/>
      <point x="329" y="521" type="line"/>
      <point x="329" y="644" type="line"/>
      <point x="102" y="644" type="line"/>
      <point x="102" y="521" type="line"/>
      <point x="7" y="521" type="line"/>
      <point x="7" y="460" type="line"/>
      <point x="102" y="460" type="line"/>
      <point x="102" y="127" type="line" smooth="yes"/>
      <point x="102" y="91"/>
      <point x="87" y="66"/>
      <point x="27" y="66" type="curve" smooth="yes"/>
      <point x="16" y="66" type="line"/>
    </contour>
    <contour>
      <point x="327" y="73" type="line"/>
      <point x="327" y="241" type="line"/>
      <point x="366" y="241" type="line" smooth="yes"/>
      <point x="430" y="241"/>
      <point x="474" y="220"/>
      <point x="474" y="162" type="curve" smooth="yes"/>
      <point x="474" y="97"/>
      <point x="438" y="73"/>
      <point x="368" y="73" type="curve" smooth="yes"/>
    </contour>
  </outline>
</glyph>
<glyph name="uni0497" format="2">
  <advance width="1154"/>
  <unicode hex="0497"/>
  <anchor x="578" y="0" name="bottom"/>
  <anchor x="578" y="536" name="top"/>
  <outline>
    <contour>
      <point x="1069" y="-198" type="line"/>
      <point x="1142" y="-198" type="line"/>
      <point x="1142" y="66" type="line"/>
      <point x="1122" y="66" type="line" smooth="yes"/>
      <point x="1058" y="66"/>
      <point x="1036" y="65"/>
      <point x="997" y="119" type="curve" smooth="yes"/>
      <point x="930" y="214" type="line" smooth="yes"/>
      <point x="882" y="279"/>
      <point x="826" y="298"/>
      <point x="805" y="305" type="curve"/>
      <point x="832" y="322"/>
      <point x="848" y="335"/>
      <point x="886" y="391" type="curve" smooth="yes"/>
      <point x="934" y="461"/>
      <point x="958" y="485"/>
      <point x="982" y="485" type="curve" smooth="yes"/>
      <point x="1001" y="485"/>
      <point x="1018" y="470"/>
      <point x="1026" y="436" type="curve"/>
      <point x="1068" y="437"/>
      <point x="1103" y="450"/>
      <point x="1103" y="485" type="curve" smooth="yes"/>
      <point x="1103" y="501"/>
      <point x="1096" y="542"/>
      <point x="1002" y="542" type="curve" smooth="yes"/>
      <point x="919" y="542"/>
      <point x="879" y="499"/>
      <point x="830" y="428" type="curve" smooth="yes"/>
      <point x="793" y="377"/>
      <point x="773" y="352"/>
      <point x="756" y="336" type="curve" smooth="yes"/>
      <point x="738" y="321"/>
      <point x="714" y="313"/>
      <point x="665" y="313" type="curve"/>
      <point x="665" y="402" type="line" smooth="yes"/>
      <point x="665" y="467"/>
      <point x="728" y="470"/>
      <point x="740" y="470" type="curve" smooth="yes"/>
      <point x="745" y="470" type="line"/>
      <point x="745" y="536" type="line"/>
      <point x="360" y="536" type="line"/>
      <point x="360" y="470" type="line"/>
      <point x="370" y="470" type="line" smooth="yes"/>
      <point x="388" y="470"/>
      <point x="453" y="469"/>
      <point x="453" y="411" type="curve" smooth="yes"/>
      <point x="453" y="313" type="line"/>
      <point x="405" y="313"/>
      <point x="381" y="321"/>
      <point x="365" y="336" type="curve" smooth="yes"/>
      <point x="347" y="352"/>
      <point x="328" y="377"/>
      <point x="290" y="428" type="curve" smooth="yes"/>
      <point x="239" y="499"/>
      <point x="201" y="542"/>
      <point x="116" y="542" type="curve" smooth="yes"/>
      <point x="24" y="542"/>
      <point x="15" y="501"/>
      <point x="15" y="485" type="curve" smooth="yes"/>
      <point x="15" y="450"/>
      <point x="50" y="437"/>
      <point x="92" y="436" type="curve"/>
      <point x="100" y="470"/>
      <point x="118" y="485"/>
      <point x="139" y="485" type="curve" smooth="yes"/>
      <point x="160" y="485"/>
      <point x="184" y="459"/>
      <point x="232" y="391" type="curve" smooth="yes"/>
      <point x="272" y="335"/>
      <point x="284" y="324"/>
      <point x="315" y="305" type="curve"/>
      <point x="294" y="298"/>
      <point x="236" y="279"/>
      <point x="190" y="214" type="curve" smooth="yes"/>
      <point x="121" y="119" type="line" smooth="yes"/>
      <point x="85" y="65"/>
      <point x="62" y="66"/>
      <point x="-2" y="66" type="curve" smooth="yes"/>
      <point x="3" y="66" type="line"/>
      <point x="3" y="0" type="line"/>
      <point x="45" y="0" type="line" smooth="yes"/>
      <point x="180" y="0"/>
      <point x="273" y="3"/>
      <point x="335" y="93" type="curve" smooth="yes"/>
      <point x="401" y="187" type="line" smooth="yes"/>
      <point x="436" y="237"/>
      <point x="433" y="247"/>
      <point x="453" y="247" type="curve"/>
      <point x="453" y="120" type="line" smooth="yes"/>
      <point x="453" y="78"/>
      <point x="425" y="66"/>
      <point x="370" y="66" type="curve" smooth="yes"/>
      <point x="360" y="66" type="line"/>
      <point x="360" y="0" type="line"/>
      <point x="745" y="0" type="line"/>
      <point x="745" y="66" type="line"/>
      <point x="738" y="66" type="line" smooth="yes"/>
      <point x="698" y="66"/>
      <point x="665" y="86"/>
      <point x="665" y="128" type="curve" smooth="yes"/>
      <point x="665" y="247" type="line"/>
      <point x="685" y="247"/>
      <point x="683" y="237"/>
      <point x="718" y="187" type="curve" smooth="yes"/>
      <point x="785" y="93" type="line" smooth="yes"/>
      <point x="829" y="27"/>
      <point x="888" y="10"/>
      <point x="969" y="2" type="curve" smooth="yes"/>
      <point x="1042" y="-3"/>
      <point x="1061" y="-19"/>
      <point x="1066" y="-129" type="curve" smooth="yes"/>
    </contour>
  </outline>
</glyph>
<glyph name="uni04A1" format="2">
  <advance width="898"/>
  <unicode hex="04A1"/>
  <anchor x="449" y="0" name="bottom"/>
  <anchor x="449" y="536" name="top"/>
  <outline>
    <contour>
      <point x="136" y="0" type="line"/>
      <point x="543" y="0" type="line"/>
      <point x="543" y="66" type="line"/>
      <point x="524" y="66" type="line" smooth="yes"/>
      <point x="478" y="66"/>
      <point x="453" y="87"/>
      <point x="453" y="131" type="curve" smooth="yes"/>
      <point x="453" y="247" type="line"/>
      <point x="473" y="247"/>
      <point x="497" y="241"/>
      <point x="526" y="191" type="curve" smooth="yes"/>
      <point x="579" y="97" type="line" smooth="yes"/>
      <point x="631" y="6"/>
      <point x="698" y="0"/>
      <point x="833" y="0" type="curve" smooth="yes"/>
      <point x="906" y="0" type="line"/>
      <point x="906" y="66" type="line"/>
      <point x="890" y="66" type="line" smooth="yes"/>
      <point x="855" y="66"/>
      <point x="842" y="69"/>
      <point x="803" y="123" type="curve" smooth="yes"/>
      <point x="738" y="218" type="line" smooth="yes"/>
      <point x="692" y="283"/>
      <point x="639" y="296"/>
      <point x="577" y="299" type="curve"/>
      <point x="605" y="312"/>
      <point x="633" y="336"/>
      <point x="670" y="384" type="curve" smooth="yes"/>
      <point x="715" y="442"/>
      <point x="733" y="463"/>
      <point x="764" y="463" type="curve" smooth="yes"/>
      <point x="791" y="463"/>
      <point x="802" y="447"/>
      <point x="808" y="417" type="curve"/>
      <point x="852" y="418"/>
      <point x="887" y="436"/>
      <point x="887" y="475" type="curve" smooth="yes"/>
      <point x="887" y="515"/>
      <point x="852" y="542"/>
      <point x="786" y="542" type="curve" smooth="yes"/>
      <point x="680" y="542"/>
      <point x="651" y="499"/>
      <point x="602" y="428" type="curve" smooth="yes"/>
      <point x="564" y="377"/>
      <point x="544" y="352"/>
      <point x="527" y="336" type="curve" smooth="yes"/>
      <point x="509" y="321"/>
      <point x="484" y="313"/>
      <point x="453" y="313" type="curve"/>
      <point x="453" y="404" type="line" smooth="yes"/>
      <point x="453" y="462"/>
      <point x="498" y="470"/>
      <point x="530" y="470" type="curve" smooth="yes"/>
      <point x="532" y="470" type="line"/>
      <point x="532" y="536" type="line"/>
      <point x="19" y="536" type="line"/>
      <point x="11" y="321" type="line"/>
      <point x="109" y="321" type="line"/>
      <point x="115" y="370" type="line" smooth="yes"/>
      <point x="123" y="437"/>
      <point x="137" y="455"/>
      <point x="201" y="455" type="curve" smooth="yes"/>
      <point x="226" y="455" type="line"/>
      <point x="226" y="131" type="line" smooth="yes"/>
      <point x="226" y="87"/>
      <point x="196" y="66"/>
      <point x="150" y="66" type="curve" smooth="yes"/>
      <point x="136" y="66" type="line"/>
    </contour>
  </outline>
</glyph>
<glyph name="uni04A8" format="2">
  <advance width="1057"/>
  <unicode hex="04A8"/>
  <anchor x="529" y="0" name="bottom"/>
  <anchor x="529" y="714" name="top"/>
  <outline>
    <contour>
      <point x="887" y="-52" type="curve" smooth="yes"/>
      <point x="985" y="-52"/>
      <point x="1022" y="-12"/>
      <point x="1022" y="27" type="curve" smooth="yes"/>
      <point x="1022" y="49"/>
      <point x="1006" y="67"/>
      <point x="995" y="74" type="curve"/>
      <point x="977" y="49"/>
      <point x="946" y="37"/>
      <point x="903" y="37" type="curve" smooth="yes"/>
      <point x="871" y="37"/>
      <point x="824" y="43"/>
      <point x="792" y="52" type="curve"/>
      <point x="899" y="105"/>
      <point x="977" y="205"/>
      <point x="977" y="335" type="curve" smooth="yes"/>
      <point x="977" y="518"/>
      <point x="855" y="584"/>
      <point x="708" y="584" type="curve" smooth="yes"/>
      <point x="545" y="584"/>
      <point x="435" y="502"/>
      <point x="435" y="341" type="curve" smooth="yes"/>
      <point x="435" y="222"/>
      <point x="485" y="129"/>
      <point x="577" y="63" type="curve"/>
      <point x="566" y="65"/>
      <point x="555" y="65"/>
      <point x="543" y="65" type="curve" smooth="yes"/>
      <point x="370" y="65"/>
      <point x="305" y="160"/>
      <point x="305" y="358" type="curve" smooth="yes"/>
      <point x="305" y="556"/>
      <point x="383" y="650"/>
      <point x="575" y="650" type="curve" smooth="yes"/>
      <point x="640" y="650"/>
      <point x="690" y="631"/>
      <point x="716" y="617" type="curve"/>
      <point x="733" y="631"/>
      <point x="745" y="640"/>
      <point x="745" y="666" type="curve" smooth="yes"/>
      <point x="745" y="712"/>
      <point x="672" y="725"/>
      <point x="557" y="725" type="curve" smooth="yes"/>
      <point x="210" y="725"/>
      <point x="63" y="581"/>
      <point x="63" y="359" type="curve" smooth="yes"/>
      <point x="63" y="142"/>
      <point x="202" y="-10"/>
      <point x="526" y="-10" type="curve" smooth="yes"/>
      <point x="580" y="-10"/>
      <point x="609" y="-6"/>
      <point x="654" y="1" type="curve"/>
      <point x="715" y="-26"/>
      <point x="791" y="-52"/>
    </contour>
    <contour>
      <point x="705" y="115" type="curve"/>
      <point x="671" y="155"/>
      <point x="645" y="205"/>
      <point x="645" y="336" type="curve" smooth="yes"/>
      <point x="645" y="473"/>
      <point x="668" y="510"/>
      <point x="708" y="510" type="curve" smooth="yes"/>
      <point x="746" y="510"/>
      <point x="768" y="480"/>
      <point x="768" y="350" type="curve" smooth="yes"/>
      <point x="768" y="207"/>
      <point x="743" y="161"/>
    </contour>
  </outline>
</glyph>
<glyph name="uni04B5" format="2">
  <advance width="1100"/>
  <unicode hex="04B5"/>
  <anchor x="551" y="-210" name="bottom"/>
  <anchor x="551" y="536" name="top"/>
  <outline>
    <contour>
      <point x="992" y="-210" type="line"/>
      <point x="1088" y="-210" type="line"/>
      <point x="1088" y="62" type="line"/>
      <point x="1061" y="62" type="line" smooth="yes"/>
      <point x="1018" y="64"/>
      <point x="977" y="70"/>
      <point x="977" y="108" type="curve" smooth="yes"/>
      <point x="977" y="407" type="line" smooth="yes"/>
      <point x="977" y="456"/>
      <point x="1002" y="470"/>
      <point x="1048" y="470" type="curve" smooth="yes"/>
      <point x="1061" y="470" type="line"/>
      <point x="1061" y="536" type="line"/>
      <point x="690" y="536" type="line"/>
      <point x="690" y="470" type="line"/>
      <point x="695" y="470" type="line" smooth="yes"/>
      <point x="734" y="470"/>
      <point x="750" y="456"/>
      <point x="750" y="407" type="curve" smooth="yes"/>
      <point x="750" y="86" type="line"/>
      <point x="453" y="86" type="line"/>
      <point x="453" y="455" type="line"/>
      <point x="468" y="455" type="line" smooth="yes"/>
      <point x="527" y="455"/>
      <point x="543" y="437"/>
      <point x="551" y="374" type="curve" smooth="yes"/>
      <point x="557" y="329" type="line"/>
      <point x="655" y="329" type="line"/>
      <point x="648" y="536" type="line"/>
      <point x="31" y="536" type="line"/>
      <point x="23" y="329" type="line"/>
      <point x="120" y="329" type="line"/>
      <point x="127" y="374" type="line" smooth="yes"/>
      <point x="135" y="437"/>
      <point x="149" y="455"/>
      <point x="213" y="455" type="curve" smooth="yes"/>
      <point x="226" y="455" type="line"/>
      <point x="226" y="132" type="line" smooth="yes"/>
      <point x="226" y="87"/>
      <point x="196" y="66"/>
      <point x="151" y="66" type="curve" smooth="yes"/>
      <point x="136" y="66" type="line"/>
      <point x="136" y="0" type="line"/>
      <point x="876" y="0" type="line" smooth="yes"/>
      <point x="950" y="0"/>
      <point x="975" y="-27"/>
      <point x="984" y="-125" type="curve" smooth="yes"/>
    </contour>
  </outline>
</glyph>
<glyph name="uni04BC" format="2">
  <advance width="1039"/>
  <unicode hex="04BC"/>
  <anchor x="620" y="0" name="bottom"/>
  <anchor x="620" y="714" name="top"/>
  <outline>
    <contour>
      <point x="643" y="-10" type="curve" smooth="yes"/>
      <point x="812" y="-10"/>
      <point x="956" y="43"/>
      <point x="956" y="121" type="curve" smooth="yes"/>
      <point x="956" y="145"/>
      <point x="949" y="158"/>
      <point x="939" y="168" type="curve"/>
      <point x="875" y="123"/>
      <point x="793" y="89"/>
      <point x="699" y="89" type="curve" smooth="yes"/>
      <point x="557" y="89"/>
      <point x="470" y="137"/>
      <point x="461" y="335" type="curve"/>
      <point x="975" y="335" type="line"/>
      <point x="975" y="365" type="line" smooth="yes"/>
      <point x="975" y="590"/>
      <point x="880" y="725"/>
      <point x="614" y="725" type="curve" smooth="yes"/>
      <point x="387" y="725"/>
      <point x="241" y="604"/>
      <point x="223" y="403" type="curve"/>
      <point x="166" y="403"/>
      <point x="136" y="419"/>
      <point x="136" y="464" type="curve" smooth="yes"/>
      <point x="136" y="485"/>
      <point x="141" y="502"/>
      <point x="149" y="516" type="curve"/>
      <point x="140" y="522"/>
      <point x="121" y="529"/>
      <point x="100" y="529" type="curve" smooth="yes"/>
      <point x="51" y="529"/>
      <point x="11" y="505"/>
      <point x="11" y="455" type="curve" smooth="yes"/>
      <point x="11" y="372"/>
      <point x="85" y="335"/>
      <point x="223" y="334" type="curve"/>
      <point x="233" y="124"/>
      <point x="370" y="-10"/>
    </contour>
    <contour>
      <point x="466" y="403" type="line"/>
      <point x="471" y="591"/>
      <point x="521" y="647"/>
      <point x="602" y="647" type="curve" smooth="yes"/>
      <point x="693" y="647"/>
      <point x="727" y="590"/>
      <point x="729" y="403" type="curve"/>
    </contour>
  </outline>
</glyph>
<glyph name="uni04C9" format="2">
  <advance width="977"/>
  <unicode hex="04C9"/>
  <anchor x="488" y="0" name="bottom"/>
  <anchor x="488" y="714" name="top"/>
  <anchor x="958" y="714" name="topright"/>
  <anchor x="489" y="357" name="center"/>
  <outline>
    <contour>
      <point x="758" y="-210" type="line"/>
      <point x="904" y="-210" type="line"/>
      <point x="975" y="46" type="line"/>
      <point x="975" y="66" type="line"/>
      <point x="863" y="66" type="line"/>
      <point x="869" y="7" type="line"/>
    </contour>
    <component base="H"/>
  </outline>
</glyph>
<glyph name="uni04CD" format="2">
  <advance width="1122"/>
  <unicode hex="04CD"/>
  <anchor x="561" y="0" name="bottom"/>
  <anchor x="561" y="714" name="top"/>
  <anchor x="1102" y="714" name="topright"/>
  <outline>
    <contour>
      <point x="901" y="-210" type="line"/>
      <point x="1047" y="-210" type="line"/>
      <point x="1118" y="46" type="line"/>
      <point x="1118" y="66" type="line"/>
      <point x="1006" y="66" type="line"/>
      <point x="1012" y="7" type="line"/>
    </contour>
    <component base="M"/>
  </outline>
</glyph>
<glyph name="uni0506" format="2">
  <advance width="740"/>
  <unicode hex="0506"/>
  <anchor x="370" y="0" name="bottom"/>
  <anchor x="370" y="714" name="top"/>
  <outline>
    <contour>
      <point x="675" y="-210" type="curve"/>
      <point x="736" y="-210" type="line"/>
      <point x="736" y="55" type="line"/>
      <point x="684" y="55" type="line" smooth="yes"/>
      <point x="650" y="55"/>
      <point x="615" y="53"/>
      <point x="615" y="96" type="curve"/>
      <point x="615" y="197" type="line"/>
      <point x="615" y="329"/>
      <point x="538" y="373"/>
      <point x="426" y="378" type="curve"/>
      <point x="535" y="399"/>
      <point x="626" y="449"/>
      <point x="626" y="545" type="curve" smooth="yes"/>
      <point x="626" y="661"/>
      <point x="512" y="724"/>
      <point x="305" y="724" type="curve" smooth="yes"/>
      <point x="101" y="724"/>
      <point x="10" y="653"/>
      <point x="10" y="590" type="curve" smooth="yes"/>
      <point x="10" y="501"/>
      <point x="94" y="487"/>
      <point x="194" y="487" type="curve"/>
      <point x="194" y="591"/>
      <point x="218" y="650"/>
      <point x="304" y="650" type="curve" smooth="yes"/>
      <point x="372" y="650"/>
      <point x="406" y="610"/>
      <point x="406" y="542" type="curve" smooth="yes"/>
      <point x="406" y="440"/>
      <point x="354" y="406"/>
      <point x="227" y="406" type="curve" smooth="yes"/>
      <point x="121" y="406" type="line"/>
      <point x="121" y="331" type="line"/>
      <point x="234" y="331" type="line" smooth="yes"/>
      <point x="388" y="331"/>
      <point x="390" y="271"/>
      <point x="390" y="183" type="curve"/>
      <point x="390" y="0" type="line"/>
      <point x="558" y="0" type="line"/>
      <point x="667" y="0"/>
      <point x="655" y="-54"/>
    </contour>
  </outline>
</glyph>
<glyph name="uni0507" format="2">
  <advance width="656"/>
  <unicode hex="0507"/>
  <anchor x="329" y="0" name="bottom"/>
  <anchor x="329" y="536" name="top"/>
  <outline>
    <contour>
      <point x="572" y="-198" type="line"/>
      <point x="645" y="-198" type="line"/>
      <point x="645" y="65" type="line"/>
      <point x="628" y="65" type="line" smooth="yes"/>
      <point x="583" y="65"/>
      <point x="557" y="85"/>
      <point x="557" y="131" type="curve" smooth="yes"/>
      <point x="557" y="151" type="line" smooth="yes"/>
      <point x="557" y="228"/>
      <point x="495" y="270"/>
      <point x="378" y="284" type="curve"/>
      <point x="378" y="289" type="line"/>
      <point x="481" y="309"/>
      <point x="541" y="359"/>
      <point x="541" y="424" type="curve" smooth="yes"/>
      <point x="541" y="508"/>
      <point x="445" y="551"/>
      <point x="264" y="551" type="curve" smooth="yes"/>
      <point x="56" y="551"/>
      <point x="6" y="483"/>
      <point x="6" y="439" type="curve" smooth="yes"/>
      <point x="6" y="400"/>
      <point x="33" y="364"/>
      <point x="153" y="364" type="curve"/>
      <point x="153" y="413"/>
      <point x="160" y="481"/>
      <point x="238" y="481" type="curve" smooth="yes"/>
      <point x="294" y="481"/>
      <point x="312" y="452"/>
      <point x="312" y="414" type="curve" smooth="yes"/>
      <point x="312" y="361"/>
      <point x="289" y="323"/>
      <point x="190" y="323" type="curve" smooth="yes"/>
      <point x="138" y="323" type="line"/>
      <point x="138" y="247" type="line"/>
      <point x="195" y="247" type="line" smooth="yes"/>
      <point x="294" y="247"/>
      <point x="329" y="219"/>
      <point x="329" y="150" type="curve" smooth="yes"/>
      <point x="329" y="0" type="line"/>
      <point x="445" y="0" type="line" smooth="yes"/>
      <point x="525" y="0"/>
      <point x="549" y="-18"/>
      <point x="564" y="-136" type="curve" smooth="yes"/>
    </contour>
  </outline>
</glyph>
<glyph name="uni050A" format="2">
  <advance width="1400"/>
  <unicode hex="050A"/>
  <anchor x="701" y="0" name="bottom"/>
  <anchor x="701" y="714" name="top"/>
  <outline>
    <contour>
      <point x="953" y="-10" type="curve" smooth="yes"/>
      <point x="1189" y="-10"/>
      <point x="1279" y="90"/>
      <point x="1279" y="210" type="curve" smooth="yes"/>
      <point x="1279" y="285" type="line" smooth="yes"/>
      <point x="1279" y="328"/>
      <point x="1294" y="347"/>
      <point x="1335" y="347" type="curve" smooth="yes"/>
      <point x="1379" y="347" type="line"/>
      <point x="1379" y="413" type="line"/>
      <point x="936" y="413" type="line"/>
      <point x="936" y="347" type="line"/>
      <point x="984" y="347" type="line" smooth="yes"/>
      <point x="1029" y="347"/>
      <point x="1046" y="334"/>
      <point x="1046" y="290" type="curve" smooth="yes"/>
      <point x="1046" y="185" type="line" smooth="yes"/>
      <point x="1046" y="105"/>
      <point x="1017" y="69"/>
      <point x="950" y="69" type="curve" smooth="yes"/>
      <point x="887" y="69"/>
      <point x="846" y="96"/>
      <point x="846" y="199" type="curve" smooth="yes"/>
      <point x="846" y="602" type="line" smooth="yes"/>
      <point x="846" y="629"/>
      <point x="864" y="648"/>
      <point x="892" y="648" type="curve" smooth="yes"/>
      <point x="954" y="648" type="line"/>
      <point x="954" y="714" type="line"/>
      <point x="528" y="714" type="line"/>
      <point x="528" y="648" type="line"/>
      <point x="564" y="648" type="line" smooth="yes"/>
      <point x="599" y="648"/>
      <point x="614" y="629"/>
      <point x="614" y="602" type="curve" smooth="yes"/>
      <point x="614" y="409" type="line"/>
      <point x="364" y="409" type="line"/>
      <point x="364" y="605" type="line" smooth="yes"/>
      <point x="364" y="629"/>
      <point x="379" y="648"/>
      <point x="407" y="648" type="curve" smooth="yes"/>
      <point x="450" y="648" type="line"/>
      <point x="450" y="714" type="line"/>
      <point x="24" y="714" type="line"/>
      <point x="24" y="648" type="line"/>
      <point x="76" y="648" type="line" smooth="yes"/>
      <point x="108" y="648"/>
      <point x="132" y="629"/>
      <point x="132" y="599" type="curve" smooth="yes"/>
      <point x="132" y="111" type="line" smooth="yes"/>
      <point x="132" y="92"/>
      <point x="113" y="66"/>
      <point x="86" y="66" type="curve" smooth="yes"/>
      <point x="24" y="66" type="line"/>
      <point x="24" y="0" type="line"/>
      <point x="450" y="0" type="line"/>
      <point x="450" y="66" type="line"/>
      <point x="407" y="66" type="line" smooth="yes"/>
      <point x="379" y="66"/>
      <point x="364" y="92"/>
      <point x="364" y="111" type="curve" smooth="yes"/>
      <point x="364" y="335" type="line"/>
      <point x="614" y="335" type="line"/>
      <point x="614" y="225" type="line" smooth="yes"/>
      <point x="614" y="78"/>
      <point x="701" y="-10"/>
    </contour>
  </outline>
</glyph>
<glyph name="uni050D" format="2">
  <advance width="786"/>
  <unicode hex="050D"/>
  <anchor x="393" y="0" name="bottom"/>
  <anchor x="393" y="536" name="top"/>
  <outline>
    <contour>
      <point x="409" y="-6" type="curve" smooth="yes"/>
      <point x="608" y="-6"/>
      <point x="707" y="76"/>
      <point x="723" y="172" type="curve" smooth="yes"/>
      <point x="728" y="198"/>
      <point x="736" y="214"/>
      <point x="767" y="214" type="curve" smooth="yes"/>
      <point x="778" y="214" type="line"/>
      <point x="778" y="284" type="line"/>
      <point x="411" y="284" type="line"/>
      <point x="411" y="214" type="line"/>
      <point x="452" y="214" type="line" smooth="yes"/>
      <point x="498" y="214"/>
      <point x="511" y="185"/>
      <point x="511" y="157" type="curve" smooth="yes"/>
      <point x="511" y="101"/>
      <point x="484" y="74"/>
      <point x="416" y="74" type="curve" smooth="yes"/>
      <point x="321" y="74"/>
      <point x="276" y="136"/>
      <point x="276" y="274" type="curve" smooth="yes"/>
      <point x="276" y="404"/>
      <point x="316" y="476"/>
      <point x="427" y="476" type="curve" smooth="yes"/>
      <point x="488" y="476"/>
      <point x="529" y="450"/>
      <point x="531" y="369" type="curve"/>
      <point x="645" y="369"/>
      <point x="699" y="393"/>
      <point x="699" y="442" type="curve" smooth="yes"/>
      <point x="699" y="505"/>
      <point x="612" y="551"/>
      <point x="431" y="551" type="curve" smooth="yes"/>
      <point x="176" y="551"/>
      <point x="49" y="445"/>
      <point x="49" y="274" type="curve" smooth="yes"/>
      <point x="49" y="97"/>
      <point x="175" y="-6"/>
    </contour>
  </outline>
</glyph>
<glyph name="uni050F" format="2">
  <advance width="987"/>
  <unicode hex="050F"/>
  <anchor x="494" y="0" name="bottom"/>
  <anchor x="494" y="536" name="top"/>
  <outline>
    <contour>
      <point x="554" y="-10" type="curve" smooth="yes"/>
      <point x="780" y="-10"/>
      <point x="883" y="65"/>
      <point x="883" y="174" type="curve" smooth="yes"/>
      <point x="883" y="183" type="line" smooth="yes"/>
      <point x="883" y="238"/>
      <point x="935" y="245"/>
      <point x="957" y="245" type="curve" smooth="yes"/>
      <point x="977" y="245" type="line"/>
      <point x="977" y="311" type="line"/>
      <point x="562" y="311" type="line"/>
      <point x="562" y="245" type="line"/>
      <point x="583" y="245" type="line" smooth="yes"/>
      <point x="604" y="245"/>
      <point x="656" y="238"/>
      <point x="656" y="188" type="curve" smooth="yes"/>
      <point x="656" y="160" type="line" smooth="yes"/>
      <point x="656" y="91"/>
      <point x="617" y="69"/>
      <point x="554" y="69" type="curve" smooth="yes"/>
      <point x="491" y="69"/>
      <point x="453" y="91"/>
      <point x="453" y="171" type="curve" smooth="yes"/>
      <point x="453" y="455" type="line"/>
      <point x="479" y="455" type="line" smooth="yes"/>
      <point x="539" y="455"/>
      <point x="556" y="437"/>
      <point x="565" y="374" type="curve" smooth="yes"/>
      <point x="569" y="341" type="line"/>
      <point x="667" y="341" type="line"/>
      <point x="660" y="536" type="line"/>
      <point x="19" y="536" type="line"/>
      <point x="11" y="341" type="line"/>
      <point x="109" y="341" type="line"/>
      <point x="114" y="374" type="line" smooth="yes"/>
      <point x="122" y="437"/>
      <point x="137" y="455"/>
      <point x="201" y="455" type="curve" smooth="yes"/>
      <point x="226" y="455" type="line"/>
      <point x="226" y="203" type="line" smooth="yes"/>
      <point x="226" y="54"/>
      <point x="332" y="-10"/>
    </contour>
  </outline>
</glyph>
<glyph name="uni0511" format="2">
  <advance width="663"/>
  <unicode hex="0511"/>
  <anchor x="332" y="0" name="bottom"/>
  <anchor x="332" y="536" name="top"/>
  <outline>
    <contour>
      <point x="332" y="-10" type="curve" smooth="yes"/>
      <point x="542" y="-10"/>
      <point x="615" y="48"/>
      <point x="615" y="115" type="curve" smooth="yes"/>
      <point x="615" y="139"/>
      <point x="599" y="158"/>
      <point x="580" y="166" type="curve"/>
      <point x="546" y="130"/>
      <point x="486" y="82"/>
      <point x="388" y="82" type="curve" smooth="yes"/>
      <point x="301" y="82"/>
      <point x="263" y="113"/>
      <point x="263" y="166" type="curve" smooth="yes"/>
      <point x="263" y="221"/>
      <point x="304" y="242"/>
      <point x="370" y="242" type="curve" smooth="yes"/>
      <point x="452" y="242" type="line"/>
      <point x="452" y="322" type="line"/>
      <point x="381" y="322" type="line" smooth="yes"/>
      <point x="320" y="322"/>
      <point x="281" y="343"/>
      <point x="281" y="404" type="curve" smooth="yes"/>
      <point x="281" y="453"/>
      <point x="304" y="482"/>
      <point x="348" y="482" type="curve" smooth="yes"/>
      <point x="397" y="482"/>
      <point x="414" y="450"/>
      <point x="414" y="379" type="curve"/>
      <point x="555" y="379"/>
      <point x="588" y="414"/>
      <point x="588" y="454" type="curve" smooth="yes"/>
      <point x="588" y="500"/>
      <point x="543" y="551"/>
      <point x="349" y="551" type="curve" smooth="yes"/>
      <point x="162" y="551"/>
      <point x="54" y="494"/>
      <point x="54" y="398" type="curve" smooth="yes"/>
      <point x="54" y="335"/>
      <point x="115" y="298"/>
      <point x="195" y="286" type="curve"/>
      <point x="195" y="281" type="line"/>
      <point x="105" y="270"/>
      <point x="34" y="232"/>
      <point x="34" y="150" type="curve" smooth="yes"/>
      <point x="34" y="47"/>
      <point x="132" y="-10"/>
    </contour>
  </outline>
</glyph>
<glyph name="uni0519" format="2">
  <advance width="1062"/>
  <unicode hex="0519"/>
  <anchor x="532" y="0" name="bottom"/>
  <anchor x="532" y="536" name="top"/>
  <outline>
    <contour>
      <point x="751" y="-10" type="curve" smooth="yes"/>
      <point x="939" y="-10"/>
      <point x="1010" y="56"/>
      <point x="1010" y="121" type="curve" smooth="yes"/>
      <point x="1010" y="149"/>
      <point x="988" y="169"/>
      <point x="959" y="177" type="curve"/>
      <point x="933" y="121"/>
      <point x="889" y="81"/>
      <point x="809" y="81" type="curve" smooth="yes"/>
      <point x="709" y="81"/>
      <point x="657" y="133"/>
      <point x="654" y="251" type="curve"/>
      <point x="1032" y="251" type="line"/>
      <point x="1032" y="310" type="line" smooth="yes"/>
      <point x="1032" y="470"/>
      <point x="920" y="552"/>
      <point x="751" y="552" type="curve" smooth="yes"/>
      <point x="689" y="552"/>
      <point x="640" y="542"/>
      <point x="602" y="528" type="curve"/>
      <point x="602" y="536" type="line"/>
      <point x="335" y="536" type="line" smooth="yes"/>
      <point x="135" y="536"/>
      <point x="63" y="472"/>
      <point x="63" y="383" type="curve" smooth="yes"/>
      <point x="63" y="299"/>
      <point x="132" y="262"/>
      <point x="195" y="248" type="curve"/>
      <point x="93" y="126" type="line" smooth="yes"/>
      <point x="60" y="85"/>
      <point x="39" y="66"/>
      <point x="-3" y="66" type="curve" smooth="yes"/>
      <point x="-7" y="66" type="line"/>
      <point x="-7" y="0" type="line"/>
      <point x="160" y="0"/>
      <point x="245" y="9"/>
      <point x="306" y="103" type="curve" smooth="yes"/>
      <point x="390" y="229" type="line"/>
      <point x="427" y="229" type="line"/>
      <point x="441" y="77"/>
      <point x="546" y="-10"/>
    </contour>
    <contour>
      <point x="395" y="301" type="line" smooth="yes"/>
      <point x="324" y="301"/>
      <point x="295" y="331"/>
      <point x="295" y="388" type="curve" smooth="yes"/>
      <point x="295" y="439"/>
      <point x="323" y="466"/>
      <point x="395" y="466" type="curve" smooth="yes"/>
      <point x="427" y="466" type="line"/>
      <point x="427" y="301" type="line"/>
    </contour>
    <contour>
      <point x="656" y="328" type="line"/>
      <point x="657" y="424"/>
      <point x="693" y="473"/>
      <point x="743" y="473" type="curve" smooth="yes"/>
      <point x="790" y="473"/>
      <point x="810" y="425"/>
      <point x="810" y="328" type="curve"/>
    </contour>
  </outline>
</glyph>
<glyph name="uni0521" format="2">
  <advance width="1143"/>
  <unicode hex="0521"/>
  <anchor x="572" y="-240" name="bottom"/>
  <anchor x="572" y="536" name="top"/>
  <outline>
    <contour>
      <point x="762" y="-240" type="curve" smooth="yes"/>
      <point x="964" y="-240"/>
      <point x="1103" y="-173"/>
      <point x="1103" y="49" type="curve" smooth="yes"/>
      <point x="1103" y="224"/>
      <point x="993" y="309"/>
      <point x="807" y="309" type="curve" smooth="yes"/>
      <point x="759" y="309"/>
      <point x="723" y="303"/>
      <point x="698" y="299" type="curve"/>
      <point x="698" y="407" type="line" smooth="yes"/>
      <point x="698" y="462"/>
      <point x="750" y="470"/>
      <point x="771" y="470" type="curve" smooth="yes"/>
      <point x="785" y="470" type="line"/>
      <point x="785" y="536" type="line"/>
      <point x="166" y="536" type="line"/>
      <point x="166" y="470" type="line"/>
      <point x="181" y="470" type="line" smooth="yes"/>
      <point x="232" y="470"/>
      <point x="268" y="461"/>
      <point x="268" y="408" type="curve" smooth="yes"/>
      <point x="268" y="358"/>
      <point x="243" y="273"/>
      <point x="225" y="218" type="curve" smooth="yes"/>
      <point x="186" y="92"/>
      <point x="148" y="92"/>
      <point x="117" y="92" type="curve" smooth="yes"/>
      <point x="92" y="92"/>
      <point x="74" y="103"/>
      <point x="74" y="134" type="curve"/>
      <point x="48" y="134"/>
      <point x="0" y="118"/>
      <point x="0" y="63" type="curve" smooth="yes"/>
      <point x="0" y="19"/>
      <point x="39" y="-7"/>
      <point x="101" y="-7" type="curve" smooth="yes"/>
      <point x="189" y="-7"/>
      <point x="242" y="30"/>
      <point x="285" y="155" type="curve" smooth="yes"/>
      <point x="319" y="254"/>
      <point x="339" y="355"/>
      <point x="353" y="466" type="curve"/>
      <point x="471" y="466" type="line"/>
      <point x="471" y="129" type="line" smooth="yes"/>
      <point x="471" y="74"/>
      <point x="425" y="66"/>
      <point x="408" y="66" type="curve" smooth="yes"/>
      <point x="386" y="66" type="line"/>
      <point x="386" y="0" type="line"/>
      <point x="785" y="0" type="line"/>
      <point x="785" y="66" type="line"/>
      <point x="771" y="66" type="line" smooth="yes"/>
      <point x="750" y="66"/>
      <point x="698" y="74"/>
      <point x="698" y="129" type="curve" smooth="yes"/>
      <point x="698" y="225" type="line"/>
      <point x="716" y="228"/>
      <point x="730" y="232"/>
      <point x="758" y="232" type="curve" smooth="yes"/>
      <point x="838" y="232"/>
      <point x="876" y="177"/>
      <point x="876" y="52" type="curve" smooth="yes"/>
      <point x="876" y="-98"/>
      <point x="848" y="-164"/>
      <point x="771" y="-164" type="curve" smooth="yes"/>
      <point x="709" y="-164"/>
      <point x="685" y="-115"/>
      <point x="685" y="-44" type="curve"/>
      <point x="574" y="-44"/>
      <point x="549" y="-80"/>
      <point x="549" y="-117" type="curve" smooth="yes"/>
      <point x="549" y="-187"/>
      <point x="615" y="-240"/>
    </contour>
  </outline>
</glyph>
<glyph name="uni0524" format="2">
  <advance width="983"/>
  <unicode hex="0524"/>
  <anchor x="492" y="0" name="bottom"/>
  <anchor x="492" y="714" name="top"/>
  <outline>
    <contour>
      <point x="897" y="-210" type="curve"/>
      <point x="959" y="-210" type="line"/>
      <point x="959" y="55" type="line"/>
      <point x="900" y="55" type="line" smooth="yes"/>
      <point x="866" y="55"/>
      <point x="852" y="81"/>
      <point x="852" y="94" type="curve" smooth="yes"/>
      <point x="852" y="591" type="line" smooth="yes"/>
      <point x="852" y="641"/>
      <point x="876" y="648"/>
      <point x="917" y="648" type="curve" smooth="yes"/>
      <point x="959" y="648" type="line"/>
      <point x="959" y="714" type="line"/>
      <point x="24" y="714" type="line"/>
      <point x="24" y="648" type="line"/>
      <point x="63" y="648" type="line" smooth="yes"/>
      <point x="104" y="648"/>
      <point x="132" y="641"/>
      <point x="132" y="595" type="curve" smooth="yes"/>
      <point x="132" y="123" type="line" smooth="yes"/>
      <point x="132" y="73"/>
      <point x="105" y="66"/>
      <point x="63" y="66" type="curve" smooth="yes"/>
      <point x="24" y="66" type="line"/>
      <point x="24" y="0" type="line"/>
      <point x="450" y="0" type="line"/>
      <point x="450" y="66" type="line"/>
      <point x="428" y="66" type="line" smooth="yes"/>
      <point x="385" y="66"/>
      <point x="364" y="73"/>
      <point x="364" y="123" type="curve" smooth="yes"/>
      <point x="364" y="640" type="line"/>
      <point x="619" y="640" type="line"/>
      <point x="619" y="123" type="line" smooth="yes"/>
      <point x="619" y="73"/>
      <point x="592" y="66"/>
      <point x="551" y="66" type="curve" smooth="yes"/>
      <point x="534" y="66" type="line"/>
      <point x="534" y="0" type="line"/>
      <point x="776" y="0" type="line" smooth="yes"/>
      <point x="855" y="0"/>
      <point x="881" y="2"/>
    </contour>
  </outline>
</glyph>
<glyph name="uni052C" format="2">
  <advance width="931"/>
  <unicode hex="052C"/>
  <anchor x="465" y="-210" name="bottom"/>
  <anchor x="465" y="714" name="top"/>
  <outline>
    <contour>
      <point x="43" y="-210" type="line"/>
      <point x="137" y="-210" type="line"/>
      <point x="137" y="-62"/>
      <point x="162" y="0"/>
      <point x="270" y="0" type="curve" smooth="yes"/>
      <point x="739" y="0" type="line" smooth="yes"/>
      <point x="841" y="0"/>
      <point x="873" y="-55"/>
      <point x="873" y="-210" type="curve"/>
      <point x="965" y="-210" type="line"/>
      <point x="965" y="83" type="line"/>
      <point x="942" y="83" type="line" smooth="yes"/>
      <point x="879" y="83"/>
      <point x="846" y="94"/>
      <point x="846" y="164" type="curve" smooth="yes"/>
      <point x="846" y="586" type="line" smooth="yes"/>
      <point x="846" y="631"/>
      <point x="869" y="648"/>
      <point x="914" y="648" type="curve" smooth="yes"/>
      <point x="956" y="648" type="line"/>
      <point x="956" y="714" type="line"/>
      <point x="585" y="714" type="line"/>
      <point x="127" y="74" type="line"/>
      <point x="43" y="74" type="line"/>
    </contour>
    <contour>
      <point x="227" y="74" type="line"/>
      <point x="610" y="616" type="line"/>
      <point x="609" y="74" type="line"/>
    </contour>
    <contour>
      <point x="412" y="235" type="curve" smooth="yes"/>
      <point x="536" y="235"/>
      <point x="611" y="255"/>
      <point x="633" y="252" type="curve"/>
      <point x="633" y="338" type="line"/>
      <point x="612" y="341"/>
      <point x="563" y="334"/>
      <point x="500" y="334" type="curve" smooth="yes"/>
      <point x="373" y="334"/>
      <point x="342" y="364"/>
      <point x="342" y="497" type="curve" smooth="yes"/>
      <point x="342" y="586" type="line" smooth="yes"/>
      <point x="342" y="637"/>
      <point x="362" y="648"/>
      <point x="405" y="648" type="curve" smooth="yes"/>
      <point x="426" y="648" type="line"/>
      <point x="426" y="714" type="line"/>
      <point x="21" y="714" type="line"/>
      <point x="21" y="648" type="line"/>
      <point x="47" y="648" type="line"/>
      <point x="91" y="648"/>
      <point x="108" y="637"/>
      <point x="108" y="581" type="curve" smooth="yes"/>
      <point x="108" y="491" type="line" smooth="yes"/>
      <point x="108" y="270"/>
      <point x="225" y="235"/>
    </contour>
  </outline>
</glyph>
<glyph name="uni1AB2" format="2">
  <unicode hex="1AB2"/>
  <anchor x="2" y="536" name="_top"/>
  <anchor x="2" y="873" name="top"/>
  <outline>
    <contour>
      <point x="127" y="537" type="curve" smooth="yes"/>
      <point x="213" y="537"/>
      <point x="273" y="614"/>
      <point x="273" y="705" type="curve" smooth="yes"/>
      <point x="273" y="805"/>
      <point x="214" y="871"/>
      <point x="131" y="871" type="curve" smooth="yes"/>
      <point x="80" y="871"/>
      <point x="37" y="842"/>
      <point x="4" y="792" type="curve"/>
      <point x="-34" y="855"/>
      <point x="-70" y="873"/>
      <point x="-125" y="873" type="curve" smooth="yes"/>
      <point x="-213" y="873"/>
      <point x="-271" y="798"/>
      <point x="-271" y="706" type="curve" smooth="yes"/>
      <point x="-271" y="604"/>
      <point x="-213" y="540"/>
      <point x="-128" y="540" type="curve" smooth="yes"/>
      <point x="-81" y="540"/>
      <point x="-37" y="566"/>
      <point x="-4" y="621" type="curve"/>
      <point x="34" y="561"/>
      <point x="74" y="537"/>
    </contour>
    <contour>
      <point x="-124" y="638" type="curve" smooth="yes"/>
      <point x="-162" y="638"/>
      <point x="-177" y="669"/>
      <point x="-177" y="707" type="curve"/>
      <point x="-177" y="746"/>
      <point x="-158" y="774"/>
      <point x="-125" y="774" type="curve" smooth="yes"/>
      <point x="-94" y="774"/>
      <point x="-81" y="746"/>
      <point x="-44" y="701" type="curve" smooth="yes"/>
      <point x="-82" y="662"/>
      <point x="-96" y="638"/>
    </contour>
    <contour>
      <point x="125" y="637" type="curve" smooth="yes"/>
      <point x="94" y="637"/>
      <point x="84" y="662"/>
      <point x="47" y="707" type="curve" smooth="yes"/>
      <point x="85" y="746"/>
      <point x="100" y="772"/>
      <point x="125" y="772" type="curve" smooth="yes"/>
      <point x="159" y="772"/>
      <point x="178" y="742"/>
      <point x="178" y="704" type="curve"/>
      <point x="178" y="665"/>
      <point x="160" y="637"/>
    </contour>
  </outline>
</glyph>
<glyph name="uni1AB4" format="2">
  <unicode hex="1AB4"/>
  <anchor x="-1" y="536" name="_top"/>
  <anchor x="-1" y="948" name="top"/>
  <outline>
    <contour>
      <point x="0" y="768" type="curve" smooth="yes"/>
      <point x="36" y="768"/>
      <point x="76" y="794"/>
      <point x="76" y="858" type="curve" smooth="yes"/>
      <point x="76" y="928"/>
      <point x="33" y="948"/>
      <point x="0" y="948" type="curve" smooth="yes"/>
      <point x="-39" y="948"/>
      <point x="-77" y="923"/>
      <point x="-77" y="858" type="curve" smooth="yes"/>
      <point x="-77" y="792"/>
      <point x="-37" y="768"/>
    </contour>
    <contour>
      <point x="-126" y="581" type="curve" smooth="yes"/>
      <point x="-92" y="581"/>
      <point x="-49" y="601"/>
      <point x="-49" y="671" type="curve" smooth="yes"/>
      <point x="-49" y="744"/>
      <point x="-94" y="761"/>
      <point x="-126" y="761" type="curve" smooth="yes"/>
      <point x="-159" y="761"/>
      <point x="-202" y="741"/>
      <point x="-202" y="671" type="curve" smooth="yes"/>
      <point x="-202" y="608"/>
      <point x="-163" y="581"/>
    </contour>
    <contour>
      <point x="126" y="581" type="curve" smooth="yes"/>
      <point x="158" y="581"/>
      <point x="202" y="599"/>
      <point x="202" y="670" type="curve" smooth="yes"/>
      <point x="202" y="742"/>
      <point x="157" y="760"/>
      <point x="126" y="760" type="curve" smooth="yes"/>
      <point x="92" y="760"/>
      <point x="49" y="742"/>
      <point x="49" y="670" type="curve" smooth="yes"/>
      <point x="49" y="606"/>
      <point x="87" y="581"/>
    </contour>
  </outline>
</glyph>
<glyph name="uni1D01" format="2">
  <advance width="1021"/>
  <unicode hex="1D01"/>
  <anchor x="510" y="0" name="bottom"/>
  <anchor x="510" y="536" name="top"/>
  <outline>
    <contour>
      <point x="7" y="0" type="line"/>
      <point x="262" y="0" type="line"/>
      <point x="262" y="70" type="line"/>
      <point x="236" y="70" type="line" smooth="yes"/>
      <point x="207" y="70"/>
      <point x="193" y="78"/>
      <point x="193" y="91" type="curve" smooth="yes"/>
      <point x="193" y="102"/>
      <point x="203" y="119"/>
      <point x="210" y="129" type="curve" smooth="yes"/>
      <point x="239" y="172" type="line"/>
      <point x="444" y="172" type="line"/>
      <point x="444" y="120" type="line" smooth="yes"/>
      <point x="444" y="94"/>
      <point x="433" y="70"/>
      <point x="394" y="70" type="curve" smooth="yes"/>
      <point x="357" y="70" type="line"/>
      <point x="357" y="0" type="line"/>
      <point x="971" y="0" type="line"/>
      <point x="978" y="169" type="line"/>
      <point x="901" y="169" type="line"/>
      <point x="890" y="126" type="line" smooth="yes"/>
      <point x="883" y="93"/>
      <point x="860" y="77"/>
      <point x="812" y="77" type="curve" smooth="yes"/>
      <point x="662" y="77" type="line"/>
      <point x="662" y="242" type="line"/>
      <point x="883" y="242" type="line"/>
      <point x="883" y="308" type="line"/>
      <point x="662" y="308" type="line"/>
      <point x="662" y="459" type="line"/>
      <point x="789" y="459" type="line" smooth="yes"/>
      <point x="821" y="459"/>
      <point x="849" y="453"/>
      <point x="855" y="410" type="curve" smooth="yes"/>
      <point x="864" y="369" type="line"/>
      <point x="947" y="369" type="line"/>
      <point x="944" y="536" type="line"/>
      <point x="278" y="536" type="line"/>
      <point x="278" y="468" type="line"/>
      <point x="343" y="464" type="line"/>
      <point x="107" y="126" type="line" smooth="yes"/>
      <point x="80" y="91"/>
      <point x="52" y="70"/>
      <point x="24" y="70" type="curve" smooth="yes"/>
      <point x="7" y="70" type="line"/>
    </contour>
    <contour>
      <point x="274" y="230" type="line"/>
      <point x="433" y="460" type="line"/>
      <point x="445" y="460" type="line"/>
      <point x="444" y="230" type="line"/>
    </contour>
  </outline>
</glyph>
<glyph name="uni1D07" format="2">
  <advance width="653"/>
  <unicode hex="1D07"/>
  <anchor x="326" y="0" name="bottom"/>
  <anchor x="326" y="536" name="top"/>
  <outline>
    <contour>
      <point x="17" y="0" type="line"/>
      <point x="629" y="0" type="line"/>
      <point x="636" y="169" type="line"/>
      <point x="558" y="169" type="line"/>
      <point x="547" y="121" type="line" smooth="yes"/>
      <point x="542" y="89"/>
      <point x="518" y="77"/>
      <point x="469" y="77" type="curve" smooth="yes"/>
      <point x="318" y="77" type="line"/>
      <point x="318" y="242" type="line"/>
      <point x="540" y="242" type="line"/>
      <point x="540" y="308" type="line"/>
      <point x="318" y="308" type="line"/>
      <point x="318" y="459" type="line"/>
      <point x="447" y="459" type="line" smooth="yes"/>
      <point x="477" y="459"/>
      <point x="507" y="455"/>
      <point x="513" y="410" type="curve" smooth="yes"/>
      <point x="521" y="369" type="line"/>
      <point x="603" y="369" type="line"/>
      <point x="601" y="536" type="line"/>
      <point x="17" y="536" type="line"/>
      <point x="17" y="465" type="line"/>
      <point x="55" y="465" type="line" smooth="yes"/>
      <point x="84" y="465"/>
      <point x="102" y="454"/>
      <point x="102" y="421" type="curve" smooth="yes"/>
      <point x="102" y="111" type="line" smooth="yes"/>
      <point x="102" y="91"/>
      <point x="90" y="70"/>
      <point x="52" y="70" type="curve" smooth="yes"/>
      <point x="17" y="70" type="line"/>
    </contour>
  </outline>
</glyph>
<glyph name="uni1D0B" format="2">
  <advance width="780"/>
  <unicode hex="1D0B"/>
  <anchor x="391" y="0" name="bottom"/>
  <anchor x="391" y="536" name="top"/>
  <outline>
    <contour>
      <point x="17" y="0" type="line"/>
      <point x="385" y="0" type="line"/>
      <point x="385" y="70" type="line"/>
      <point x="358" y="70" type="line" smooth="yes"/>
      <point x="340" y="70"/>
      <point x="328" y="80"/>
      <point x="328" y="92" type="curve" smooth="yes"/>
      <point x="328" y="237" type="line"/>
      <point x="346" y="229" type="line"/>
      <point x="404" y="143" type="line" smooth="yes"/>
      <point x="482" y="27"/>
      <point x="523" y="0"/>
      <point x="667" y="0" type="curve" smooth="yes"/>
      <point x="773" y="0" type="line"/>
      <point x="773" y="65" type="line"/>
      <point x="726" y="65"/>
      <point x="710" y="77"/>
      <point x="648" y="153" type="curve" smooth="yes"/>
      <point x="496" y="346" type="line"/>
      <point x="605" y="420" type="line" smooth="yes"/>
      <point x="651" y="451"/>
      <point x="690" y="465"/>
      <point x="752" y="465" type="curve"/>
      <point x="752" y="536" type="line"/>
      <point x="438" y="536" type="line"/>
      <point x="438" y="465" type="line"/>
      <point x="472" y="465"/>
      <point x="491" y="454"/>
      <point x="491" y="436" type="curve" smooth="yes"/>
      <point x="491" y="404"/>
      <point x="460" y="363"/>
      <point x="387" y="322" type="curve" smooth="yes"/>
      <point x="328" y="293" type="line"/>
      <point x="328" y="439" type="line" smooth="yes"/>
      <point x="328" y="458"/>
      <point x="340" y="465"/>
      <point x="365" y="465" type="curve" smooth="yes"/>
      <point x="385" y="465" type="line"/>
      <point x="385" y="536" type="line"/>
      <point x="17" y="536" type="line"/>
      <point x="17" y="465" type="line"/>
      <point x="68" y="465" type="line" smooth="yes"/>
      <point x="91" y="465"/>
      <point x="101" y="451"/>
      <point x="101" y="431" type="curve" smooth="yes"/>
      <point x="101" y="99" type="line" smooth="yes"/>
      <point x="101" y="84"/>
      <point x="84" y="70"/>
      <point x="69" y="70" type="curve" smooth="yes"/>
      <point x="17" y="70" type="line"/>
    </contour>
  </outline>
</glyph>
<glyph name="uni1D0E" format="2">
  <advance width="789"/>
  <unicode hex="1D0E"/>
  <anchor x="395" y="0" name="bottom"/>
  <anchor x="395" y="536" name="top"/>
  <outline>
    <contour>
      <point x="103" y="0" type="line"/>
      <point x="254" y="0" type="line"/>
      <point x="597" y="362" type="line"/>
      <point x="600" y="362" type="line"/>
      <point x="600" y="123" type="line" smooth="yes"/>
      <point x="600" y="88"/>
      <point x="593" y="70"/>
      <point x="550" y="70" type="curve" smooth="yes"/>
      <point x="516" y="70" type="line"/>
      <point x="516" y="0" type="line"/>
      <point x="773" y="0" type="line"/>
      <point x="773" y="70" type="line"/>
      <point x="738" y="70" type="line" smooth="yes"/>
      <point x="706" y="70"/>
      <point x="689" y="88"/>
      <point x="689" y="123" type="curve" smooth="yes"/>
      <point x="689" y="428" type="line" smooth="yes"/>
      <point x="689" y="462"/>
      <point x="707" y="465"/>
      <point x="732" y="465" type="curve" smooth="yes"/>
      <point x="773" y="465" type="line"/>
      <point x="773" y="536" type="line"/>
      <point x="493" y="536" type="line"/>
      <point x="194" y="234" type="line"/>
      <point x="190" y="234" type="line"/>
      <point x="190" y="419" type="line" smooth="yes"/>
      <point x="190" y="450"/>
      <point x="210" y="465"/>
      <point x="246" y="465" type="curve" smooth="yes"/>
      <point x="276" y="465" type="line"/>
      <point x="276" y="536" type="line"/>
      <point x="16" y="536" type="line"/>
      <point x="16" y="465" type="line"/>
      <point x="46" y="465" type="line" smooth="yes"/>
      <point x="86" y="465"/>
      <point x="103" y="448"/>
      <point x="103" y="416" type="curve" smooth="yes"/>
    </contour>
  </outline>
</glyph>
<glyph name="uni1D26" format="2">
  <advance width="623"/>
  <unicode hex="1D26"/>
  <outline>
    <contour>
      <point x="17" y="0" type="line"/>
      <point x="434" y="0" type="line"/>
      <point x="434" y="70" type="line"/>
      <point x="376" y="70" type="line" smooth="yes"/>
      <point x="344" y="70"/>
      <point x="325" y="88"/>
      <point x="325" y="115" type="curve" smooth="yes"/>
      <point x="325" y="464" type="line"/>
      <point x="425" y="464" type="line" smooth="yes"/>
      <point x="480" y="464"/>
      <point x="509" y="448"/>
      <point x="518" y="407" type="curve" smooth="yes"/>
      <point x="531" y="341" type="line"/>
      <point x="616" y="341" type="line"/>
      <point x="607" y="536" type="line"/>
      <point x="17" y="536" type="line"/>
      <point x="17" y="465" type="line"/>
      <point x="57" y="465" type="line" smooth="yes"/>
      <point x="85" y="465"/>
      <point x="107" y="450"/>
      <point x="107" y="416" type="curve" smooth="yes"/>
      <point x="107" y="120" type="line" smooth="yes"/>
      <point x="107" y="88"/>
      <point x="87" y="70"/>
      <point x="57" y="70" type="curve" smooth="yes"/>
      <point x="17" y="70" type="line"/>
    </contour>
  </outline>
</glyph>
<glyph name="uni1D6E" format="2">
  <advance width="507"/>
  <unicode hex="1D6E"/>
  <anchor x="344" y="767" name="top"/>
  <anchor x="597" y="767" name="topright"/>
  <anchor x="254" y="0" name="bottom"/>
  <outline>
    <contour>
      <point x="-49" y="193" type="curve"/>
      <point x="44" y="193" type="line"/>
      <point x="44" y="227"/>
      <point x="60" y="253"/>
      <point x="98" y="253" type="curve" smooth="yes"/>
      <point x="183" y="253"/>
      <point x="259" y="181"/>
      <point x="354" y="181" type="curve" smooth="yes"/>
      <point x="472" y="181"/>
      <point x="515" y="266"/>
      <point x="516" y="372" type="curve"/>
      <point x="424" y="372" type="line"/>
      <point x="424" y="336"/>
      <point x="407" y="312"/>
      <point x="371" y="312" type="curve" smooth="yes"/>
      <point x="286" y="312"/>
      <point x="210" y="385"/>
      <point x="116" y="385" type="curve" smooth="yes"/>
      <point x="1" y="385"/>
      <point x="-48" y="299"/>
    </contour>
    <component base="f"/>
  </outline>
</glyph>
<glyph name="uni1D72" format="2">
  <advance width="654"/>
  <unicode hex="1D72"/>
  <anchor x="408" y="536" name="top"/>
  <anchor x="734" y="536" name="topright"/>
  <anchor x="318" y="0" name="bottom"/>
  <outline>
    <contour>
      <point x="-23" y="145" type="curve"/>
      <point x="70" y="145" type="line"/>
      <point x="70" y="180"/>
      <point x="85" y="205"/>
      <point x="123" y="205" type="curve" smooth="yes"/>
      <point x="208" y="205"/>
      <point x="284" y="133"/>
      <point x="380" y="133" type="curve" smooth="yes"/>
      <point x="498" y="133"/>
      <point x="541" y="218"/>
      <point x="542" y="324" type="curve"/>
      <point x="450" y="324" type="line"/>
      <point x="450" y="288"/>
      <point x="432" y="264"/>
      <point x="397" y="264" type="curve" smooth="yes"/>
      <point x="312" y="264"/>
      <point x="236" y="337"/>
      <point x="141" y="337" type="curve" smooth="yes"/>
      <point x="27" y="337"/>
      <point x="-22" y="251"/>
    </contour>
    <component base="r" xOffset="80"/>
  </outline>
</glyph>
<glyph name="uni1D7E" format="2">
  <advance width="765"/>
  <unicode hex="1D7E"/>
  <outline>
    <contour>
      <point x="395" y="-9" type="curve" smooth="yes"/>
      <point x="584" y="-9"/>
      <point x="654" y="84"/>
      <point x="654" y="194" type="curve" smooth="yes"/>
      <point x="654" y="260" type="line"/>
      <point x="753" y="260" type="line"/>
      <point x="753" y="332" type="line"/>
      <point x="654" y="332" type="line"/>
      <point x="654" y="416" type="line" smooth="yes"/>
      <point x="654" y="460"/>
      <point x="674" y="468"/>
      <point x="704" y="468" type="curve" smooth="yes"/>
      <point x="746" y="468" type="line"/>
      <point x="746" y="536" type="line"/>
      <point x="452" y="536" type="line"/>
      <point x="452" y="468" type="line"/>
      <point x="491" y="468" type="line" smooth="yes"/>
      <point x="523" y="468"/>
      <point x="541" y="461"/>
      <point x="541" y="420" type="curve" smooth="yes"/>
      <point x="541" y="332" type="line"/>
      <point x="312" y="332" type="line"/>
      <point x="312" y="536" type="line"/>
      <point x="3" y="536" type="line"/>
      <point x="3" y="469" type="line"/>
      <point x="43" y="469" type="line" smooth="yes"/>
      <point x="74" y="469"/>
      <point x="96" y="464"/>
      <point x="96" y="423" type="curve" smooth="yes"/>
      <point x="96" y="332" type="line"/>
      <point x="6" y="332" type="line"/>
      <point x="6" y="260" type="line"/>
      <point x="96" y="260" type="line"/>
      <point x="96" y="199" type="line" smooth="yes"/>
      <point x="96" y="50"/>
      <point x="206" y="-9"/>
    </contour>
    <contour>
      <point x="429" y="71" type="curve" smooth="yes"/>
      <point x="354" y="71"/>
      <point x="311" y="96"/>
      <point x="311" y="191" type="curve" smooth="yes"/>
      <point x="311" y="260" type="line"/>
      <point x="540" y="260" type="line"/>
      <point x="540" y="190" type="line" smooth="yes"/>
      <point x="540" y="98"/>
      <point x="492" y="71"/>
    </contour>
  </outline>
</glyph>
<glyph name="snakebelow" format="2">
  <unicode hex="1DC2"/>
  <anchor x="-6" y="0" name="_bottom"/>
  <anchor x="-6" y="-212" name="bottom"/>
  <outline>
    <contour>
      <point x="51" y="-212" type="curve"/>
      <point x="51" y="-188" type="line"/>
      <point x="14" y="-187"/>
      <point x="0" y="-184"/>
      <point x="0" y="-179" type="curve" smooth="yes"/>
      <point x="0" y="-170"/>
      <point x="54" y="-170"/>
      <point x="54" y="-148" type="curve" smooth="yes"/>
      <point x="54" y="-125"/>
      <point x="0" y="-126"/>
      <point x="0" y="-118" type="curve" smooth="yes"/>
      <point x="0" y="-107"/>
      <point x="58" y="-104"/>
      <point x="58" y="-72" type="curve" smooth="yes"/>
      <point x="58" y="-52"/>
      <point x="38" y="-42"/>
      <point x="-1" y="-42" type="curve" smooth="yes"/>
      <point x="-26" y="-42"/>
      <point x="-55" y="-50"/>
      <point x="-70" y="-55" type="curve"/>
      <point x="-66" y="-82" type="line"/>
      <point x="-48" y="-75"/>
      <point x="-31" y="-72"/>
      <point x="-14" y="-72" type="curve" smooth="yes"/>
      <point x="4" y="-72"/>
      <point x="14" y="-75"/>
      <point x="14" y="-80" type="curve" smooth="yes"/>
      <point x="14" y="-91"/>
      <point x="-50" y="-99"/>
      <point x="-50" y="-119" type="curve" smooth="yes"/>
      <point x="-50" y="-140"/>
      <point x="11" y="-137"/>
      <point x="11" y="-148" type="curve" smooth="yes"/>
      <point x="11" y="-156"/>
      <point x="-50" y="-160"/>
      <point x="-50" y="-181" type="curve" smooth="yes"/>
      <point x="-50" y="-202"/>
      <point x="-16" y="-212"/>
    </contour>
  </outline>
</glyph>
<glyph name="v.middleWelsh" format="2">
  <advance width="758"/>
  <unicode hex="1EFD"/>
  <anchor x="379" y="0" name="bottom"/>
  <anchor x="379" y="764" name="top"/>
  <outline>
    <contour>
      <point x="380" y="-10" type="curve" smooth="yes"/>
      <point x="621" y="-10"/>
      <point x="717" y="114"/>
      <point x="717" y="233" type="curve" smooth="yes"/>
      <point x="717" y="351"/>
      <point x="631" y="438"/>
      <point x="464" y="438" type="curve" smooth="yes"/>
      <point x="357" y="438"/>
      <point x="317" y="396"/>
      <point x="317" y="356" type="curve" smooth="yes"/>
      <point x="317" y="348"/>
      <point x="321" y="343"/>
      <point x="323" y="339" type="curve"/>
      <point x="331" y="343"/>
      <point x="351" y="356"/>
      <point x="379" y="356" type="curve" smooth="yes"/>
      <point x="447" y="356"/>
      <point x="475" y="315"/>
      <point x="475" y="216" type="curve" smooth="yes"/>
      <point x="475" y="117"/>
      <point x="443" y="70"/>
      <point x="386" y="70" type="curve" smooth="yes"/>
      <point x="322" y="70"/>
      <point x="288" y="120"/>
      <point x="288" y="282" type="curve" smooth="yes"/>
      <point x="288" y="534"/>
      <point x="366" y="618"/>
      <point x="499" y="681" type="curve"/>
      <point x="499" y="764" type="line"/>
      <point x="229" y="710"/>
      <point x="46" y="524"/>
      <point x="46" y="299" type="curve" smooth="yes"/>
      <point x="46" y="89"/>
      <point x="175" y="-10"/>
    </contour>
  </outline>
</glyph>
<glyph name="uni1FFE" format="2">
  <advance width="591"/>
  <unicode hex="1FFE"/>
  <anchor x="288" y="536" name="_top"/>
  <anchor x="288" y="752" name="top"/>
  <outline>
    <contour>
      <point x="381" y="544" type="curve"/>
      <point x="381" y="594" type="line"/>
      <point x="317" y="601"/>
      <point x="307" y="610"/>
      <point x="307" y="625" type="curve" smooth="yes"/>
      <point x="307" y="638"/>
      <point x="381" y="632"/>
      <point x="381" y="690" type="curve" smooth="yes"/>
      <point x="381" y="726"/>
      <point x="357" y="752"/>
      <point x="297" y="752" type="curve" smooth="yes"/>
      <point x="234" y="752"/>
      <point x="194" y="717"/>
      <point x="194" y="664" type="curve" smooth="yes"/>
      <point x="194" y="604"/>
      <point x="238" y="546"/>
    </contour>
  </outline>
</glyph>
<glyph name="uni2012" format="2">
  <advance width="672"/>
  <unicode hex="2012"/>
  <outline>
    <contour>
      <point x="606" y="404" type="line"/>
      <point x="67" y="404" type="line"/>
      <point x="67" y="316" type="line"/>
      <point x="606" y="316" type="line"/>
    </contour>
  </outline>
</glyph>
<glyph name="quotereversed" format="2">
  <advance width="352"/>
  <unicode hex="201B"/>
  <outline>
    <contour>
      <point x="287" y="380" type="curve"/>
      <point x="287" y="444" type="line"/>
      <point x="225" y="465"/>
      <point x="190" y="469"/>
      <point x="190" y="508" type="curve"/>
      <point x="190" y="543"/>
      <point x="275" y="531"/>
      <point x="275" y="633" type="curve" smooth="yes"/>
      <point x="275" y="687"/>
      <point x="237" y="714"/>
      <point x="186" y="714" type="curve" smooth="yes"/>
      <point x="108" y="714"/>
      <point x="66" y="659"/>
      <point x="66" y="576" type="curve" smooth="yes"/>
      <point x="66" y="491"/>
      <point x="126" y="415"/>
    </contour>
  </outline>
</glyph>
<glyph name="reversedparagraph" format="2">
  <advance width="740"/>
  <unicode hex="204B"/>
  <outline>
    <contour>
      <point x="46" y="-111" type="line"/>
      <point x="250" y="-111" type="line"/>
      <point x="250" y="685" type="line"/>
      <point x="338" y="685" type="line"/>
      <point x="338" y="-111" type="line"/>
      <point x="543" y="-111" type="line"/>
      <point x="543" y="-45" type="line"/>
      <point x="527" y="-45" type="line" smooth="yes"/>
      <point x="475" y="-45"/>
      <point x="431" y="-38"/>
      <point x="431" y="25" type="curve" smooth="yes"/>
      <point x="431" y="386" type="line"/>
      <point x="515" y="386" type="line" smooth="yes"/>
      <point x="651" y="386"/>
      <point x="693" y="478"/>
      <point x="693" y="582" type="curve" smooth="yes"/>
      <point x="693" y="689"/>
      <point x="644" y="760"/>
      <point x="512" y="760" type="curve" smooth="yes"/>
      <point x="46" y="760" type="line"/>
      <point x="46" y="694" type="line"/>
      <point x="61" y="694" type="line" smooth="yes"/>
      <point x="113" y="694"/>
      <point x="157" y="686"/>
      <point x="157" y="622" type="curve" smooth="yes"/>
      <point x="157" y="25" type="line" smooth="yes"/>
      <point x="157" y="-38"/>
      <point x="113" y="-45"/>
      <point x="61" y="-45" type="curve" smooth="yes"/>
      <point x="46" y="-45" type="line"/>
    </contour>
  </outline>
</glyph>
<glyph name="threedotpunctuation" format="2">
  <advance width="749"/>
  <unicode hex="2056"/>
  <outline>
    <contour>
      <point x="564" y="360" type="curve" smooth="yes"/>
      <point x="624" y="360"/>
      <point x="676" y="384"/>
      <point x="676" y="456" type="curve" smooth="yes"/>
      <point x="676" y="530"/>
      <point x="624" y="552"/>
      <point x="564" y="552" type="curve" smooth="yes"/>
      <point x="501" y="552"/>
      <point x="452" y="530"/>
      <point x="452" y="456" type="curve" smooth="yes"/>
      <point x="452" y="384"/>
      <point x="501" y="360"/>
    </contour>
    <contour>
      <point x="184" y="164" type="curve" smooth="yes"/>
      <point x="244" y="164"/>
      <point x="296" y="188"/>
      <point x="296" y="260" type="curve" smooth="yes"/>
      <point x="296" y="332"/>
      <point x="244" y="354"/>
      <point x="184" y="354" type="curve" smooth="yes"/>
      <point x="121" y="354"/>
      <point x="72" y="332"/>
      <point x="72" y="260" type="curve" smooth="yes"/>
      <point x="72" y="188"/>
      <point x="121" y="164"/>
    </contour>
    <contour>
      <point x="564" y="-10" type="curve" smooth="yes"/>
      <point x="624" y="-10"/>
      <point x="676" y="14"/>
      <point x="676" y="86" type="curve" smooth="yes"/>
      <point x="676" y="160"/>
      <point x="624" y="182"/>
      <point x="564" y="182" type="curve" smooth="yes"/>
      <point x="501" y="182"/>
      <point x="452" y="160"/>
      <point x="452" y="86" type="curve" smooth="yes"/>
      <point x="452" y="14"/>
      <point x="501" y="-10"/>
    </contour>
  </outline>
</glyph>
<glyph name="quadrupleprime" format="2">
  <advance width="1357"/>
  <unicode hex="2057"/>
  <outline>
    <contour>
      <point x="1046" y="479" type="line"/>
      <point x="1173" y="479" type="line"/>
      <point x="1337" y="714" type="line"/>
      <point x="1088" y="714" type="line"/>
    </contour>
    <contour>
      <point x="20" y="479" type="line"/>
      <point x="146" y="479" type="line"/>
      <point x="311" y="714" type="line"/>
      <point x="62" y="714" type="line"/>
    </contour>
    <contour>
      <point x="362" y="479" type="line"/>
      <point x="489" y="479" type="line"/>
      <point x="653" y="714" type="line"/>
      <point x="404" y="714" type="line"/>
    </contour>
    <contour>
      <point x="704" y="479" type="line"/>
      <point x="830" y="479" type="line"/>
      <point x="995" y="714" type="line"/>
      <point x="746" y="714" type="line"/>
    </contour>
  </outline>
</glyph>
<glyph name="foursuperior" format="2">
  <advance width="467"/>
  <unicode hex="2074"/>
  <outline>
    <contour>
      <point x="129" y="387" type="line"/>
      <point x="445" y="387" type="line"/>
      <point x="445" y="447" type="line"/>
      <point x="415" y="447" type="line"/>
      <point x="389" y="447"/>
      <point x="366" y="451"/>
      <point x="366" y="481" type="curve"/>
      <point x="366" y="500" type="line"/>
      <point x="449" y="500" type="line"/>
      <point x="449" y="571" type="line"/>
      <point x="366" y="571" type="line"/>
      <point x="366" y="819" type="line"/>
      <point x="223" y="819" type="line"/>
      <point x="5" y="558" type="line"/>
      <point x="5" y="500" type="line"/>
      <point x="220" y="500" type="line"/>
      <point x="220" y="481" type="line"/>
      <point x="220" y="451"/>
      <point x="199" y="447"/>
      <point x="173" y="447" type="curve"/>
      <point x="129" y="447" type="line"/>
    </contour>
    <contour>
      <point x="87" y="571" type="line"/>
      <point x="199" y="696" type="line"/>
      <point x="206" y="707"/>
      <point x="216" y="721"/>
      <point x="224" y="740" type="curve"/>
      <point x="221" y="715"/>
      <point x="221" y="698"/>
      <point x="221" y="677" type="curve"/>
      <point x="221" y="571" type="line"/>
    </contour>
  </outline>
</glyph>
<glyph name="fivesuperior" format="2">
  <advance width="467"/>
  <unicode hex="2075"/>
  <outline>
    <contour>
      <point x="201" y="380" type="curve" smooth="yes"/>
      <point x="344" y="380"/>
      <point x="421" y="437"/>
      <point x="421" y="524" type="curve" smooth="yes"/>
      <point x="421" y="611"/>
      <point x="351" y="656"/>
      <point x="230" y="656" type="curve" smooth="yes"/>
      <point x="186" y="656"/>
      <point x="147" y="648"/>
      <point x="127" y="642" type="curve"/>
      <point x="140" y="703" type="line"/>
      <point x="289" y="703" type="line" smooth="yes"/>
      <point x="324" y="703"/>
      <point x="330" y="695"/>
      <point x="334" y="682" type="curve" smooth="yes"/>
      <point x="338" y="664" type="line"/>
      <point x="387" y="664" type="line"/>
      <point x="384" y="814" type="line"/>
      <point x="81" y="814" type="line"/>
      <point x="49" y="579" type="line"/>
      <point x="94" y="572" type="line"/>
      <point x="118" y="583"/>
      <point x="143" y="590"/>
      <point x="179" y="590" type="curve" smooth="yes"/>
      <point x="229" y="590"/>
      <point x="264" y="567"/>
      <point x="264" y="525" type="curve" smooth="yes"/>
      <point x="264" y="463"/>
      <point x="235" y="444"/>
      <point x="195" y="444" type="curve" smooth="yes"/>
      <point x="146" y="444"/>
      <point x="132" y="481"/>
      <point x="132" y="525" type="curve"/>
      <point x="69" y="525"/>
      <point x="26" y="512"/>
      <point x="26" y="471" type="curve" smooth="yes"/>
      <point x="26" y="404"/>
      <point x="91" y="380"/>
    </contour>
  </outline>
</glyph>
<glyph name="ninesuperior" format="2">
  <advance width="467"/>
  <unicode hex="2079"/>
  <outline>
    <contour>
      <point x="164" y="380" type="curve" smooth="yes"/>
      <point x="356" y="380"/>
      <point x="423" y="461"/>
      <point x="423" y="620" type="curve" smooth="yes"/>
      <point x="423" y="759"/>
      <point x="348" y="824"/>
      <point x="210" y="824" type="curve" smooth="yes"/>
      <point x="74" y="824"/>
      <point x="7" y="764"/>
      <point x="7" y="678" type="curve" smooth="yes"/>
      <point x="7" y="602"/>
      <point x="63" y="555"/>
      <point x="159" y="555" type="curve" smooth="yes"/>
      <point x="216" y="555"/>
      <point x="249" y="565"/>
      <point x="269" y="574" type="curve"/>
      <point x="263" y="489"/>
      <point x="249" y="436"/>
      <point x="185" y="436" type="curve" smooth="yes"/>
      <point x="133" y="436"/>
      <point x="121" y="475"/>
      <point x="121" y="499" type="curve"/>
      <point x="48" y="499"/>
      <point x="27" y="481"/>
      <point x="27" y="451" type="curve" smooth="yes"/>
      <point x="27" y="414"/>
      <point x="67" y="380"/>
    </contour>
    <contour>
      <point x="216" y="616" type="curve" smooth="yes"/>
      <point x="189" y="616"/>
      <point x="160" y="627"/>
      <point x="160" y="691" type="curve" smooth="yes"/>
      <point x="160" y="754"/>
      <point x="179" y="767"/>
      <point x="209" y="767" type="curve" smooth="yes"/>
      <point x="247" y="767"/>
      <point x="270" y="720"/>
      <point x="268" y="624" type="curve"/>
      <point x="256" y="621"/>
      <point x="244" y="616"/>
    </contour>
  </outline>
</glyph>
<glyph name="uni20A2" format="2">
  <advance width="825"/>
  <unicode hex="20A2"/>
  <outline>
    <contour>
      <point x="464" y="-10" type="curve" smooth="yes"/>
      <point x="721" y="-10"/>
      <point x="775" y="81"/>
      <point x="775" y="146" type="curve" smooth="yes"/>
      <point x="775" y="160"/>
      <point x="768" y="185"/>
      <point x="757" y="194" type="curve"/>
      <point x="718" y="152"/>
      <point x="655" y="93"/>
      <point x="548" y="89" type="curve"/>
      <point x="548" y="231" type="line" smooth="yes"/>
      <point x="548" y="244"/>
      <point x="544" y="338"/>
      <point x="608" y="338" type="curve" smooth="yes"/>
      <point x="643" y="338"/>
      <point x="653" y="309"/>
      <point x="653" y="262" type="curve"/>
      <point x="721" y="262"/>
      <point x="775" y="279"/>
      <point x="775" y="347" type="curve" smooth="yes"/>
      <point x="775" y="394"/>
      <point x="746" y="433"/>
      <point x="669" y="433" type="curve" smooth="yes"/>
      <point x="602" y="433"/>
      <point x="573" y="405"/>
      <point x="552" y="362" type="curve"/>
      <point x="547" y="362" type="line"/>
      <point x="525" y="420" type="line"/>
      <point x="336" y="420" type="line"/>
      <point x="336" y="373" type="line"/>
      <point x="340" y="373" type="line"/>
      <point x="372" y="374"/>
      <point x="387" y="372"/>
      <point x="387" y="313" type="curve" smooth="yes"/>
      <point x="387" y="125" type="line"/>
      <point x="315" y="169"/>
      <point x="295" y="235"/>
      <point x="295" y="358" type="curve" smooth="yes"/>
      <point x="295" y="543"/>
      <point x="334" y="646"/>
      <point x="473" y="646" type="curve" smooth="yes"/>
      <point x="575" y="646"/>
      <point x="596" y="572"/>
      <point x="596" y="494" type="curve"/>
      <point x="716" y="494"/>
      <point x="773" y="544"/>
      <point x="773" y="603" type="curve" smooth="yes"/>
      <point x="773" y="672"/>
      <point x="678" y="724"/>
      <point x="486" y="724" type="curve" smooth="yes"/>
      <point x="200" y="724"/>
      <point x="56" y="574"/>
      <point x="56" y="358" type="curve" smooth="yes"/>
      <point x="56" y="138"/>
      <point x="197" y="-10"/>
    </contour>
  </outline>
</glyph>
<glyph name="afii08941" format="2">
  <advance width="672"/>
  <unicode hex="20A4"/>
  <outline>
    <contour>
      <point x="33" y="-35" type="line"/>
      <point x="112" y="5" type="line" smooth="yes"/>
      <point x="146" y="23"/>
      <point x="181" y="32"/>
      <point x="235" y="32" type="curve" smooth="yes"/>
      <point x="260" y="32"/>
      <point x="309" y="21"/>
      <point x="350" y="10" type="curve" smooth="yes"/>
      <point x="382" y="0"/>
      <point x="452" y="-10"/>
      <point x="506" y="-10" type="curve" smooth="yes"/>
      <point x="556" y="-10"/>
      <point x="597" y="-5"/>
      <point x="629" y="54" type="curve"/>
      <point x="629" y="223" type="line"/>
      <point x="598" y="165"/>
      <point x="558" y="132"/>
      <point x="506" y="132" type="curve" smooth="yes"/>
      <point x="466" y="132"/>
      <point x="446" y="134"/>
      <point x="416" y="143" type="curve" smooth="yes"/>
      <point x="352" y="158"/>
      <point x="348" y="164"/>
      <point x="316" y="164" type="curve" smooth="yes"/>
      <point x="285" y="164"/>
      <point x="270" y="163"/>
      <point x="258" y="163" type="curve"/>
      <point x="254" y="169" type="line"/>
      <point x="298" y="187"/>
      <point x="323" y="206"/>
      <point x="347" y="212" type="curve"/>
      <point x="533" y="212" type="line"/>
      <point x="533" y="290" type="line"/>
      <point x="362" y="290" type="line"/>
      <point x="362" y="308"/>
      <point x="356" y="311"/>
      <point x="348" y="339" type="curve"/>
      <point x="533" y="339" type="line"/>
      <point x="533" y="418" type="line"/>
      <point x="321" y="418" type="line"/>
      <point x="304" y="444"/>
      <point x="287" y="503"/>
      <point x="287" y="549" type="curve" smooth="yes"/>
      <point x="287" y="622"/>
      <point x="322" y="650"/>
      <point x="358" y="650" type="curve" smooth="yes"/>
      <point x="418" y="650"/>
      <point x="432" y="563"/>
      <point x="432" y="502" type="curve"/>
      <point x="557" y="502"/>
      <point x="618" y="552"/>
      <point x="618" y="603" type="curve" smooth="yes"/>
      <point x="618" y="671"/>
      <point x="548" y="724"/>
      <point x="368" y="724" type="curve" smooth="yes"/>
      <point x="187" y="724"/>
      <point x="94" y="661"/>
      <point x="94" y="543" type="curve" smooth="yes"/>
      <point x="94" y="497"/>
      <point x="114" y="440"/>
      <point x="127" y="418" type="curve"/>
      <point x="17" y="418" type="line"/>
      <point x="17" y="339" type="line"/>
      <point x="155" y="339" type="line"/>
      <point x="164" y="318"/>
      <point x="170" y="303"/>
      <point x="175" y="290" type="curve"/>
      <point x="17" y="290" type="line"/>
      <point x="17" y="212" type="line"/>
      <point x="176" y="212" type="line"/>
      <point x="160" y="165"/>
      <point x="109" y="140"/>
      <point x="84" y="127" type="curve" smooth="yes"/>
      <point x="33" y="98" type="line"/>
    </contour>
  </outline>
</glyph>
<glyph name="telephone" format="2">
  <advance width="1134"/>
  <unicode hex="2121"/>
  <outline>
    <contour>
      <point x="105" y="368" type="line"/>
      <point x="303" y="368" type="line"/>
      <point x="303" y="395" type="line"/>
      <point x="285" y="395" type="line" smooth="yes"/>
      <point x="261" y="395"/>
      <point x="240" y="399"/>
      <point x="240" y="426" type="curve" smooth="yes"/>
      <point x="240" y="682" type="line"/>
      <point x="294" y="682" type="line" smooth="yes"/>
      <point x="328" y="682"/>
      <point x="337" y="666"/>
      <point x="340" y="647" type="curve" smooth="yes"/>
      <point x="345" y="623" type="line"/>
      <point x="379" y="623" type="line"/>
      <point x="375" y="714" type="line"/>
      <point x="35" y="714" type="line"/>
      <point x="32" y="623" type="line"/>
      <point x="66" y="623" type="line"/>
      <point x="70" y="647" type="line" smooth="yes"/>
      <point x="73" y="667"/>
      <point x="83" y="682"/>
      <point x="117" y="682" type="curve" smooth="yes"/>
      <point x="168" y="682" type="line"/>
      <point x="168" y="423" type="line" smooth="yes"/>
      <point x="168" y="399"/>
      <point x="148" y="395"/>
      <point x="125" y="395" type="curve" smooth="yes"/>
      <point x="105" y="395" type="line"/>
    </contour>
    <contour>
      <point x="397" y="368" type="line"/>
      <point x="727" y="368" type="line"/>
      <point x="731" y="459" type="line"/>
      <point x="696" y="459" type="line"/>
      <point x="692" y="436" type="line" smooth="yes"/>
      <point x="688" y="414"/>
      <point x="666" y="399"/>
      <point x="631" y="399" type="curve" smooth="yes"/>
      <point x="525" y="399" type="line"/>
      <point x="525" y="531" type="line"/>
      <point x="665" y="531" type="line"/>
      <point x="665" y="563" type="line"/>
      <point x="525" y="563" type="line"/>
      <point x="525" y="682" type="line"/>
      <point x="623" y="682" type="line" smooth="yes"/>
      <point x="658" y="682"/>
      <point x="670" y="664"/>
      <point x="673" y="645" type="curve" smooth="yes"/>
      <point x="678" y="623" type="line"/>
      <point x="712" y="623" type="line"/>
      <point x="708" y="714" type="line"/>
      <point x="397" y="714" type="line"/>
      <point x="397" y="686" type="line"/>
      <point x="409" y="686" type="line" smooth="yes"/>
      <point x="435" y="686"/>
      <point x="456" y="682"/>
      <point x="456" y="655" type="curve" smooth="yes"/>
      <point x="456" y="424" type="line" smooth="yes"/>
      <point x="456" y="399"/>
      <point x="435" y="395"/>
      <point x="409" y="395" type="curve" smooth="yes"/>
      <point x="397" y="395" type="line"/>
    </contour>
    <contour>
      <point x="750" y="368" type="line"/>
      <point x="1079" y="368" type="line"/>
      <point x="1084" y="478" type="line"/>
      <point x="1047" y="478" type="line"/>
      <point x="1040" y="440" type="line" smooth="yes"/>
      <point x="1037" y="419"/>
      <point x="1020" y="399"/>
      <point x="987" y="399" type="curve" smooth="yes"/>
      <point x="879" y="399" type="line"/>
      <point x="879" y="657" type="line" smooth="yes"/>
      <point x="879" y="682"/>
      <point x="900" y="686"/>
      <point x="926" y="686" type="curve" smooth="yes"/>
      <point x="938" y="686" type="line"/>
      <point x="938" y="714" type="line"/>
      <point x="750" y="714" type="line"/>
      <point x="750" y="686" type="line"/>
      <point x="764" y="686" type="line" smooth="yes"/>
      <point x="789" y="686"/>
      <point x="810" y="682"/>
      <point x="810" y="655" type="curve" smooth="yes"/>
      <point x="810" y="426" type="line" smooth="yes"/>
      <point x="810" y="399"/>
      <point x="789" y="395"/>
      <point x="764" y="395" type="curve" smooth="yes"/>
      <point x="750" y="395" type="line"/>
    </contour>
  </outline>
</glyph>
<glyph name="betsymbol" format="2">
  <advance width="628"/>
  <unicode hex="2136"/>
  <outline>
    <contour>
      <point x="27" y="0" type="line"/>
      <point x="597" y="0" type="line"/>
      <point x="597" y="133" type="line"/>
      <point x="518" y="133" type="line"/>
      <point x="518" y="293" type="line"/>
      <point x="518" y="503"/>
      <point x="425" y="585"/>
      <point x="211" y="585" type="curve"/>
      <point x="52" y="585" type="line"/>
      <point x="52" y="455" type="line"/>
      <point x="200" y="455" type="line"/>
      <point x="308" y="455"/>
      <point x="356" y="416"/>
      <point x="356" y="312" type="curve"/>
      <point x="356" y="133" type="line"/>
      <point x="27" y="133" type="line"/>
    </contour>
  </outline>
</glyph>
<glyph name="propertyline" format="2">
  <advance width="1033"/>
  <unicode hex="214A"/>
  <outline>
    <contour>
      <point x="267" y="0" type="line"/>
      <point x="993" y="0" type="line"/>
      <point x="1001" y="239" type="line"/>
      <point x="932" y="239" type="line"/>
      <point x="908" y="165" type="line" smooth="yes"/>
      <point x="887" y="94"/>
      <point x="858" y="74"/>
      <point x="816" y="74" type="curve" smooth="yes"/>
      <point x="608" y="74" type="line"/>
      <point x="608" y="228" type="line"/>
      <point x="861" y="237"/>
      <point x="958" y="335"/>
      <point x="958" y="481" type="curve" smooth="yes"/>
      <point x="958" y="637"/>
      <point x="841" y="713"/>
      <point x="608" y="714" type="curve"/>
      <point x="608" y="799" type="line"/>
      <point x="374" y="799" type="line"/>
      <point x="374" y="714" type="line"/>
      <point x="5" y="714" type="line"/>
      <point x="5" y="648" type="line"/>
      <point x="34" y="648" type="line" smooth="yes"/>
      <point x="60" y="648"/>
      <point x="89" y="641"/>
      <point x="89" y="595" type="curve" smooth="yes"/>
      <point x="89" y="175" type="line"/>
      <point x="322" y="175" type="line"/>
      <point x="322" y="642" type="line"/>
      <point x="374" y="642" type="line"/>
      <point x="374" y="109" type="line" smooth="yes"/>
      <point x="374" y="82"/>
      <point x="350" y="66"/>
      <point x="329" y="66" type="curve" smooth="yes"/>
      <point x="267" y="66" type="line"/>
    </contour>
    <contour>
      <point x="608" y="299" type="curve"/>
      <point x="608" y="642" type="line"/>
      <point x="680" y="636"/>
      <point x="716" y="578"/>
      <point x="716" y="477" type="curve" smooth="yes"/>
      <point x="716" y="365"/>
      <point x="680" y="303"/>
    </contour>
  </outline>
</glyph>
<glyph name="uni2C64" format="2">
  <advance width="878"/>
  <unicode hex="2C64"/>
  <anchor x="440" y="-227" name="bottom"/>
  <anchor x="440" y="714" name="top"/>
  <outline>
    <contour>
      <point x="350" y="-227" type="curve" smooth="yes"/>
      <point x="439" y="-227"/>
      <point x="490" y="-217"/>
      <point x="526" y="-210" type="curve"/>
      <point x="526" y="-148" type="line"/>
      <point x="504" y="-150"/>
      <point x="479" y="-153"/>
      <point x="451" y="-153" type="curve" smooth="yes"/>
      <point x="390" y="-153"/>
      <point x="365" y="-130"/>
      <point x="365" y="-80" type="curve" smooth="yes"/>
      <point x="365" y="304" type="line"/>
      <point x="427" y="304" type="line"/>
      <point x="549" y="90" type="line" smooth="yes"/>
      <point x="594" y="15"/>
      <point x="688" y="0"/>
      <point x="823" y="0" type="curve" smooth="yes"/>
      <point x="878" y="0" type="line"/>
      <point x="878" y="66" type="line"/>
      <point x="870" y="66" type="line" smooth="yes"/>
      <point x="832" y="66"/>
      <point x="806" y="91"/>
      <point x="762" y="155" type="curve" smooth="yes"/>
      <point x="631" y="342" type="line"/>
      <point x="720" y="363"/>
      <point x="796" y="409"/>
      <point x="796" y="525" type="curve" smooth="yes"/>
      <point x="796" y="633"/>
      <point x="707" y="714"/>
      <point x="445" y="714" type="curve" smooth="yes"/>
      <point x="25" y="714" type="line"/>
      <point x="25" y="648" type="line"/>
      <point x="69" y="648" type="line" smooth="yes"/>
      <point x="92" y="648"/>
      <point x="132" y="641"/>
      <point x="132" y="595" type="curve" smooth="yes"/>
      <point x="132" y="-42" type="line" smooth="yes"/>
      <point x="132" y="-156"/>
      <point x="187" y="-227"/>
    </contour>
    <contour>
      <point x="365" y="375" type="line"/>
      <point x="365" y="642" type="line"/>
      <point x="415" y="642" type="line" smooth="yes"/>
      <point x="501" y="642"/>
      <point x="549" y="607"/>
      <point x="549" y="511" type="curve" smooth="yes"/>
      <point x="549" y="419"/>
      <point x="508" y="375"/>
      <point x="417" y="375" type="curve" smooth="yes"/>
    </contour>
  </outline>
</glyph>
<glyph name="uni2C6A" format="2">
  <advance width="850"/>
  <unicode hex="2C6A"/>
  <anchor x="426" y="0" name="bottom"/>
  <anchor x="426" y="760" name="top"/>
  <outline>
    <contour>
      <point x="769" y="-198" type="line"/>
      <point x="842" y="-198" type="line"/>
      <point x="842" y="66" type="line"/>
      <point x="822" y="66" type="line" smooth="yes"/>
      <point x="760" y="66"/>
      <point x="736" y="72"/>
      <point x="703" y="113" type="curve" smooth="yes"/>
      <point x="521" y="348" type="line"/>
      <point x="577" y="402" type="line" smooth="yes"/>
      <point x="640" y="460"/>
      <point x="689" y="476"/>
      <point x="743" y="476" type="curve"/>
      <point x="743" y="536" type="line"/>
      <point x="422" y="536" type="line"/>
      <point x="422" y="476" type="line"/>
      <point x="469" y="476"/>
      <point x="485" y="465"/>
      <point x="485" y="448" type="curve" smooth="yes"/>
      <point x="485" y="430"/>
      <point x="468" y="424"/>
      <point x="449" y="401" type="curve"/>
      <point x="329" y="296" type="line"/>
      <point x="333" y="322"/>
      <point x="336" y="346"/>
      <point x="336" y="380" type="curve" smooth="yes"/>
      <point x="336" y="760" type="line"/>
      <point x="19" y="760" type="line"/>
      <point x="19" y="694" type="line"/>
      <point x="36" y="694" type="line" smooth="yes"/>
      <point x="55" y="694"/>
      <point x="110" y="687"/>
      <point x="110" y="641" type="curve" smooth="yes"/>
      <point x="110" y="123" type="line" smooth="yes"/>
      <point x="110" y="73"/>
      <point x="56" y="66"/>
      <point x="36" y="66" type="curve" smooth="yes"/>
      <point x="19" y="66" type="line"/>
      <point x="19" y="0" type="line"/>
      <point x="431" y="0" type="line"/>
      <point x="431" y="66" type="line"/>
      <point x="409" y="66" type="line" smooth="yes"/>
      <point x="389" y="66"/>
      <point x="336" y="74"/>
      <point x="336" y="129" type="curve" smooth="yes"/>
      <point x="336" y="201" type="line"/>
      <point x="368" y="215" type="line"/>
      <point x="461" y="93" type="line" smooth="yes"/>
      <point x="519" y="11"/>
      <point x="582" y="4"/>
      <point x="679" y="0" type="curve" smooth="yes"/>
      <point x="748" y="1"/>
      <point x="757" y="-29"/>
      <point x="764" y="-123" type="curve" smooth="yes"/>
    </contour>
  </outline>
</glyph>
<glyph name="leftdottedsubstitutionbracket" format="2">
  <advance width="399"/>
  <unicode hex="2E04"/>
  <outline>
    <contour>
      <point x="59" y="246" type="line"/>
      <point x="142" y="246" type="line"/>
      <point x="142" y="558" type="line"/>
      <point x="340" y="662" type="line"/>
      <point x="297" y="724" type="line"/>
      <point x="59" y="597" type="line"/>
    </contour>
    <contour>
      <point x="281" y="419" type="curve" smooth="yes"/>
      <point x="313" y="419"/>
      <point x="340" y="435"/>
      <point x="340" y="475" type="curve" smooth="yes"/>
      <point x="340" y="512"/>
      <point x="319" y="531"/>
      <point x="281" y="531" type="curve" smooth="yes"/>
      <point x="240" y="531"/>
      <point x="222" y="511"/>
      <point x="222" y="475" type="curve" smooth="yes"/>
      <point x="222" y="435"/>
      <point x="247" y="419"/>
    </contour>
  </outline>
</glyph>
<glyph name="raisedinterpolationmarker" format="2">
  <advance width="596"/>
  <unicode hex="2E06"/>
  <outline>
    <contour>
      <point x="257" y="246" type="line"/>
      <point x="339" y="246" type="line"/>
      <point x="339" y="644" type="line"/>
      <point x="537" y="644" type="line"/>
      <point x="537" y="714" type="line"/>
      <point x="59" y="714" type="line"/>
      <point x="59" y="644" type="line"/>
      <point x="257" y="644" type="line"/>
    </contour>
  </outline>
</glyph>
<glyph name="lefttranspositionbracket" format="2">
  <advance width="583"/>
  <unicode hex="2E09"/>
  <outline>
    <contour>
      <point x="230" y="212" type="curve" smooth="yes"/>
      <point x="325" y="212"/>
      <point x="413" y="257"/>
      <point x="413" y="348" type="curve" smooth="yes"/>
      <point x="413" y="411"/>
      <point x="380" y="448"/>
      <point x="333" y="490" type="curve" smooth="yes"/>
      <point x="289" y="530"/>
      <point x="258" y="557"/>
      <point x="258" y="602" type="curve" smooth="yes"/>
      <point x="258" y="648"/>
      <point x="296" y="679"/>
      <point x="355" y="679" type="curve" smooth="yes"/>
      <point x="408" y="679"/>
      <point x="447" y="664"/>
      <point x="487" y="645" type="curve"/>
      <point x="523" y="708" type="line"/>
      <point x="476" y="733"/>
      <point x="425" y="749"/>
      <point x="355" y="749" type="curve" smooth="yes"/>
      <point x="258" y="749"/>
      <point x="173" y="697"/>
      <point x="173" y="598" type="curve" smooth="yes"/>
      <point x="173" y="535"/>
      <point x="211" y="495"/>
      <point x="258" y="453" type="curve" smooth="yes"/>
      <point x="296" y="418"/>
      <point x="328" y="386"/>
      <point x="328" y="347" type="curve" smooth="yes"/>
      <point x="328" y="307"/>
      <point x="290" y="282"/>
      <point x="227" y="282" type="curve" smooth="yes"/>
      <point x="175" y="282"/>
      <point x="126" y="296"/>
      <point x="92" y="312" type="curve"/>
      <point x="59" y="246" type="line"/>
      <point x="103" y="225"/>
      <point x="167" y="212"/>
    </contour>
  </outline>
</glyph>
<glyph name="reversedforkedparagraphos" format="2">
  <advance width="1167"/>
  <unicode hex="2E11"/>
  <outline>
    <contour>
      <point x="-5" y="-83" type="line"/>
      <point x="-5" y="-142" type="line"/>
      <point x="838" y="-142" type="line"/>
      <point x="1115" y="-294" type="line"/>
      <point x="1157" y="-243" type="line"/>
      <point x="968" y="-142" type="line"/>
      <point x="1173" y="-142" type="line"/>
      <point x="1173" y="-83" type="line"/>
    </contour>
  </outline>
</glyph>
<glyph name="dottedrightpointingangle" format="2">
  <advance width="667"/>
  <unicode hex="2E16"/>
  <outline>
    <contour>
      <point x="59" y="139" type="line"/>
      <point x="608" y="360" type="line"/>
      <point x="608" y="410" type="line"/>
      <point x="59" y="631" type="line"/>
      <point x="59" y="553" type="line"/>
      <point x="486" y="385" type="line"/>
      <point x="59" y="217" type="line"/>
    </contour>
    <contour>
      <point x="308" y="42" type="curve" smooth="yes"/>
      <point x="346" y="42"/>
      <point x="378" y="69"/>
      <point x="378" y="102" type="curve" smooth="yes"/>
      <point x="378" y="135"/>
      <point x="346" y="162"/>
      <point x="308" y="162" type="curve" smooth="yes"/>
      <point x="269" y="162"/>
      <point x="238" y="135"/>
      <point x="238" y="102" type="curve" smooth="yes"/>
      <point x="238" y="69"/>
      <point x="269" y="42"/>
    </contour>
    <contour>
      <point x="308" y="608" type="curve" smooth="yes"/>
      <point x="346" y="608"/>
      <point x="378" y="635"/>
      <point x="378" y="668" type="curve" smooth="yes"/>
      <point x="378" y="701"/>
      <point x="346" y="728"/>
      <point x="308" y="728" type="curve" smooth="yes"/>
      <point x="269" y="728"/>
      <point x="238" y="701"/>
      <point x="238" y="668" type="curve" smooth="yes"/>
      <point x="238" y="635"/>
      <point x="269" y="608"/>
    </contour>
  </outline>
</glyph>
<glyph name="leftsidewaysubracket" format="2">
  <advance width="1167"/>
  <unicode hex="2E26"/>
  <outline>
    <contour>
      <point x="585" y="193" type="curve" smooth="yes"/>
      <point x="919" y="193" type="line"/>
      <point x="919" y="241" type="line"/>
      <point x="585" y="241" type="line" smooth="yes"/>
      <point x="438" y="241"/>
      <point x="300" y="237"/>
      <point x="300" y="354" type="curve" smooth="yes"/>
      <point x="300" y="471"/>
      <point x="438" y="467"/>
      <point x="585" y="467" type="curve" smooth="yes"/>
      <point x="919" y="467" type="line"/>
      <point x="919" y="515" type="line"/>
      <point x="585" y="515" type="line" smooth="yes"/>
      <point x="421" y="515"/>
      <point x="246" y="513"/>
      <point x="246" y="354" type="curve" smooth="yes"/>
      <point x="246" y="195"/>
      <point x="422" y="193"/>
    </contour>
  </outline>
</glyph>
<glyph name="uni2E3E" format="2">
  <advance width="335"/>
  <unicode hex="2E3E"/>
  <outline>
    <contour>
      <point x="46" y="-193" type="line"/>
      <point x="98" y="-193" type="line" smooth="yes"/>
      <point x="210" y="-193"/>
      <point x="290" y="-169"/>
      <point x="290" y="-101" type="curve" smooth="yes"/>
      <point x="290" y="1"/>
      <point x="95" y="-35"/>
      <point x="95" y="30" type="curve" smooth="yes"/>
      <point x="95" y="93"/>
      <point x="290" y="55"/>
      <point x="290" y="161" type="curve" smooth="yes"/>
      <point x="290" y="267"/>
      <point x="95" y="229"/>
      <point x="95" y="292" type="curve" smooth="yes"/>
      <point x="95" y="355"/>
      <point x="290" y="317"/>
      <point x="290" y="423" type="curve" smooth="yes"/>
      <point x="290" y="529"/>
      <point x="95" y="491"/>
      <point x="95" y="554" type="curve" smooth="yes"/>
      <point x="95" y="617"/>
      <point x="290" y="579"/>
      <point x="290" y="685" type="curve" smooth="yes"/>
      <point x="290" y="791"/>
      <point x="95" y="753"/>
      <point x="95" y="816" type="curve" smooth="yes"/>
      <point x="95" y="868"/>
      <point x="187" y="868"/>
      <point x="290" y="868" type="curve"/>
      <point x="290" y="908" type="line"/>
      <point x="237" y="908" type="line" smooth="yes"/>
      <point x="125" y="908"/>
      <point x="46" y="884"/>
      <point x="46" y="816" type="curve" smooth="yes"/>
      <point x="46" y="714"/>
      <point x="240" y="750"/>
      <point x="240" y="685" type="curve" smooth="yes"/>
      <point x="240" y="620"/>
      <point x="46" y="656"/>
      <point x="46" y="554" type="curve" smooth="yes"/>
      <point x="46" y="452"/>
      <point x="240" y="488"/>
      <point x="240" y="423" type="curve" smooth="yes"/>
      <point x="240" y="358"/>
      <point x="46" y="394"/>
      <point x="46" y="292" type="curve" smooth="yes"/>
      <point x="46" y="190"/>
      <point x="240" y="226"/>
      <point x="240" y="161" type="curve" smooth="yes"/>
      <point x="240" y="96"/>
      <point x="46" y="132"/>
      <point x="46" y="30" type="curve" smooth="yes"/>
      <point x="46" y="-76"/>
      <point x="240" y="-38"/>
      <point x="240" y="-101" type="curve" smooth="yes"/>
      <point x="240" y="-153"/>
      <point x="148" y="-153"/>
      <point x="46" y="-153" type="curve"/>
    </contour>
  </outline>
</glyph>
<glyph name="uniA64D" format="2">
  <advance width="1155"/>
  <unicode hex="A64D"/>
  <outline>
    <contour>
      <point x="344" y="-10" type="curve" smooth="yes"/>
      <point x="475" y="-10"/>
      <point x="540" y="40"/>
      <point x="578" y="90" type="curve"/>
      <point x="616" y="41"/>
      <point x="680" y="-10"/>
      <point x="811" y="-10" type="curve" smooth="yes"/>
      <point x="1033" y="-10"/>
      <point x="1107" y="94"/>
      <point x="1107" y="273" type="curve" smooth="yes"/>
      <point x="1107" y="455"/>
      <point x="1014" y="550"/>
      <point x="808" y="550" type="curve" smooth="yes"/>
      <point x="687" y="550"/>
      <point x="611" y="500"/>
      <point x="611" y="425" type="curve" smooth="yes"/>
      <point x="611" y="371"/>
      <point x="656" y="347"/>
      <point x="756" y="347" type="curve"/>
      <point x="756" y="407"/>
      <point x="766" y="478"/>
      <point x="814" y="478" type="curve" smooth="yes"/>
      <point x="861" y="478"/>
      <point x="880" y="441"/>
      <point x="880" y="298" type="curve" smooth="yes"/>
      <point x="880" y="131"/>
      <point x="839" y="90"/>
      <point x="743" y="90" type="curve" smooth="yes"/>
      <point x="651" y="90"/>
      <point x="624" y="151"/>
      <point x="603" y="211" type="curve"/>
      <point x="554" y="211" type="line"/>
      <point x="533" y="151"/>
      <point x="504" y="90"/>
      <point x="413" y="90" type="curve" smooth="yes"/>
      <point x="316" y="90"/>
      <point x="275" y="132"/>
      <point x="275" y="299" type="curve" smooth="yes"/>
      <point x="275" y="442"/>
      <point x="293" y="478"/>
      <point x="342" y="478" type="curve" smooth="yes"/>
      <point x="390" y="478"/>
      <point x="399" y="407"/>
      <point x="399" y="347" type="curve"/>
      <point x="499" y="347"/>
      <point x="544" y="371"/>
      <point x="544" y="425" type="curve" smooth="yes"/>
      <point x="544" y="500"/>
      <point x="469" y="550"/>
      <point x="348" y="550" type="curve" smooth="yes"/>
      <point x="141" y="550"/>
      <point x="48" y="456"/>
      <point x="48" y="274" type="curve" smooth="yes"/>
      <point x="48" y="94"/>
      <point x="123" y="-10"/>
    </contour>
  </outline>
</glyph>
